<svg width="97" height="46" fill="none" xmlns="http://www.w3.org/2000/svg"><path d="M.063 27.116c.107.018.219.018.317.054 1.298.472 2.596.95 3.894 1.422.794.286 1.597.545 2.387.84.87.32 1.73.673 2.6.998.812.304 1.633.594 2.45.893.94.343 1.877.704 2.828 1.035.646.227 1.302.414 1.953.615.063.018.139-.004.192-.004-.071-.647-.16-1.276-.205-1.905-.12-1.677-.04-3.35.437-4.965.335-1.129.723-2.253 1.445-3.225.473-.634.906-1.298 1.32-1.972.242-.392.398-.838.608-1.249.182-.357.383-.71.584-1.057.152-.263.326-.513.468-.78.031-.059 0-.201-.049-.246a59.103 59.103 0 00-1.748-1.419c-.058-.044-.25-.004-.326.063-.375.321-.732.669-1.102 1.004-.46.414-1.03.521-1.61.477-1.16-.098-2.315-.254-3.475-.384a15.3 15.3 0 00-.388-.044c.089 2.092.174 4.144.258 6.2-.026 0-.053.005-.08.005l-.147-1.473c-.219-2.185-.442-4.367-.651-6.552-.036-.388-.183-.513-.59-.554-1.56-.16-3.117-.374-4.674-.566-.754-.094-1.512-.183-2.266-.281-.165-.022-.326-.063-.49-.094l.013-.102c.727.044 1.454.062 2.176.133 1.65.157 3.297.317 4.947.505 1.878.214 3.752.441 5.626.687.704.093 1.396.258 2.092.388.94.178 1.663.722 2.297 1.396.482.508.482.544.977.156 1.133-.897 2.435-1.151 3.836-1.066 1.307.08 2.427.642 3.489 1.343 1.11.731 2.025 1.672 2.859 2.707.977 1.218 1.833 2.512 2.65 3.84 1.083 1.776 1.753 3.708 2.292 5.697.357 1.32.759 2.632 1.089 3.962a47.08 47.08 0 01.731 3.528c.161.968.215 1.95.313 2.926.058.607.053.616.646.723 2.503.442 5.01.799 7.548 1.004 5.353.432 10.71.285 16.063.325 2.61.018 5.193-.348 7.776-.664.865-.107 1.748-.085 2.6-.232a94.246 94.246 0 004.568-.942 81.597 81.597 0 003.564-.905c1.156-.317 2.302-.67 3.448-1.017 1.357-.41 2.713-.83 4.069-1.254.664-.21 1.325-.446 1.985-.669.053-.018.111-.031.17-.049.017.036.04.067.057.103-.495.32-.981.655-1.49.959-.856.513-1.713 1.03-2.591 1.499-.58.307-1.2.544-1.807.794-.86.348-1.73.682-2.596 1.017-.888.343-1.784.673-2.672 1.008-.825.312-1.637.656-2.471.932a50.48 50.48 0 01-3.127.946c-.924.24-1.86.455-2.802.593a88.98 88.98 0 01-4.746.589c-1.905.183-3.818.308-5.732.428-3.484.223-6.972.286-10.46.072-1.312-.08-2.633-.067-3.94-.192-1.98-.188-3.952-.446-5.924-.692a70.408 70.408 0 01-3.35-.477c-.95-.165-1.887-.397-2.828-.602l-1.293-.281c.535-.281 1.043-.477 1.472-.785a31.605 31.605 0 002.31-1.838c.214-.192.415-.567.393-.834-.13-1.437-.107-2.9-.63-4.278-.03-.085-.129-.197-.204-.2-1.03-.09-1.927-.5-2.757-1.098-.78-.562-1.593-1.089-2.217-1.847-.388-.473-.344-.955.187-1.231.75-.388 1.508-.759 2.262-1.138.085-.044.205-.08.245-.156.295-.54.576-1.088.857-1.633-.036-.03-.067-.062-.103-.098-.437.157-.879.308-1.316.464-.009-.018-.013-.035-.022-.053.294-.156.589-.321.888-.464.432-.21.504-.384.285-.772-.218-.383-.428-.415-.816-.183-.768.455-1.548.883-2.315 1.338-.451.268-.942.518-1.303.884-.281.285-.442.727-.571 1.124a5.564 5.564 0 01-1.285 2.186.79.79 0 00-.2.392c-.076.482-.139.968-.165 1.454-.023.34.058.687.026 1.026-.196 2.333-.41 4.67-.61 7.004-.023.258-.121.343-.393.339-1.535-.023-2.931-.464-4.26-1.218a13.305 13.305 0 01-3.805-3.225c-.692-.857-1.214-1.816-1.629-2.85-.87-2.182-1.097-4.444-.91-6.75a9.336 9.336 0 01.817-3.154c.535-1.164 1.195-2.248 2.07-3.171.847-.892 1.788-1.695 2.97-2.132.95-.353 1.887-.812 2.873-.977 1.262-.21 2.57-.26 3.814.245.259.103.54.138.812.205l.076-.089c-.446-.401-.901-.799-1.338-1.213-1.035-.982-2.23-.995-3.498-.594-.664.21-1.351.37-1.971.665a15.37 15.37 0 00-2.133 1.271 9.519 9.519 0 00-1.539 1.33 16.19 16.19 0 00-1.547 1.98c-.41.616-.768 1.285-1.044 1.972-.308.772-.513 1.583-.732 2.386-.406 1.508-.393 3.047-.187 4.573.12.878.392 1.74.615 2.605.139.535.295 1.062.464 1.583.134.42.295.826.442 1.24a.832.832 0 01.04.349C12.523 33.86 6.589 30.016.01 27.303a.682.682 0 01.053-.187zm27.068-7.454c-.156 0-.316-.027-.463.005-.683.142-1.366.285-2.04.459-1.244.317-2.296.986-3.251 1.829-.723.638-1.485 1.24-1.936 2.128-.33.655-.687 1.298-.995 1.962-.468 1-.566 2.08-.584 3.159-.027 1.534-.04 3.069.593 4.523.085.196.147.29.366.196.977-.41 1.958-.82 2.94-1.222.87-.357 1.744-.705 2.614-1.062.794-.325 1.588-.66 2.377-.99a.757.757 0 00-.031-.094c-.143.018-.29.023-.428.05-.723.147-1.441.303-2.16.459-.972.205-1.94.401-2.912.615-.241.054-.361-.04-.455-.254-.526-1.227-.544-2.511-.366-3.796.054-.384-.08-.625-.263-.892-.254-.366-.5-.732-.75-1.097l.076-.09c1.896.982 3.792 1.967 5.683 2.949-.348-.384-.731-.723-1.11-1.066-.38-.34-.759-.678-1.129-1.026-.357-.335-.696-.687-1.044-1.03.031-.04.067-.076.098-.117 1.985 1.504 4.078 2.833 6.237 4.069a2.447 2.447 0 00-.3-.429c-.718-.865-1.49-1.686-2.132-2.6-.704-1.004-1.298-2.088-1.922-3.15-.076-.124-.08-.307-.08-.463.008-.585.41-.964.78-1.325.74-.732 1.633-1.236 2.587-1.7zm-8.319 15.845c.285.513.504.946.754 1.356.58.959 1.334 1.775 2.195 2.476a23.493 23.493 0 002.368 1.712c.616.384 1.298.67 1.972.946.312.13.678.125 1.03.188.348-3.159.687-6.25 1.026-9.341-.044-.01-.089-.018-.133-.027-.714 2.288-1.423 4.577-2.15 6.91-.38-.223-.737-.433-1.093-.634-.942-.522-1.673-1.258-2.284-2.132-.152-.214-.281-.53-.491-.607-.83-.29-1.686-.508-2.534-.745-.165-.044-.348-.053-.66-.102zm9.858-15.443l-.111.093c.062.509.125 1.017.183 1.526.218 1.878.42 3.756.66 5.63.076.588.245 1.164.406 1.739.031.12.196.21.299.312.071-.143.183-.276.2-.428.175-1.338.33-2.68.491-4.02.116-.963.228-1.926.883-2.711.157-.188.063-.286-.12-.397-.562-.34-1.102-.714-1.664-1.058-.401-.24-.816-.454-1.227-.686zm-.785-.09c.014 3.011.553 5.942 1.28 8.846-.231-2.98-.677-5.924-1.28-8.846z" fill="#333"/><path d="M15.42 9.31c.353.04.71.093 1.062.11 1.459.063 2.926.068 4.38.184 2.302.182 4.6.41 6.893.673 1.802.205 3.6.469 5.388.754 1.936.308 3.859.691 5.795 1.013 1.244.21 2.502.352 3.751.553 1.356.214 2.717.424 4.06.705 1.365.285 2.716.633 4.063.999 1.076.29 2.142.61 3.194.977 1.115.388 2.217.834 3.31 1.284 1.133.464 2.262.933 3.368 1.455 1.245.588 2.48 1.204 3.671 1.891.754.437 1.428 1.021 2.128 1.548.223.165.38.424.228.669a.907.907 0 01-.558.38c-.49.088-1 .146-1.499.133-2.85-.058-5.7-.112-8.547-.219-1.075-.04-2.136-.276-3.158-.642-.62-.223-1.244-.437-1.86-.674-.75-.29-1.503-.584-2.24-.914-.958-.433-1.895-.901-2.845-1.356-.683-.33-1.36-.656-2.039-.995-.526-.263-1.04-.535-1.561-.807-.946-.486-1.887-.973-2.833-1.463-.803-.415-1.597-.848-2.4-1.258-.999-.513-1.962-1.093-3.042-1.446-1.173-.383-2.306-.883-3.475-1.262a14.677 14.677 0 00-2.39-.571 115.95 115.95 0 00-5.296-.687c-1.61-.17-3.23-.277-4.849-.375-1.04-.067-2.087-.062-3.131-.102-1.075-.04-2.079.32-3.096.588-1.45.38-2.681 1.223-3.98 1.923-.07.04-.15.063-.338.138.731-1.293 1.588-2.377 2.48-3.56-.375-.053-.647-.11-.923-.129C8.1 8.76 7.07 8.69 6.039 8.644c-.883-.04-1.735-.2-2.489-.669-.54-.334-.669-.522-.245-1.155.776-1.164 1.994-1.57 3.238-1.87 1.165-.28 2.356-.485 3.574-.41.7.045 1.24.424 1.735.857.192.17.316.42.46.647.11.178.04.29-.161.348-1.057.299-2.133.468-3.248.441.776-.16 1.54-.303 2.297-.486.188-.044.433-.196.487-.357.04-.116-.152-.397-.308-.477-.442-.228-.906-.513-1.383-.562-1.994-.2-3.885.192-5.59 1.285-.29.183-.503.49-.73.758-.157.187-.117.366.062.549.526.535 1.45.593 1.918.325.548-.316 1.137-.424 1.73-.432.821-.014 1.642.062 2.458.138.188.018.357.214.545.308.223.111.455.285.682.285 1.446-.009 2.89-.053 4.465-.094-.267-.758-.5-1.418-.74-2.078-.071-.197-.187-.37-.272-.562-.165-.384-.415-.429-.683-.112-.25.295-.5.598-.75.897a.828.828 0 00-.084-.05c.16-.316.317-.633.482-.945a1.9 1.9 0 01.223-.335c.303-.383.397-.785.143-1.24-.326-.584-.571-1.226-.973-1.748-.486-.638-1.284-.7-2.03-.78-.276-.032-.562-.005-.843-.028a5.286 5.286 0 012.182-.053c.566.107.968.455 1.195.932a93.077 93.077 0 011.65 3.671c.34.785.648 1.584.955 2.382.103.268.282.344.545.3.227-.04.464-.059.691-.094.277-.045.375-.21.286-.478-.148-.441-.286-.883-.447-1.32-.29-.808-.588-1.606-.878-2.413-.014-.032 0-.072.071-.134.196.482.384.968.584 1.45.344.82.687 1.641 1.035 2.462.157.366.478.5.834.49.91-.022 1.816-.084 2.726-.11 2.32-.063 4.64-.121 6.963-.166 1.66-.031 3.315-.062 4.974-.058 5.639.009 11.282.031 16.92.05h.455c-.076-.184-.098-.331-.183-.416-.647-.651-1.271-1.334-1.976-1.922a21.207 21.207 0 00-2.427-1.753 39.604 39.604 0 00-3.15-1.7 17.658 17.658 0 00-2.243-.892c-.495-.16-1.026-.232-1.548-.281C31.72.312 24.2.584 16.683.579h-1.695c-.022 0-.04-.013-.067-.116C16.005.388 17.089.28 18.173.24c2.418-.098 4.84-.254 7.258-.227 4.117.044 8.23.192 12.342.334.968.032 1.936.174 2.891.335.535.094 1.062.303 1.566.517 1.347.576 2.694 1.16 4.024 1.78.972.455 1.909.982 2.868 1.468.544.276 1.106.526 1.65.803.272.138.522.321.794.455.87.42 1.82.544 2.757.727.848.165 1.713.29 2.49.727.557.312.637.584.285 1.093-.018.027-.023.067-.045.143.558.08 1.097.151 1.637.24 1.4.237 2.806.478 4.207.723 1.084.192 2.172.388 3.252.607.816.165 1.623.366 2.43.566 1.691.42 3.382.826 5.06 1.285 1.056.29 2.096.665 3.135 1.026.549.192 1.084.433 1.624.656.062.027.112.08.214.156-.094.022-.138.044-.174.036-.549-.17-1.093-.353-1.646-.513-1.209-.353-2.418-.714-3.64-1.026a98.64 98.64 0 00-4.224-.982 133.83 133.83 0 00-4.626-.86c-1.45-.246-2.904-.478-4.363-.665a126.214 126.214 0 00-4.684-.509c-1.833-.17-3.67-.325-5.509-.441-3.765-.241-7.538-.255-11.312-.22-2.507.023-5.014-.004-7.521.032-3.908.054-7.811.112-11.719.228-1.16.035-2.315.258-3.475.401-.102.014-.2.054-.303.08a.578.578 0 01.004.094zm25.614 3.871l-.026.112c.084.058.16.129.25.17.972.459 1.944.91 2.912 1.373 1.124.535 2.275 1.022 3.35 1.642 1.446.83 2.855 1.73 4.234 2.667.936.638 1.77 1.419 2.69 2.083.365.263.807.509 1.244.567 2.989.401 6.004.352 9.01.361.318 0 .643-.035.942-.125.344-.098.388-.392.103-.598a13.714 13.714 0 00-1.218-.807 59.495 59.495 0 00-2.35-1.267 79.55 79.55 0 00-3.003-1.44c-.745-.34-1.508-.634-2.266-.942-.758-.308-1.512-.633-2.28-.91a52.017 52.017 0 00-2.917-.968c-1.24-.366-2.485-.754-3.752-1.012-2.114-.438-4.242-.812-6.405-.902-.17-.008-.344-.004-.518-.004zm12.901 8.306c-.174-.205-.259-.361-.393-.455-1.27-.888-2.529-1.789-3.827-2.627a33.53 33.53 0 00-2.975-1.727c-1.236-.633-2.49-1.258-3.783-1.748-1.494-.567-3.042-1.013-4.577-1.463-.464-.139-.972-.12-1.463-.174-.022.058-.045.111-.067.17.116.097.219.222.352.29.58.284 1.174.543 1.754.829.918.45 1.828.919 2.743 1.378 1.07.54 2.141 1.075 3.207 1.62 1.513.771 3.002 1.583 4.532 2.31 1.089.518 2.226.937 3.355 1.37.33.12.71.138 1.142.227zm37.04 1.069c-.57.107-1.142.223-1.713.326l-3.653.669c-.905.165-1.811.312-2.712.49a.637.637 0 00-.393.264 289.69 289.69 0 00-2.047 3.421c-.58.977-1.155 1.954-1.722 2.935-.424.727-.834 1.463-1.245 2.2-.049.089-.071.2-.116.343.656-.09 1.258-.178 1.865-.259 1.267-.165 2.534-.29 3.796-.49.99-.16 1.967-.388 2.944-.625a66.865 66.865 0 003.087-.82c1.173-.34 1.99-1.12 2.534-2.195.352-.696.74-1.379 1.044-2.097.432-1.026.776-2.088.883-3.212.036-.388-.165-.687-.517-.843-.076-.031-.143-.076-.233-.125.545-.276 1.089.063 1.093.718.005.5-.067 1.004-.178 1.495-.375 1.673-1.115 3.185-2.025 4.64-.933 1.494-2.31 2.3-3.94 2.756-1.355.379-2.72.727-4.09 1.026-1.075.232-2.168.42-3.26.544-1.731.196-3.466.393-5.202.46-.758.03-1.552-.192-2.297-.41-.843-.246-1.254-.978-1.477-1.758-.347-1.232-.593-2.485-.504-3.779.067-.99.353-1.878 1.133-2.534.21-.178.464-.33.727-.414a37.847 37.847 0 015.626-1.267c.606-.09 1.195-.286 1.797-.37 2.088-.304 4.176-.607 6.272-.852 1.374-.165 2.761-.237 4.144-.344.125-.009.254 0 .38 0a.424.424 0 000 .107z" fill="#333"/><path d="M56.224 26.3c-1.664.379-3.328.762-5.103 1.168.928 2.708 1.824 5.322 2.739 7.999-.402-.067-.78-.134-1.16-.197-.843-.147-1.69-.267-2.53-.446-1.556-.334-2.81-1.204-3.782-2.431-.785-.99-1.485-2.052-2.186-3.11a9.273 9.273 0 01-.798-1.516c-.42-1 .124-2.23 1.52-2.199 1.584.04 3.168.045 4.752.107 1.9.076 3.8.187 5.7.294.29.018.58.12.866.188-.005.044-.01.093-.018.142z" fill="#E30D16"/><path d="M69.678 9.374c1.11-.187 2.19-.107 3.26.005a77.53 77.53 0 013.944.5 21.56 21.56 0 012.543.57c.95.272 1.886.603 2.819.937.562.2 1.017.504 1.418 1.022.504.646 1.196 1.177 1.878 1.646.982.678 2.017 1.28 3.056 1.869 1.53.865 3.051 1.784 4.755 2.266 1.044.294 1.762.95 2.387 1.748.437.558.57 1.263.682 1.954.281 1.758 0 3.444-.593 5.099-.04.116-.138.214-.17.263.134-1.035.317-2.11.397-3.19.04-.526-.067-1.074-.183-1.596-.075-.34-.303-.66-.713-.678-1.089-.05-2.177-.112-3.266-.103-2.587.031-5.12.549-7.676.852-1.423.17-2.833.446-4.252.67-1.222.191-2.453.334-3.67.557a27.892 27.892 0 00-2.999.722c-.771.232-1.538.554-2.065 1.2-.276.34-.54.768-.602 1.187-.147.977-.17 1.976-.241 2.966-.009.157 0 .317 0 .473-.031.005-.063.005-.09.01-.03-.29-.093-.585-.084-.87.031-.95.022-1.914.16-2.851.094-.647.38-1.294.99-1.655.54-.321 1.107-.63 1.7-.834 1.91-.66 3.908-.906 5.889-1.245 1.23-.21 2.458-.455 3.693-.642 1.25-.188 2.507-.33 3.76-.49 1.049-.135 2.093-.29 3.141-.389a30.883 30.883 0 014.934-.05c.968.063 1.044-.097.669-.99a3.523 3.523 0 00-1.263-1.534c-.32-.223-.753-.272-1.128-.424-.839-.334-1.69-.646-2.507-1.03-.897-.415-1.802-.834-2.627-1.37-1.245-.807-2.44-1.7-3.623-2.6-.41-.313-.713-.763-1.102-1.11a2.407 2.407 0 00-.78-.456c-.932-.339-1.86-.696-2.815-.946a36.976 36.976 0 00-5.933-1.061c-1.23-.103-2.444-.259-3.693-.402z" fill="#333"/><path d="M63.17 35.507c-1.008.419-1.971.04-2.283-.915a55.342 55.342 0 01-.99-3.381c-.389-1.495-.719-3.002-1.093-4.497-.085-.33.022-.508.32-.575.25-.054.51-.085.764-.076 1.962.067 3.925.143 5.892.219.861.03 1.718.062 2.579.098.129.004.258.031.388.049l.026.094c-.116.058-.227.147-.352.165-1.03.156-2.065.272-3.091.446-1.049.178-2.106.339-3.092.78-.606.272-.745.638-.664 1.294.232 1.896.9 3.684 1.338 5.527.058.258.17.504.259.772z" fill="#E30D16"/><path d="M30.592 33.62c.513.468.981.927 1.485 1.35.937.79 1.896 1.558 2.846 2.334a.721.721 0 00.192.102c.245.099.236.264.107.438a6.895 6.895 0 01-1.695 1.6c-.879.594-1.86.91-2.837 1.268a1.713 1.713 0 01-.71.098c.161-.236.3-.486.487-.7.2-.232.236-.447.147-.74-.553-1.834-.38-3.685-.098-5.537.009-.058.04-.111.076-.214z" fill="#333"/><path d="M18.813 35.506c.307.05.495.058.664.107.848.237 1.704.45 2.534.745.21.072.339.388.49.607.607.874 1.343 1.61 2.284 2.132.362.2.714.41 1.093.634.727-2.333 1.441-4.622 2.15-6.91l.134.027c-.339 3.09-.678 6.182-1.026 9.34-.352-.058-.718-.058-1.03-.187-.674-.276-1.36-.557-1.972-.946a23.48 23.48 0 01-2.368-1.712c-.861-.7-1.615-1.517-2.195-2.476-.254-.415-.473-.843-.759-1.36zm9.857-15.443c.41.228.83.446 1.227.691.562.344 1.102.719 1.664 1.058.183.111.276.21.12.397-.66.785-.772 1.748-.883 2.712-.16 1.338-.317 2.68-.49 4.019-.019.147-.135.285-.201.428-.103-.102-.264-.192-.3-.312-.155-.576-.33-1.15-.405-1.74-.241-1.873-.442-3.751-.66-5.63-.059-.508-.121-1.016-.183-1.525a1.17 1.17 0 01.111-.098zm-.785-.088c.602 2.921 1.048 5.87 1.28 8.845-.723-2.908-1.267-5.839-1.28-8.845z" fill="#fff"/><path d="M62.586 20.527c-1.588-.704-3.181-1.41-4.84-2.15.084.26.147.438.2.607-.071.045-.102.071-.111.067-.348-.214-.674-.254-.995.067-.058.058-.223.058-.317.022-.379-.143-.705-.17-.843.308-.339-.156-.647-.294-.954-.437.357-1.334.084-2.123-.803-2.297-1.04-.206-1.673.365-1.834 1.704-.816-.415-1.614-.826-2.462-1.258.375 0 .696.04 1-.014.231-.04.499-.16.633-.334.075-.099-.036-.429-.161-.571-.348-.397-.75-.754-1.182-1.178 4.55 1.129 8.716 3.051 12.74 5.313-.018.053-.045.102-.071.151z" fill="#333"/><path d="M21.34 17.663a.189.189 0 00-.054-.098 59.264 59.264 0 00-1.748-1.419c-.058-.044-.25-.004-.326.063-.375.321-.732.67-1.102 1.004-.46.415-1.03.521-1.61.477-1.16-.098-2.315-.254-3.475-.384-.107-.013-.214-.027-.388-.044.089 2.092.174 4.144.258 6.2-.026 0-.053.005-.08.005l-.147-1.472c-.219-2.186-.442-4.367-.651-6.553-.036-.388-.183-.513-.59-.553-1.56-.161-3.117-.375-4.674-.567-.754-.094-1.512-.183-2.266-.281-.165-.022-.326-.063-.49-.094l.012-.102c.728.044 1.455.062 2.177.134 1.65.156 3.297.316 4.947.504 1.878.214 3.752.441 5.625.687.705.093 1.397.258 2.093.388.94.178 1.663.722 2.297 1.396.28.299.397.437.549.42l-.357.29z" fill="#E30D16"/></svg>