<svg width="63" height="58" fill="none" xmlns="http://www.w3.org/2000/svg"><path d="M62.196 17.796c-.319 0-.59.004-.862 0-.357-.008-.71.05-1.067-.062-.447-.14-.916-.214-1.363-.357a17.5 17.5 0 01-1.75-.645c-.854-.38-1.685-.807-2.53-1.21-.187-.09-.238-.21-.242-.416a12.496 12.496 0 00-.089-1.378c-.05-.404-.151-.803-.225-1.207-.062-.342-.112-.687-.186-1.029-.09-.411-.206-.815-.307-1.222-.09-.369-.163-.745-.268-1.11a21.826 21.826 0 00-.392-1.204 51.578 51.578 0 00-.57-1.525 7.19 7.19 0 00-1.223-2.069c-.68-.8-1.533-1.032-2.523-.827a4.952 4.952 0 00-1.517.614c-.144.085-.241.046-.307-.097-.058-.132-.113-.268-.179-.396-.349-.695-.725-1.37-1.311-1.902-.501-.454-1.087-.71-1.763-.691a2.911 2.911 0 00-.87.175c-1.101.384-2.052 1.024-2.922 1.793-.924.823-1.743 1.743-2.511 2.71-.45.562-.889 1.136-1.34 1.703-.387.485-.783.967-1.167 1.452a20.123 20.123 0 01-1.895 2.088c-.081.078-.108.202-.17.303-.04.062-.078.151-.136.174-.23.097-.474.163-.707.256-.846.33-1.595.8-2.212 1.472-.144.155-.213.155-.295-.028-.338-.749-.68-1.498-.998-2.255-.322-.772-.617-1.556-.931-2.332-.287-.719-.578-1.433-.873-2.15-.326-.789-.645-1.58-.99-2.357-.338-.764-.784-1.46-1.467-1.964-.57-.423-1.204-.64-1.922-.493-.151.031-.256 0-.368-.128-.292-.334-.594-.66-.924-.955-.38-.337-.866-.485-1.359-.524-.275-.023-.57.078-.842.171-.714.249-1.304.703-1.855 1.211a12.322 12.322 0 00-1.894 2.248 39.5 39.5 0 00-1.82 2.969c-.575 1.052-1.115 2.127-1.507 3.268a41.408 41.408 0 00-.64 2.003c-.093.326-.132.667-.179 1.001-.062.454-.108.908-.167 1.359-.023.194-.054.388-.085.593-.384.086-.765.167-1.145.253a38.18 38.18 0 00-.904.205c-.392.094-.784.195-1.176.295-.373.094-.742.195-1.114.292-.358.093-.715.19-1.076.283-.384.1-.768.202-1.152.295-.38.093-.757.186-1.138.275-.306.07-.617.136-.927.198-.38.078-.765.16-1.15.222-.162.027-.232.089-.236.26-.023 1.886-.085 3.773-.066 5.659.02 1.696-.167 3.396.151 5.085.066.349.218.652.493.884.509.427 1.142.552 1.766.668.307.058.618.066.928.093.14.012.194.082.179.214-.035.287-.066.578-.101.865-.05.447-.128.89-.14 1.336-.085 2.588.062 5.177-.074 7.766-.07 1.304-.011 2.616-.011 3.924 0 .097.003.19.011.287.074.614.14 1.223.23 1.833.07.465.127.935.267 1.381.202.652.47 1.281.714 1.922.268.694.835 1.024 1.506 1.21.322.09.656.129.986.18a20.9 20.9 0 001.102.15c.358.036.718.059 1.076.07.566.02 1.133.055 1.692.175.411.085.838.12 1.257.179.167.023.33.054.493.089.338.074.676.155 1.017.225.439.09.881.16 1.32.26.396.09.788.213 1.184.314.462.12.928.222 1.386.35.632.178 1.261.372 1.886.566.893.276 1.777.556 2.67.827.8.245 1.603.485 2.41.714.71.202 1.421.396 2.135.583.544.143 1.091.287 1.642.407.606.128 1.215.23 1.825.342.186.035.372.066.558.097.424.074.85.147 1.274.229.295.058.605.089.885.202.562.225 1.11.5 1.665.753.33.151.675.236 1.044.174.458-.074.916-.143 1.374-.225.283-.05.566-.105.842-.182.345-.093.683-.21 1.025-.319.396-.124.788-.252 1.187-.368.354-.101.71-.19 1.064-.288l.796-.21c.368-.092.741-.19 1.11-.279.267-.066.535-.128.8-.197.279-.07.554-.148.834-.222.268-.07.535-.128.803-.198.392-.097.78-.198 1.172-.295l.804-.198c.392-.097.78-.198 1.172-.295.268-.066.536-.128.803-.19.315-.074.63-.147.944-.217.295-.066.593-.124.889-.19.322-.074.64-.156.958-.225.31-.067.621-.113.932-.183.403-.093.807-.206 1.207-.307.454-.116.916-.213 1.366-.353a23.431 23.431 0 001.592-.559c.477-.186.954-.376 1.4-.62.63-.346 1.235-.73 1.833-1.122.318-.21.601-.466.892-.71.16-.133.164-.315.12-.498-.01-.05-.046-.097-.057-.147l-.175-1.048a17.02 17.02 0 00-.09-.493c-.046-.229-.108-.454-.143-.683-.043-.26-.058-.52-.093-.78a16.835 16.835 0 00-.093-.617c-.047-.291-.109-.579-.148-.874-.043-.314-.054-.632-.097-.947-.07-.574-.159-1.149-.229-1.727a55.553 55.553 0 01-.159-1.595c-.062-.66-.12-1.324-.167-1.984-.039-.563-.062-1.125-.093-1.688a.575.575 0 00-.008-.082c-.05-.512-.108-1.024-.143-1.537-.043-.629-.063-1.261-.094-1.894 0-.035-.007-.066-.007-.1-.05-.587-.113-1.177-.144-1.763-.027-.454-.008-.454.443-.497l.081-.011c.45-.078.9-.156 1.355-.233.287-.05.407-.124.415-.373.02-.722.058-1.44.074-2.162.03-1.39.058-2.779.077-4.168.012-.99.008-1.976.016-2.966 0-.081.008-.159.012-.244.135-.012.256-.02.415-.031.023-.439.062-.87.058-1.297-.004-.24-.081-.477-.36-.574-.055-.02-.106-.093-.121-.152-.023-.151-.039-.318-.066-.504zM31.99 7.025c-.004-.318.011-.64-.008-.959-.012-.182-.078-.365-.144-.543-.035-.101-.116-.117-.233-.066-.31.136-.632.248-.947.38-.28.117-.543.26-.578.602-.035.334-.047.671-.066 1.009a.18.18 0 00.023.078c.264.562.707.931 1.273 1.16.241.097.439.058.497-.109a3.05 3.05 0 00.171-.694c.035-.284.012-.575.012-.858zm24.864 5.682c.012 0 .023 0 .035-.004-.039-.458-.074-.92-.117-1.377-.035-.354-.132-.393-.485-.37a2.273 2.273 0 01-.772-.1c-.272-.082-.388-.031-.388.252 0 .225.004.45 0 .675-.008.606.105 1.177.489 1.67.26.33.535.64.9.861.093.054.152.054.179-.062.054-.229.132-.454.151-.687.027-.283.008-.57.008-.858zM1.277 32.553c-.015-.167-.035-.408-.062-.652a6.208 6.208 0 00-.093-.656c-.02-.097-.078-.152-.221-.113a2.12 2.12 0 01-.645.066c-.136-.004-.19.012-.19.148 0 .1-.02.202-.023.303-.016.26-.05.523-.035.784.02.29.105.578.136.869.046.404.24.699.59.893.178.097.36.054.396-.078.034-.136.073-.272.081-.411.027-.357.043-.715.066-1.153z" fill="#fff"/><path d="M62.192 17.794c.027.19.043.354.078.517.011.058.066.136.12.151.28.097.357.334.361.575.008.426-.035.857-.058 1.296l-.415.03c-.004.086-.012.168-.012.245-.004.99 0 1.976-.016 2.966a525.82 525.82 0 01-.077 4.168c-.016.722-.05 1.44-.074 2.162-.008.245-.124.323-.415.373l-1.355.233-.081.012c-.45.042-.47.042-.443.496.031.59.093 1.176.144 1.763.004.035.008.066.008.1.03.633.05 1.262.093 1.895.035.512.097 1.024.143 1.537.004.027.004.054.008.081.031.563.054 1.126.093 1.689.047.663.109 1.323.167 1.983.047.532.097 1.063.16 1.595.069.575.154 1.15.228 1.727.039.315.055.633.097.948.039.29.101.582.148.873.035.205.066.411.093.617.035.26.05.52.093.78.035.23.097.454.144.683.035.163.062.33.089.493.058.35.112.699.175 1.048.007.05.042.097.058.148.046.186.039.364-.12.496-.292.245-.575.505-.893.71-.598.393-1.207.777-1.832 1.123-.447.244-.928.434-1.402.62-.524.206-1.055.393-1.59.56-.447.14-.91.236-1.367.353-.404.1-.804.213-1.207.306-.307.07-.621.117-.932.183-.322.07-.64.151-.959.225-.294.066-.593.124-.888.19-.315.07-.63.144-.944.217-.267.063-.535.125-.803.19l-1.172.296-.804.197c-.392.098-.78.199-1.172.296-.268.066-.535.128-.803.198-.28.07-.555.147-.835.22-.268.07-.535.129-.8.199l-1.11.28c-.267.069-.531.139-.795.209-.357.093-.714.182-1.064.287-.395.116-.791.245-1.187.369-.342.105-.68.225-1.025.318a9.924 9.924 0 01-.842.182c-.458.082-.916.152-1.374.226-.369.058-.71-.028-1.044-.175-.555-.252-1.099-.524-1.665-.753-.276-.113-.587-.144-.886-.202-.423-.081-.846-.151-1.273-.229-.186-.035-.372-.062-.558-.097-.61-.113-1.22-.214-1.825-.342-.55-.116-1.098-.264-1.642-.407a102.14 102.14 0 01-2.134-.582 133.3 133.3 0 01-2.41-.715c-.893-.271-1.782-.555-2.671-.826-.629-.194-1.258-.388-1.887-.567-.458-.128-.923-.229-1.385-.35-.396-.1-.784-.224-1.184-.314-.435-.1-.881-.17-1.32-.26-.341-.07-.679-.151-1.017-.225a7.343 7.343 0 00-.493-.09c-.419-.061-.842-.092-1.257-.178-.56-.116-1.126-.155-1.692-.174a14.182 14.182 0 01-1.076-.07 20.9 20.9 0 01-1.102-.152c-.33-.05-.668-.093-.986-.178-.671-.183-1.242-.516-1.506-1.211-.244-.637-.512-1.27-.714-1.921-.14-.447-.198-.92-.268-1.382-.09-.61-.155-1.223-.229-1.832-.011-.093-.011-.19-.011-.288 0-1.308-.059-2.62.011-3.924.136-2.589-.008-5.177.074-7.766.015-.447.093-.89.14-1.336.03-.287.066-.578.1-.865.016-.136-.038-.202-.178-.213-.31-.028-.625-.035-.928-.094-.625-.116-1.253-.24-1.766-.667-.275-.233-.427-.536-.493-.885C.233 26.473.42 24.769.4 23.073c-.02-1.886.043-3.773.066-5.659.004-.17.074-.233.237-.26.384-.062.764-.144 1.149-.221.31-.062.617-.125.927-.198.38-.09.761-.179 1.138-.276.384-.097.768-.198 1.152-.295.357-.093.715-.186 1.076-.283l1.114-.291c.392-.101.784-.198 1.176-.295.298-.074.601-.14.904-.206.38-.085.76-.167 1.145-.252.027-.206.058-.4.085-.594.055-.454.101-.908.167-1.359.047-.337.086-.679.179-1.001.194-.675.411-1.34.64-2.003.392-1.137.932-2.216 1.506-3.268a39.499 39.499 0 011.82-2.97 12.322 12.322 0 011.895-2.247c.55-.508 1.14-.962 1.855-1.21.272-.094.567-.195.842-.171.493.038.978.182 1.359.524.33.295.633.62.924.954.112.129.217.16.368.129.722-.152 1.351.07 1.922.492.683.509 1.13 1.204 1.467 1.964.345.78.663 1.569.99 2.357.294.714.586 1.432.873 2.15.31.776.605 1.56.931 2.332.319.757.66 1.506.998 2.256.081.182.151.182.295.027.617-.672 1.366-1.145 2.212-1.471.233-.09.474-.16.707-.256.058-.024.097-.113.136-.175.058-.101.089-.23.17-.303a20.123 20.123 0 001.894-2.088c.389-.485.785-.967 1.169-1.452.45-.566.889-1.137 1.339-1.704.768-.966 1.587-1.886 2.511-2.709.87-.772 1.82-1.409 2.923-1.793.275-.097.578-.163.87-.175.675-.023 1.26.237 1.761.691.587.532.96 1.207 1.312 1.902.066.128.117.264.179.396.066.144.163.186.307.097a4.87 4.87 0 011.517-.613c.99-.21 1.844.027 2.523.826a7.24 7.24 0 011.223 2.07c.198.504.388 1.012.57 1.525.14.396.276.8.392 1.203.105.365.175.741.268 1.11.101.408.218.811.307 1.223.074.341.124.687.186 1.028.074.404.179.8.225 1.207.055.458.082.92.09 1.378.003.202.054.326.24.415.846.4 1.677.831 2.53 1.211.567.253 1.161.455 1.751.645.447.143.916.213 1.363.357.357.113.714.054 1.067.062.264-.008.536-.012.85-.012zM11.63 38.74c-.02-.016-.043-.031-.062-.047-.031-.408-.066-.82-.097-1.227-.02-.264-.066-.528-.055-.791.028-.478.082-.955.14-1.429.047-.368.09-.741.179-1.102.1-.412.24-.815.392-1.211.21-.547.438-1.087.667-1.63.09-.206.074-.256-.143-.276-.198-.015-.396-.008-.59-.03-.412-.044-.82-.098-1.23-.148-.284-.035-.567-.055-.847-.098-.489-.07-.974-.155-1.463-.225-.454-.066-.912-.112-1.366-.174-.202-.027-.4-.066-.598-.101l-.796-.14c-.225-.039-.454-.062-.675-.116-.113-.027-.17-.02-.194.093-.05.26-.113.516-.14.776a57.66 57.66 0 00-.167 2.01 49.262 49.262 0 00-.077 1.86c-.035 1.238-.063 2.476-.094 3.718-.007.353-.023.707-.03 1.064-.008.36-.028.722-.012 1.083.027.605.07 1.207.124 1.808.039.435.09.874.178 1.305.113.543.249 1.083.412 1.614a2.17 2.17 0 001.141 1.355c.342.167.706.291 1.064.42.326.115.66.216.993.317.307.093.617.183.924.276.318.097.637.202.955.299.21.066.415.124.625.19.31.097.617.202.927.299.295.093.594.17.885.264.326.1.649.21.974.314.28.09.563.179.843.272.29.097.582.202.873.299.28.093.567.174.846.271.361.125.718.257 1.075.38.357.125.718.242 1.08.362.438.151.877.31 1.315.458.443.147.885.287 1.328.434.473.156.947.319 1.42.474.303.101.606.202.912.295.408.124.82.24 1.23.357.323.093.645.179.963.272.361.1.719.206 1.083.299.377.097.757.174 1.134.264.411.1.819.217 1.23.31.435.097.873.175 1.308.268.462.097.924.198 1.378.31.47.117.935.253 1.401.37.416.104.839.193 1.258.29.17.04.206-.038.206-.198.019-3.155.054-6.31.066-9.466.015-3.168.007-6.339.011-9.51v-.1c.004-.117-.046-.168-.167-.183-.151-.016-.299-.058-.446-.097-.287-.074-.57-.156-.858-.23-.248-.065-.5-.123-.749-.185l-.838-.222c-.257-.066-.513-.128-.769-.194-.276-.07-.547-.147-.823-.217-.275-.066-.555-.12-.83-.187-.284-.07-.563-.155-.847-.22-.38-.094-.768-.156-1.14-.265-.494-.14-.983-.29-1.46-.473-.567-.218-1.122-.466-1.677-.71-.124-.055-.233-.152-.36-.233-1.324 3.68-2.33 7.41-2.76 11.287a3.227 3.227 0 01-.35-.435c-.687-1.036-1.339-2.096-1.809-3.253a24.624 24.624 0 01-.609-1.727 9.055 9.055 0 01-.264-1.075c-.09-.45-.194-.9-.221-1.355-.039-.624-.016-1.253-.016-1.878v-.214l-.073-.05c-2.4 1.172-4.29 2.926-5.838 5.084zm32.786 4.61c-.1-.45-.198-.85-.283-1.253-.093-.454-.175-.912-.268-1.37-.1-.524-.206-1.044-.31-1.564-.035-.179-.07-.358-.11-.536-.073-.342-.15-.68-.22-1.02-.066-.315-.117-.634-.187-.952-.066-.299-.147-.598-.22-.896-.094-.385-.172-.769-.273-1.153-.093-.369-.205-.73-.306-1.099-.039-.151-.117-.178-.237-.07-.605.556-1.362.8-2.127 1.03-.206.061-.411.131-.613.205-.338.12-.668.252-1.006.365-.287.097-.578.17-.869.256-.26.077-.516.151-.776.233-.338.105-.672.225-1.013.31-.16.039-.167.12-.163.245.023.958.054 1.921.07 2.88.035 2.22.062 4.44.093 6.66.023 1.848.054 3.692.07 5.539.011 1.378.011 2.752.019 4.13 0 .062-.004.124.004.182.012.105.058.16.178.109.113-.047.23-.074.346-.109.477-.147.955-.295 1.428-.45.54-.175 1.08-.36 1.619-.543.45-.152.896-.307 1.347-.462.52-.179 1.044-.353 1.564-.532.45-.151.9-.307 1.354-.458.37-.124.738-.245 1.11-.357.389-.12.78-.237 1.173-.357.407-.124.81-.264 1.222-.38.45-.125.905-.23 1.355-.346.505-.128 1.005-.272 1.51-.388.334-.078.671-.117 1.009-.179.17-.03.342-.066.512-.097.249-.046.497-.097.75-.143.197-.035.4-.059.597-.101.361-.07.718-.155 1.08-.225.34-.066.686-.11 1.024-.183.4-.09.796-.206 1.191-.31.342-.09.688-.156 1.021-.264.427-.14.843-.307 1.258-.47.66-.26 1.292-.57 1.882-.966.093-.063.245-.066.237-.23a4.203 4.203 0 00-.043-.38c-.007-.046-.027-.093-.03-.14-.055-.434-.113-.869-.164-1.304a96.959 96.959 0 01-.166-1.533 77.53 77.53 0 01-.16-1.657c-.062-.695-.116-1.394-.17-2.088-.028-.338-.05-.676-.074-1.013-.058-.882-.12-1.763-.171-2.644-.039-.718-.066-1.44-.097-2.158 0-.035-.008-.066-.008-.1-.05-.653-.105-1.3-.143-1.953-.04-.687-.063-1.374-.093-2.061a.575.575 0 00-.008-.081c-.031-.21-.093-.249-.3-.222-.484.058-.97.105-1.455.155-.128.012-.26.016-.388.032-.873.112-1.735.027-2.6-.094-.249-.035-.493-.073-.742-.104-.105-.016-.147.027-.132.143.024.175.04.353.043.528.004.943.035 1.886-.155 2.822-.078.388-.097.788-.187 1.172-.108.462-.244.92-.395 1.374-.175.524-.37 1.04-.563 1.553-.385 1.02-.94 1.952-1.533 2.895-.043-.09-.094-.159-.11-.233-.084-.415-.154-.834-.251-1.25-.094-.403-.214-.795-.323-1.195a6.963 6.963 0 00-.667-1.6c-.318-.57-.695-1.102-1.3-1.404-.094-.047-.249-.035-.354.008-.28.108-.43.364-.566.613-.272.485-.544.974-.765 1.483-.287.655-.532 1.327-.784 1.998-.16.427-.299.858-.443 1.289-.128.38-.26.76-.376 1.145-.12.423-.233.85-.369 1.324zm3.16-10.091c.008.004.054.031.1.05.719.338 1.239.882 1.623 1.557.233.407.42.842.598 1.277.147.353.268.722.388 1.087.093.287.147.586.256.865.17.427.497.435.742.136.182-.229.349-.477.473-.737.217-.447.408-.905.594-1.367.167-.415.334-.834.462-1.265.116-.392.194-.8.264-1.207.066-.384.132-.773.151-1.16.039-.746-.015-1.487-.24-2.201-.167-.528-.292-1.076-.52-1.572a33.003 33.003 0 00-1.402-2.764c-.574-.99-1.261-1.91-2.01-2.783a18.492 18.492 0 00-2.271-2.243 14.017 14.017 0 00-2.775-1.794c-.19-.093-.396-.229-.594-.229-.346 0-.691.093-1.037.148-.178.027-.36.054-.539.085-.256.047-.512.101-.772.14-.295.043-.59.062-.885.097-.23.027-.454.062-.683.085-.497.055-.994.101-1.49.156-.14.015-.214-.05-.203-.187.05-.477-.136-.95-.02-1.436.04-.167.106-.229.242-.264.058-.015.12-.011.182-.027.512-.128 1.025-.264 1.54-.384.133-.031.187-.078.183-.214a44.532 44.532 0 010-1.02c.004-.237.105-.365.33-.408.61-.113 1.223-.132 1.82.012.548.132 1.076.341 1.607.527.226.078.431.245.691.187.101-.023.198-.058.295-.07.45-.062.9-.12 1.347-.179.23-.03.458-.062.683-.097.334-.046.668-.1 1.006-.14.392-.042.784-.07 1.176-.1.636-.05 1.273-.109 1.91-.148.628-.039 1.257-.062 1.866-.24.742-.218 1.099-.672 1.122-1.425.008-.194-.035-.388-.074-.578-.081-.377-.151-.76-.268-1.126-.135-.434-.314-.858-.465-1.288-.175-.482-.338-.967-.513-1.448-.21-.575-.411-1.153-.636-1.72-.183-.465-.361-.939-.602-1.374-.365-.66-.95-.97-1.715-.978-.602-.008-1.176.12-1.751.264-.256.062-.283.148-.167.404.113.256.256.504.233.795-.027.385-.054.769-.085 1.153-.02-.004-.04-.004-.059-.007-.283-.575-.57-1.146-.838-1.724-.081-.17-.163-.174-.295-.09-.536.35-1.079.692-1.603 1.06-.668.47-1.316.963-1.98 1.437-.597.427-1.199.85-1.8 1.269-.64.446-1.278.9-1.93 1.331-.74.49-1.498.951-2.24 1.432a.416.416 0 00-.17.249 5.08 5.08 0 00-.081.803c-.008.416-.19.746-.478 1.021-.124.124-.124.245-.074.388.016.05.05.101.047.152-.027.601.085 1.203-.07 1.804-.074.284-.194.54-.404.738-.66.617-1.436 1.029-2.286 1.312-.058.02-.108.054-.167.085.04.05.066.117.113.155.404.33.803.657 1.215.979.698.543 1.405 1.082 2.111 1.614.885.672 1.553 1.541 2.162 2.45.439.651.854 1.327 1.23 2.018.373.683.7 1.393 1.021 2.104.233.512.44 1.044.633 1.572.14.376.245.764.357 1.148.097.326.183.66.268.99l.221.854.194.8c.074.298.148.597.214.9.066.295.12.59.186.889.074.345.16.69.233 1.04.066.319.124.637.19.951.07.33.152.656.214.986.027.132.042.268.027.4-.035.28-.047.551.062.823.1.24.42.485.613.465.09-.318.16-.644.268-.954.248-.707.481-1.425.784-2.108.633-1.409 1.296-2.795 1.945-4.188zM27.069 18.95c.28-.167.52-.334.784-.458.163-.074.202-.167.194-.326-.03-.617-.066-1.234.082-1.844.09-.376.206-.745.291-1.117.039-.171.217-.326.039-.54-.415-.505-.846-1.001-1.2-1.549-.38-.578-.694-1.203-1.009-1.824-.248-.489-.454-.997-.683-1.494-.206-.45-.411-.9-.629-1.347-.318-.656-.628-1.316-.97-1.96-.26-.493-.555-.97-.854-1.448a33.08 33.08 0 00-.83-1.246c-.066-.097-.148-.19-.303-.124-.288.12-.59.217-.874.341-1.063.474-2.002 1.138-2.86 1.91a24.221 24.221 0 00-1.759 1.758c-.461.509-.877 1.064-1.292 1.615-.24.318-.466.652-.668.998-.333.57-.644 1.16-.974 1.758-.008-.035-.02-.058-.02-.082-.026-.194-.065-.384-.073-.578-.012-.252-.058-.524.023-.75.198-.543.431-1.074.703-1.583a27.54 27.54 0 011.2-2.014c.31-.482.67-.932 1.028-1.382a15.568 15.568 0 011.94-2.042 11.463 11.463 0 012.003-1.416c.12-.066.113-.136-.004-.179a2.545 2.545 0 00-.52-.147c-.419-.055-.795.116-1.164.28-.967.422-1.774 1.07-2.492 1.827-1.02 1.075-1.964 2.213-2.768 3.462a17.974 17.974 0 00-1.33 2.446c-.3.671-.533 1.378-.758 2.08-.167.528-.28 1.075-.411 1.615a6.124 6.124 0 00-.101.532c-.031.205-.054.415-.078.625.323.027.346.046.346.325.004.307 0 .614.004.92a.43.43 0 00.038.214c.28.454.66.811 1.103 1.102.582.38 1.215.66 1.89.839.524.14 1.044.287 1.576.388.442.085.896.12 1.347.163.687.062 1.378.116 2.069.167.415.03.826.077 1.242.073.939-.011 1.874-.042 2.814-.077a2.94 2.94 0 00.578-.09c.38-.093.765-.182 1.133-.314.357-.128.699-.306 1.048-.466.124-.058.105-.128.016-.217-.17-.167-.334-.338-.497-.512-.897-.967-1.805-1.926-2.872-2.714a7.918 7.918 0 00-2.624-1.257c-.427-.117-.866-.225-1.304-.237-.656-.02-1.324-.011-1.968.09-.505.077-1.002.275-1.475.477-.904.388-1.669.982-2.313 1.727-.12.14-.245.28-.385.443-.062-.35-.128-.656-.17-.967-.02-.147-.043-.322.015-.442.155-.307.346-.602.543-.885.377-.544.874-.975 1.417-1.335a8.02 8.02 0 011.289-.684c.36-.155.753-.244 1.137-.341.291-.07.59-.14.889-.144.439-.008.877.047 1.316.066.485.023.947.167 1.386.35a8.97 8.97 0 012.258 1.362 31.883 31.883 0 011.735 1.533c.882.838 1.732 1.712 2.605 2.558.147.143.237.318.237.485.007.443-.04.889-.059 1.331-.03.086-.027.163-.027.272zm7.713 14.695v-.237c-.028-1.273-.059-2.546-.086-3.819-.004-.155-.004-.314-.011-.47-.047-.792-.098-1.587-.148-2.379a71.19 71.19 0 00-.09-1.382c-.019-.256-.07-.508-.08-.764-.02-.466-.016-.932-.02-1.398 0-.073.023-.147.043-.248.302.38.578.73.861 1.071a.803.803 0 01.179.524c.027 1.436.058 2.872.09 4.308.03 1.565.057 3.133.088 4.697 0 .054.008.109.016.186.085-.035.155-.066.225-.093.435-.17.87-.33 1.296-.52.567-.252 1.118-.547 1.693-.78.8-.322 1.614-.606 2.422-.904.182-.066.217-.16.136-.338-.21-.462-.4-.932-.633-1.382-.42-.815-.842-1.63-1.304-2.422a22.484 22.484 0 00-1.2-1.809c-.376-.52-.757-1.048-1.21-1.498a26.056 26.056 0 00-2.058-1.816 17.53 17.53 0 01-1.987-1.844.728.728 0 01-.214-.49c-.004-.17-.05-.337-.062-.508-.03-.43-.046-.865-.077-1.3-.016-.194.062-.306.24-.369.093-.03.187-.07.28-.108.811-.33 1.622-.652 2.348-1.15.035-.022.09-.073.082-.092-.016-.05-.059-.12-.101-.132-.206-.066-.412-.148-.621-.171-.587-.066-1.157.031-1.728.178-.434.113-.88.195-1.32.307-.364.093-.729.186-1.078.314-.357.133-.439.133-.466-.143-.05-.474-.078-.947-.09-1.42 0-.102.098-.253.195-.303.648-.338 1.354-.501 2.06-.66.334-.074.68-.105 1.014-.187.493-.116.993-.232 1.47-.403.42-.152.816-.385 1.22-.582.03-.016.066-.078.058-.113a.148.148 0 00-.09-.097c-.112-.039-.232-.082-.349-.085-.578-.028-1.156-.04-1.723.089-.485.108-.963.268-1.448.384a8.955 8.955 0 00-1.86.68c-.59.287-1.117.67-1.447 1.257-.287.505-.555 1.02-.807 1.54-.105.218-.148.463-.214.692.105.042.167.07.233.097.21.085.412.213.629.252.59.105 1.188.175 1.785.248a.268.268 0 00.183-.062c.252-.213.5-.434.749-.652.058-.05.116-.105.198-.174.062.465.144.896.17 1.33a.934.934 0 01-.147.513c-.365.582-.916.967-1.47 1.343-.447.3-.905.586-1.332.912-.458.35-.827.796-1.153 1.27-.287.415-.61.81-.865 1.245a28.35 28.35 0 00-1.029 1.914c-.287.586-.532 1.195-.788 1.801-.16.377-.31.76-.462 1.141-.124.315-.237.637-.36.955-.125.322-.265.64-.385.963-.085.225-.151.458-.23.702.067.016.094.023.117.023.509.028 1.017.055 1.526.078.046.004.093.008.143.016.28.046.555.097.835.14.24.034.481.058.718.093.167.023.33.062.493.096l.997.222c.28.062.563.116.843.186.283.07.566.155.85.221.396.093.8.16 1.195.264.435.117.87.245 1.293.396.547.198 1.079.423 1.622.633.031.011.078.011.148.023zm-21.065-3.978c.047-.027.09-.04.109-.07.283-.423.559-.85.846-1.273.578-.85 1.145-1.708 1.747-2.539.753-1.044 1.54-2.065 2.441-2.985.66-.675 1.374-1.292 2.061-1.936.047-.043.078-.097.136-.167-.074-.012-.101-.02-.128-.02-1.34-.027-2.678-.05-4.021-.085-.35-.008-.703-.047-1.048-.09-.225-.027-.443-.104-.664-.135-.058-.008-.144.066-.186.12-.031.039-.016.113-.02.19-.077 0-.143.004-.213 0a298.536 298.536 0 01-2.927-.248 2.567 2.567 0 01-.182-.016c-.3-.046-.594-.1-.893-.143-.26-.04-.52-.059-.78-.093a8.563 8.563 0 01-.536-.086c-.4-.074-.8-.163-1.203-.233-.411-.07-.827-.116-1.238-.174-.194-.027-.384-.063-.578-.093a69.35 69.35 0 00-.874-.148c-.24-.035-.481-.058-.722-.093-.504-.074-1.009-.167-1.517-.225-.439-.05-.878-.066-1.316-.097-.055-.004-.109-.02-.16-.024l-.717-.07c-.02.12-.043.206-.047.292-.039 1.13-.1 2.255-.105 3.384-.004 1.246.04 2.488.074 3.734.004.16.07.322.132.474.155.372.52.419.85.485.396.081.8.12 1.2.178.193.028.387.059.578.09.465.073.931.155 1.397.225.287.043.578.058.866.093.232.027.47.07.702.105.322.046.64.097.963.14.302.038.605.058.908.1.516.07 1.028.156 1.545.226.508.066 1.02.112 1.533.178.551.074 1.098.16 1.646.237.135.02.217.066.229.225.023.186.073.365.112.567zm4.048 1.808c.16.672.105 1.305.105 1.937a.137.137 0 01-.008.039c-.05.334-.147.668-.143 1.001.008.47.09.94.151 1.41.082.628.28 1.23.563 1.797.369.74.773 1.467 1.192 2.18.167.288.392.548.625.789.248.252.465.206.574-.132.136-.431.233-.877.326-1.324.101-.493.17-.99.26-1.486.027-.152.07-.3.105-.45.07-.3.143-.595.213-.893.063-.264.117-.536.187-.796.093-.353.205-.699.302-1.048.094-.326.167-.66.268-.982.12-.392.264-.776.392-1.164.144-.439.276-.885.431-1.32.148-.415.318-.82.47-1.234.151-.416.28-.839.43-1.254.18-.49.373-.974.556-1.463.174-.458.322-.928.516-1.378.28-.648.578-1.293.881-1.93.485-1.016 1.079-1.971 1.72-2.895.108-.155.213-.314.318-.47l-.043-.054c-.14.062-.287.117-.42.19a8.924 8.924 0 00-2.367 1.925c-.36.416-.726.835-1.063 1.274-.342.442-.66.9-.967 1.366-.407.62-.807 1.25-1.188 1.886a13.87 13.87 0 00-1.183 2.527c-.152.427-.26.87-.38 1.308-.07.248-.121.5-.183.75a5.92 5.92 0 01.046-2.011c.094-.513.218-1.025.38-1.522.21-.629.443-1.254.715-1.86a13.75 13.75 0 011.327-2.351c.524-.738 1.029-1.495 1.58-2.216.384-.501.827-.955 1.242-1.433.035-.039.05-.089.09-.163-.074.004-.113-.004-.14.008-.613.33-1.273.493-1.956.567a.337.337 0 00-.144.062c-.928.543-1.778 1.195-2.581 1.905-1.584 1.402-2.95 3.005-4.2 4.705a74.55 74.55 0 00-1.82 2.604c-.757 1.126-1.537 2.24-2.182 3.44a4.621 4.621 0 00-.465 1.346c-.032.167-.105.326-.136.493-.05.28-.086.563-.124.846.023.016.046.027.07.043.062-.043.14-.078.19-.136.182-.202.353-.423.54-.621.647-.68 1.311-1.343 2.068-1.898.722-.532 1.467-1.032 2.208-1.541.19-.136.416-.24.652-.373zm31.956-10.142c.055.105.078.175.117.233.38.57.768 1.137 1.137 1.712.512.796.904 1.657 1.265 2.527.23.559.412 1.14.59 1.72.155.492.276.997.412 1.493.027.098.058.218.201.156a8.835 8.835 0 012.12-.637c.648-.105 1.292-.217 1.944-.306.509-.07 1.025-.101 1.537-.163.672-.082 1.34-.175 2.007-.268.109-.016.229-.035.237-.198.015-.361.05-.718.066-1.08.035-.834.058-1.672.093-2.507.015-.38.058-.757.066-1.137.015-.71.015-1.417.023-2.127 0-.132-.062-.16-.186-.132a2.507 2.507 0 01-.38.054c-.226.012-.45 0-.676.016-.52.043-1.036.109-1.552.143-.59.043-1.18.063-1.767.094-.019 0-.042.004-.062.004-.415.05-.83.108-1.245.143-.466.043-.932.062-1.398.093-.02 0-.039.004-.062.004-.497.05-.994.132-1.49.144-.913.023-1.825.008-2.737.008-.074.011-.147.011-.26.011zm-15.378-10.35c.132 0 .217.003.303 0 .314-.024.632-.067.947-.067.167 0 .337.066.5.117.292.093.462.318.571.59.043.1.082.105.163.039.377-.291.76-.579 1.141-.862.35-.26.695-.524 1.052-.776.49-.346.99-.672 1.479-1.017a61.979 61.979 0 001.537-1.114 126.22 126.22 0 001.976-1.506c.617-.481 1.218-.974 1.832-1.46.104-.081.116-.147.046-.252-.31-.446-.64-.87-1.098-1.184-.435-.295-.912-.47-1.429-.434a3.2 3.2 0 00-1.707.62c-.645.47-1.305.94-1.875 1.495-.936.912-1.805 1.89-2.702 2.841-.877.936-1.754 1.871-2.627 2.806-.035.04-.058.09-.109.163zm12.576 7.425c.423.407.819.784 1.207 1.168.21.206.4.43.605.644.05.05.12.082.183.12.02-.065.046-.131.05-.201.008-.144.004-.287.004-.431.004-.408 0-.423.396-.512.52-.12 1.044-.245 1.576-.31.551-.067 1.11-.075 1.665-.098.788-.035 1.576-.058 2.368-.09.035 0 .066-.007.1-.01.416-.047.835-.094 1.25-.148.198-.024.392-.059.59-.09.004-.015.004-.03.008-.05-.889-.575-1.781-1.149-2.624-1.696-.19.229-.349.493-.574.671-.68.532-1.506.68-2.329.738-1.106.081-2.22.066-3.326.1-.31.012-.621.055-.932.09-.066.015-.128.062-.217.105zM23.579 3.852l-.053.031c.015.063.023.128.054.183.136.233.287.458.419.695.446.807.92 1.603 1.324 2.43.349.71.613 1.467.935 2.192.307.691.633 1.37.963 2.054.411.846.935 1.622 1.544 2.34.035.043.09.066.132.101l.043-.031c-.016-.047-.027-.093-.047-.136-.116-.252-.248-.493-.353-.753-.287-.718-.559-1.444-.842-2.166a95.959 95.959 0 00-.803-1.983c-.226-.547-.443-1.099-.7-1.63-.399-.827-.85-1.627-1.435-2.34a4.012 4.012 0 00-1.18-.987zM11.692 18.7c.027-.016.054-.027.082-.043a5.273 5.273 0 01-1.126-2.368c-.047-.007-.066-.015-.085-.011-.8.275-1.592.555-2.395.823-.656.217-1.316.415-1.972.624-.047.016-.085.063-.128.094.05.023.097.058.151.066.26.038.524.07.784.108.288.043.57.097.858.14.252.039.509.062.765.101.52.078 1.036.155 1.556.24.256.043.513.105.773.144.24.035.489.055.737.082z" fill="#333"/><path d="M31.987 7.023c0 .288.024.575-.007.858a3.08 3.08 0 01-.171.695c-.058.167-.26.206-.497.109-.567-.23-1.005-.598-1.273-1.161a.181.181 0 01-.023-.078c.019-.337.03-.671.066-1.009.034-.341.299-.485.578-.601.314-.129.637-.241.947-.38.116-.051.194-.036.233.065.062.175.128.357.143.544.02.318.004.636.004.958zm24.868 5.684c0 .287.019.574-.008.857-.023.233-.101.458-.152.687-.027.117-.085.117-.178.062-.365-.22-.645-.527-.9-.861-.385-.493-.497-1.064-.49-1.67.004-.224 0-.45 0-.675 0-.283.12-.333.389-.252.244.074.516.12.772.1.353-.022.45.017.485.37.043.458.078.92.116 1.378-.011 0-.023.004-.034.004zM1.275 32.552c-.024.439-.04.796-.066 1.157-.012.14-.05.276-.082.411-.035.136-.217.179-.396.078a1.106 1.106 0 01-.59-.893c-.03-.29-.116-.578-.136-.87-.02-.26.02-.523.035-.783.008-.101.024-.202.024-.303 0-.14.054-.155.19-.147a2.12 2.12 0 00.644-.066c.144-.04.202.015.221.112.047.218.07.435.093.656.031.24.05.482.063.648z" fill="#333"/><path d="M11.63 38.739c1.548-2.158 3.434-3.913 5.83-5.065l.073.05v.214c.004.624-.023 1.253.015 1.878.028.454.132.908.222 1.355.073.36.151.722.264 1.075.186.582.376 1.164.609 1.727.47 1.157 1.122 2.216 1.809 3.253.1.151.213.29.349.434.43-3.877 1.436-7.607 2.76-11.287.128.086.236.179.36.233.556.245 1.11.493 1.678.71.477.183.966.334 1.459.474.376.109.76.17 1.141.264.283.07.563.151.846.221.276.066.555.12.83.187.276.066.548.143.824.217.256.066.512.128.768.194l.839.221c.248.066.5.124.749.187.287.073.57.155.858.229.147.038.295.077.446.096.12.016.17.066.167.183v.1c-.004 3.172.004 6.34-.012 9.51-.015 3.156-.047 6.312-.066 9.467 0 .16-.035.237-.206.198-.419-.097-.838-.186-1.257-.291-.47-.117-.932-.256-1.401-.369-.458-.112-.92-.21-1.378-.31-.435-.093-.874-.167-1.308-.268-.412-.093-.82-.21-1.23-.31-.377-.094-.758-.171-1.134-.265-.361-.093-.722-.198-1.083-.298-.322-.09-.644-.179-.963-.272-.411-.117-.822-.233-1.23-.357a33.47 33.47 0 01-.912-.295c-.474-.156-.947-.319-1.42-.474-.443-.147-.89-.287-1.328-.434-.439-.148-.877-.307-1.316-.459-.357-.124-.718-.236-1.079-.36-.361-.125-.718-.26-1.075-.38-.28-.098-.563-.18-.846-.273-.291-.097-.582-.201-.874-.298-.28-.094-.562-.179-.842-.272-.326-.105-.648-.214-.974-.315-.295-.093-.594-.17-.885-.263-.31-.097-.617-.202-.928-.3-.206-.065-.415-.123-.625-.19-.318-.1-.636-.201-.954-.298-.307-.093-.618-.179-.924-.276-.334-.1-.668-.202-.994-.318-.36-.128-.722-.252-1.063-.42a2.18 2.18 0 01-1.142-1.354 17.89 17.89 0 01-.411-1.615c-.09-.427-.136-.865-.179-1.304a40.424 40.424 0 01-.124-1.809c-.015-.36.004-.721.012-1.082.008-.354.023-.707.031-1.064.031-1.238.058-2.48.093-3.718.02-.621.039-1.239.078-1.86.042-.671.1-1.343.167-2.01.027-.26.089-.52.14-.776.023-.113.08-.125.193-.094.222.055.45.078.676.117l.795.14c.198.035.4.073.598.1.454.063.912.11 1.366.175.49.07.975.155 1.464.225.28.04.566.062.846.097.411.047.819.105 1.23.148.198.02.396.011.59.03.222.02.233.07.144.276-.23.54-.462 1.08-.668 1.63-.151.396-.29.8-.392 1.212-.089.36-.132.733-.178 1.102-.058.474-.113.95-.14 1.428-.015.26.035.528.054.792.031.408.063.82.097 1.227.032-.004.05.011.07.027zm32.784 4.609c.132-.47.248-.9.377-1.32.116-.384.248-.764.376-1.145.144-.43.283-.865.442-1.288.253-.672.497-1.343.785-2 .22-.508.496-.997.764-1.482.136-.244.283-.5.567-.613.105-.039.256-.054.353-.008.61.303.982.835 1.3 1.405.284.509.517 1.037.668 1.6.105.4.229.795.322 1.195.097.411.163.834.252 1.25.016.074.066.14.109.233.594-.944 1.149-1.875 1.533-2.896.194-.516.392-1.032.563-1.553a15.3 15.3 0 00.396-1.373c.09-.385.109-.785.186-1.173.19-.935.16-1.878.156-2.822 0-.174-.02-.353-.043-.527-.016-.117.027-.156.132-.144.248.031.493.07.741.105.862.124 1.727.21 2.6.093.129-.016.26-.016.389-.031.485-.05.97-.097 1.455-.155.206-.024.268.011.3.22.003.028.007.055.007.082.031.687.054 1.374.093 2.061.039.653.097 1.3.144 1.953a.855.855 0 01.007.1c.032.719.059 1.44.098 2.159.05.88.112 1.762.17 2.643.024.338.047.675.074 1.013.054.695.109 1.394.17 2.088.047.551.102 1.106.16 1.658.05.512.109 1.02.167 1.533.05.434.105.87.163 1.304.008.047.027.093.03.14.016.128.036.252.044.38.007.163-.144.167-.237.23-.59.395-1.223.71-1.883.965-.419.164-.834.33-1.257.47-.334.109-.68.179-1.021.264-.396.105-.792.221-1.192.31-.337.078-.683.117-1.024.183-.361.07-.718.155-1.08.225-.197.039-.4.062-.597.101l-.75.144c-.17.03-.34.066-.512.097-.337.058-.675.1-1.009.178-.508.117-1.009.26-1.51.388-.45.117-.904.222-1.354.346-.412.116-.815.252-1.223.38-.392.12-.784.237-1.172.357-.373.117-.741.237-1.11.357-.45.152-.904.303-1.355.459-.52.174-1.044.353-1.564.531-.45.152-.896.307-1.347.462-.54.183-1.079.369-1.618.544-.474.155-.955.298-1.429.45-.116.035-.233.062-.345.108-.12.05-.163-.004-.179-.108-.007-.062-.004-.124-.004-.183-.007-1.378-.004-2.752-.019-4.13-.02-1.847-.047-3.69-.07-5.538-.03-2.22-.058-4.44-.093-6.66-.015-.96-.047-1.922-.07-2.88-.004-.125.004-.206.163-.245.342-.086.675-.206 1.013-.31l.776-.234c.292-.085.583-.163.87-.256.338-.112.671-.244 1.005-.365.202-.074.408-.143.613-.206.765-.228 1.518-.477 2.127-1.028.12-.109.198-.082.237.07.101.369.214.73.307 1.098.097.38.178.769.272 1.153.07.299.155.598.22.897.07.314.121.632.187.95.07.342.148.684.221 1.021.04.179.074.358.11.536.104.52.209 1.044.31 1.564.089.458.17.916.267 1.37.078.4.175.8.276 1.25z" fill="#fff"/><path d="M47.573 33.258c-.648 1.394-1.308 2.78-1.93 4.18-.302.684-.535 1.402-.783 2.108-.109.31-.179.633-.268.955-.198.023-.516-.221-.613-.466-.109-.268-.097-.54-.062-.823a1.39 1.39 0 00-.028-.4c-.066-.33-.147-.655-.213-.985-.066-.319-.12-.637-.19-.951-.074-.346-.155-.691-.233-1.04-.066-.296-.12-.594-.186-.89-.066-.298-.144-.597-.214-.9-.066-.268-.128-.535-.194-.8-.07-.283-.144-.57-.221-.853-.09-.33-.175-.66-.268-.99-.113-.384-.217-.772-.357-1.149a21.94 21.94 0 00-.633-1.572 32.36 32.36 0 00-1.02-2.104 25.452 25.452 0 00-1.231-2.018c-.613-.908-1.277-1.778-2.162-2.45a367.688 367.688 0 01-2.111-1.614c-.412-.318-.812-.648-1.215-.978-.047-.039-.074-.105-.113-.155.054-.027.109-.066.167-.086.85-.283 1.63-.695 2.286-1.312.214-.198.33-.454.404-.737.155-.598.042-1.203.07-1.805.004-.05-.028-.1-.047-.151-.05-.144-.05-.264.074-.388.283-.28.466-.606.477-1.021.008-.268.04-.54.082-.804a.44.44 0 01.17-.248c.746-.481 1.503-.943 2.24-1.432.652-.431 1.289-.885 1.93-1.332.6-.419 1.202-.842 1.8-1.269.664-.477 1.312-.97 1.98-1.436.524-.369 1.067-.706 1.603-1.06.132-.085.213-.085.295.09.267.578.559 1.149.838 1.723.02.004.039.004.058.008.027-.385.058-.769.086-1.153.02-.295-.12-.543-.233-.796-.113-.256-.086-.337.167-.403.574-.144 1.149-.272 1.75-.264.765.007 1.351.318 1.716.978.24.434.419.908.602 1.374.225.57.43 1.145.636 1.72.175.48.338.966.512 1.447.156.43.334.854.466 1.289.113.368.186.749.268 1.125.039.19.081.388.074.579-.024.753-.38 1.207-1.122 1.424-.613.179-1.238.202-1.867.24-.637.04-1.273.098-1.91.148-.392.031-.784.058-1.176.101-.337.035-.671.093-1.005.14-.229.03-.454.066-.683.097-.45.058-.9.116-1.347.178-.1.016-.198.05-.295.07-.264.059-.466-.104-.69-.186-.533-.186-1.06-.396-1.608-.528-.597-.143-1.215-.124-1.82-.011-.225.042-.33.17-.33.407a43.35 43.35 0 000 1.02c.004.137-.05.183-.182.214-.517.117-1.03.257-1.541.385-.059.015-.125.011-.183.027-.136.035-.202.097-.24.264-.117.485.07.958.019 1.436-.016.136.062.202.202.186.497-.05.993-.1 1.49-.155.23-.023.454-.058.683-.085.295-.035.59-.055.885-.098.26-.035.517-.093.773-.14.178-.03.357-.057.54-.085.345-.054.69-.143 1.035-.147.199 0 .4.132.594.229a13.848 13.848 0 012.776 1.793 18.72 18.72 0 012.27 2.244c.75.873 1.436 1.793 2.01 2.782.517.893.971 1.825 1.402 2.764.229.497.353 1.044.52 1.572.225.718.28 1.46.24 2.2-.019.389-.085.777-.15 1.161-.07.404-.148.812-.264 1.207-.129.431-.296.85-.462 1.266-.187.462-.377.92-.594 1.366-.128.26-.291.512-.474.737-.244.303-.57.292-.741-.135-.113-.28-.163-.579-.256-.866-.12-.365-.241-.733-.389-1.087-.182-.434-.368-.87-.597-1.277-.384-.675-.908-1.218-1.623-1.556-.066-.012-.108-.039-.116-.043zM27.071 18.952c0-.109-.004-.186 0-.264.023-.442.07-.889.058-1.331a.723.723 0 00-.237-.485c-.873-.847-1.723-1.716-2.604-2.558a30.987 30.987 0 00-1.735-1.534 8.981 8.981 0 00-2.259-1.362c-.439-.182-.9-.326-1.386-.35-.438-.019-.877-.073-1.315-.065-.3.004-.598.073-.89.143-.383.093-.775.187-1.136.342-.447.19-.885.415-1.29.683-.542.361-1.04.792-1.416 1.335a7.421 7.421 0 00-.543.885c-.062.12-.035.295-.016.443.043.31.109.617.171.966.14-.163.264-.299.384-.442.645-.745 1.41-1.335 2.314-1.728.473-.205.97-.403 1.475-.477.648-.097 1.311-.109 1.967-.09.44.016.878.121 1.305.238.947.26 1.828.671 2.623 1.257 1.068.788 1.976 1.747 2.873 2.713.163.175.326.346.496.513.09.085.11.159-.015.217-.346.16-.687.338-1.048.466-.369.132-.753.221-1.133.314a2.93 2.93 0 01-.579.09c-.939.034-1.874.065-2.814.077-.415.004-.826-.043-1.242-.074-.69-.05-1.378-.104-2.069-.167-.45-.042-.904-.077-1.346-.163-.532-.1-1.052-.248-1.576-.388a6.501 6.501 0 01-1.89-.838 3.556 3.556 0 01-1.103-1.103.428.428 0 01-.039-.213c-.003-.307 0-.613-.003-.92-.004-.28-.024-.299-.346-.326.027-.21.047-.42.078-.625.027-.178.058-.357.1-.532.133-.54.241-1.086.412-1.614.225-.703.458-1.41.757-2.08.376-.847.83-1.662 1.331-2.446.804-1.25 1.747-2.387 2.768-3.462.714-.753 1.525-1.405 2.492-1.828.368-.163.745-.334 1.164-.28.178.023.353.086.52.148.116.042.124.112.004.178-.718.4-1.386.874-2.003 1.417a14.85 14.85 0 00-1.94 2.042c-.354.45-.715.9-1.03 1.381a30.964 30.964 0 00-1.198 2.015c-.272.508-.505 1.04-.703 1.583-.082.222-.031.497-.023.75.007.194.046.384.073.578.004.023.012.046.02.081.33-.601.64-1.187.974-1.758.202-.345.427-.68.668-.997.419-.548.83-1.107 1.292-1.615a24.244 24.244 0 011.758-1.758c.858-.769 1.801-1.436 2.861-1.91.287-.128.586-.221.873-.342.156-.066.233.028.303.125.283.411.567.822.83 1.246.296.473.59.95.855 1.447.341.645.652 1.304.97 1.96.217.447.423.897.629 1.347.229.497.434 1.01.683 1.495.314.617.633 1.242 1.01 1.824.356.543.783 1.044 1.198 1.549.175.213 0 .364-.038.54-.086.376-.202.744-.291 1.117-.144.61-.113 1.226-.082 1.844.008.163-.031.252-.194.326-.24.116-.481.283-.757.45z" fill="#fff"/><path d="M34.78 33.647c-.07-.012-.116-.012-.159-.031-.54-.21-1.075-.435-1.622-.633a15.013 15.013 0 00-1.293-.395c-.392-.105-.795-.171-1.195-.264-.287-.066-.567-.152-.85-.222-.28-.066-.563-.124-.842-.186l-.998-.221c-.163-.035-.33-.074-.493-.097-.24-.035-.481-.058-.718-.093-.28-.043-.555-.094-.834-.14-.047-.008-.093-.016-.144-.016a199.91 199.91 0 00-1.525-.077c-.027 0-.05-.012-.117-.024.078-.24.144-.473.23-.702.12-.322.26-.64.384-.963.124-.318.236-.636.36-.955.152-.38.3-.764.462-1.14.257-.602.501-1.212.788-1.802.319-.652.66-1.292 1.029-1.913.256-.435.578-.83.865-1.246.33-.474.695-.92 1.153-1.27.427-.325.885-.613 1.332-.912.558-.376 1.106-.76 1.47-1.342a.914.914 0 00.148-.513c-.027-.434-.109-.87-.17-1.331-.078.07-.137.12-.199.175-.248.217-.496.438-.749.652a.268.268 0 01-.182.062c-.598-.074-1.196-.144-1.786-.249-.217-.038-.419-.167-.628-.252l-.233-.097c.066-.225.108-.474.213-.69.253-.525.52-1.037.808-1.542.33-.586.857-.97 1.447-1.257a8.96 8.96 0 011.86-.68c.485-.116.962-.275 1.447-.384.567-.128 1.145-.113 1.724-.09.116.005.236.047.349.086a.157.157 0 01.09.097c.003.035-.028.097-.059.113-.404.202-.796.43-1.219.582-.477.175-.974.287-1.47.404-.335.081-.68.108-1.014.186-.706.16-1.413.322-2.06.66-.094.05-.195.202-.195.303.008.473.039.95.09 1.42.026.28.112.276.465.144.353-.128.718-.221 1.08-.315.438-.108.88-.194 1.319-.306.566-.148 1.14-.245 1.727-.179.213.024.42.105.621.171.047.016.085.082.1.132.009.02-.046.07-.08.093-.726.5-1.541.82-2.349 1.149a4.176 4.176 0 01-.28.109c-.178.062-.255.17-.24.368.035.431.05.866.078 1.3.011.171.058.338.062.51.004.197.093.352.213.488a17.53 17.53 0 001.987 1.844c.715.57 1.41 1.172 2.058 1.816.454.45.834.979 1.21 1.499.424.586.835 1.183 1.2 1.808a51.73 51.73 0 011.304 2.422c.233.45.423.92.633 1.382.081.179.046.268-.136.338-.807.299-1.622.582-2.422.904-.574.233-1.126.532-1.692.78-.427.187-.866.346-1.297.52-.07.028-.14.059-.225.094-.008-.082-.015-.136-.015-.187-.031-1.564-.059-3.132-.09-4.696-.027-1.436-.062-2.872-.089-4.309a.79.79 0 00-.178-.524c-.284-.341-.56-.69-.862-1.07-.02.1-.043.174-.043.248 0 .465 0 .931.02 1.397.007.256.062.508.081.764.035.462.062.92.09 1.382.05.792.1 1.588.147 2.38.008.155.008.314.012.47.027 1.272.058 2.546.085 3.819.012.077.012.143.012.244zM13.72 29.67c-.04-.203-.09-.381-.101-.56-.012-.163-.093-.206-.23-.225-.547-.078-1.094-.167-1.645-.237-.508-.066-1.02-.112-1.533-.178-.516-.066-1.029-.152-1.545-.225-.303-.043-.605-.062-.908-.101-.322-.043-.645-.093-.963-.14-.233-.035-.466-.074-.702-.105-.288-.035-.579-.054-.866-.093-.466-.066-.931-.151-1.397-.225a34.99 34.99 0 00-.579-.09c-.4-.058-.803-.096-1.199-.178-.33-.07-.695-.112-.85-.485-.062-.151-.128-.314-.132-.474-.035-1.245-.078-2.488-.074-3.733.004-1.13.066-2.26.105-3.385.004-.085.027-.17.047-.291.248.023.481.046.718.07.054.004.108.02.159.023.439.031.881.047 1.316.097.508.058 1.009.151 1.517.225.241.035.482.058.722.093.291.043.582.097.874.148.194.03.384.066.578.093.411.058.827.105 1.238.175.404.066.8.155 1.203.233.179.034.357.062.536.085.26.035.52.054.78.093.299.043.594.097.893.144a1129.224 1129.224 0 011.25.109c.62.05 1.238.104 1.859.155.066.004.136 0 .213 0 .008-.074-.007-.152.02-.19.046-.059.128-.133.186-.12.225.03.443.108.664.135.35.043.698.081 1.048.09 1.339.034 2.678.057 4.02.085.028 0 .055.007.129.019-.054.07-.09.124-.136.167-.687.644-1.405 1.265-2.06 1.937-.901.92-1.69 1.944-2.442 2.985-.602.83-1.169 1.688-1.747 2.538-.287.42-.563.85-.846 1.273-.031.023-.078.035-.12.062z" fill="#fff"/><path d="M17.766 31.476c-.237.136-.462.24-.664.377a78.622 78.622 0 00-2.208 1.54c-.757.556-1.42 1.22-2.069 1.899-.19.197-.357.415-.54.62-.05.055-.124.09-.19.136-.023-.015-.046-.027-.07-.042.043-.284.074-.567.125-.846.03-.167.104-.326.136-.493.085-.474.236-.92.465-1.347.645-1.2 1.425-2.314 2.182-3.44a67.836 67.836 0 011.82-2.604c1.25-1.7 2.616-3.303 4.2-4.704.803-.71 1.653-1.362 2.58-1.906.047-.027.094-.058.144-.062.687-.073 1.347-.236 1.957-.566.027-.016.066-.004.14-.008-.04.074-.059.124-.09.163-.415.477-.858.931-1.242 1.432-.551.722-1.052 1.475-1.58 2.216-.524.738-.958 1.53-1.327 2.353a20.77 20.77 0 00-.714 1.859 11.45 11.45 0 00-.38 1.521 5.92 5.92 0 00-.047 2.01c.058-.248.112-.5.182-.748.12-.439.233-.881.38-1.308A13.87 13.87 0 0122.14 27c.38-.64.777-1.265 1.188-1.887.307-.465.629-.923.966-1.366.338-.438.703-.854 1.064-1.273a8.926 8.926 0 012.368-1.925c.132-.074.28-.128.419-.19l.043.054c-.105.155-.21.314-.319.47-.64.927-1.234 1.878-1.72 2.895-.302.637-.6 1.281-.88 1.93-.194.45-.342.92-.516 1.377-.183.49-.377.975-.555 1.464-.152.415-.28.838-.431 1.253-.152.416-.322.82-.47 1.235-.155.438-.287.88-.43 1.32-.129.387-.273.772-.393 1.164-.1.322-.175.656-.268.982-.097.349-.21.698-.302 1.048-.07.264-.125.531-.187.795-.07.3-.143.594-.213.893-.035.148-.078.299-.105.45-.09.493-.16.994-.26 1.487-.09.446-.19.893-.326 1.324-.109.337-.326.384-.575.131-.232-.24-.457-.5-.624-.788-.42-.714-.823-1.44-1.192-2.18a5.578 5.578 0 01-.563-1.798c-.062-.47-.14-.94-.151-1.409-.008-.334.089-.668.143-1.001a.137.137 0 00.008-.04c.012-.636.066-1.268-.093-1.94zm31.957-10.139h.26c.912 0 1.824.015 2.736-.008.497-.012.994-.093 1.49-.144.02-.004.04-.004.063-.004.465-.03.931-.05 1.397-.093.415-.039.83-.097 1.246-.143.02-.004.039-.004.062-.004.59-.031 1.18-.05 1.766-.093.52-.04 1.036-.101 1.553-.144.225-.02.45-.004.675-.016.128-.007.256-.023.38-.054.12-.027.187.004.187.132-.008.71-.008 1.417-.024 2.127-.007.38-.05.757-.066 1.137-.035.835-.058 1.673-.093 2.508-.015.36-.05.718-.066 1.079-.008.163-.124.182-.236.198-.668.093-1.34.186-2.007.267-.513.063-1.029.094-1.537.163-.648.09-1.297.206-1.945.307a8.662 8.662 0 00-2.12.637c-.143.062-.174-.058-.2-.156-.14-.496-.261-1.001-.412-1.494a20.434 20.434 0 00-.59-1.72c-.361-.873-.753-1.73-1.266-2.526-.372-.575-.76-1.141-1.137-1.712-.039-.074-.066-.14-.116-.244zM34.344 10.985c.05-.074.073-.125.108-.164.874-.935 1.75-1.87 2.628-2.806.897-.95 1.766-1.929 2.702-2.841.57-.555 1.23-1.02 1.874-1.494a3.266 3.266 0 011.708-.621c.52-.035.998.14 1.428.434.459.315.788.738 1.099 1.184.074.105.058.171-.047.252-.613.482-1.218.979-1.832 1.46-.652.508-1.312 1.013-1.975 1.506A62 62 0 0140.5 9.009c-.49.345-.99.671-1.48 1.017-.356.252-.702.516-1.051.776-.38.287-.765.57-1.141.862-.082.062-.12.062-.163-.04-.109-.27-.28-.496-.57-.59-.164-.053-.334-.116-.501-.116-.315 0-.633.043-.947.067-.086.003-.171 0-.303 0zm12.578 7.424c.09-.043.151-.093.217-.1.31-.04.621-.082.932-.09 1.11-.035 2.224-.02 3.326-.101.823-.058 1.65-.206 2.329-.737.225-.18.384-.443.574-.672l2.624 1.696c-.004.016-.004.031-.008.05-.197.032-.391.067-.59.09-.415.05-.834.097-1.25.147-.034.004-.065.012-.1.012-.788.031-1.58.054-2.368.09-.555.023-1.114.026-1.665.096-.532.066-1.056.19-1.576.31-.396.09-.392.106-.396.513 0 .144.004.287-.004.431-.003.07-.035.136-.05.202-.062-.039-.136-.07-.183-.12-.205-.21-.395-.435-.605-.645-.384-.388-.784-.76-1.207-1.172zM23.582 3.854c.454.252.85.574 1.187.982.59.714 1.037 1.514 1.437 2.34.256.532.473 1.083.698 1.63.272.66.54 1.32.804 1.984.283.722.555 1.448.842 2.166.1.256.237.5.353.753.02.043.031.093.047.136l-.043.03c-.043-.034-.097-.057-.132-.1a11.063 11.063 0 01-1.545-2.34 65.59 65.59 0 01-.962-2.054c-.323-.726-.586-1.479-.936-2.193-.407-.827-.877-1.622-1.323-2.43-.132-.236-.284-.462-.42-.694-.03-.055-.034-.12-.054-.183.012-.004.027-.015.047-.027zM11.693 18.7c-.249-.027-.493-.046-.738-.085-.26-.039-.512-.101-.772-.144a99.681 99.681 0 00-1.557-.24c-.252-.04-.508-.062-.764-.101-.288-.043-.571-.097-.858-.14-.26-.039-.524-.066-.784-.109-.05-.007-.101-.042-.152-.066.043-.03.078-.077.128-.093.656-.21 1.316-.407 1.972-.625.8-.268 1.595-.547 2.395-.823.016-.003.039.004.085.012a5.255 5.255 0 001.126 2.368c-.027.02-.054.03-.081.046z" fill="#fff"/><path d="M47.579 33.248c-.648 1.394-1.308 2.78-1.93 4.18-.302.684-.535 1.402-.783 2.108-.109.31-.179.633-.268.955-.198.023-.516-.221-.613-.466-.11-.267-.097-.54-.063-.822a1.39 1.39 0 00-.027-.4c-.066-.33-.147-.656-.213-.986-.066-.318-.12-.637-.19-.951-.074-.346-.156-.691-.233-1.04-.066-.295-.12-.594-.187-.89-.066-.298-.143-.597-.213-.9-.066-.267-.128-.535-.194-.8a34.24 34.24 0 00-.221-.853c-.09-.33-.175-.66-.268-.99-.113-.384-.218-.772-.357-1.149a21.94 21.94 0 00-.633-1.572 32.36 32.36 0 00-1.02-2.104 25.432 25.432 0 00-1.231-2.018c-.613-.908-1.277-1.777-2.162-2.449-.707-.536-1.41-1.075-2.112-1.615-.411-.318-.81-.648-1.215-.978-.046-.039-.073-.105-.112-.155.054-.027.109-.066.167-.085.85-.284 1.63-.695 2.286-1.312.214-.198.33-.454.404-.738.155-.598.042-1.203.07-1.805.003-.05-.028-.1-.047-.151-.05-.144-.05-.264.074-.388.283-.28.466-.606.477-1.021a6.2 6.2 0 01.082-.803.44.44 0 01.17-.249c.746-.481 1.502-.943 2.24-1.432.652-.431 1.289-.885 1.93-1.331.6-.42 1.202-.843 1.8-1.27.664-.477 1.312-.97 1.98-1.436.523-.369 1.067-.706 1.603-1.06.132-.085.213-.085.295.09.267.578.558 1.149.838 1.723.02.004.039.004.058.008.027-.384.058-.769.086-1.153.019-.295-.12-.543-.233-.796-.113-.256-.086-.337.167-.403.574-.144 1.148-.272 1.75-.264.765.008 1.35.318 1.716.978.24.435.419.908.601 1.374.225.57.431 1.145.637 1.72.175.48.337.966.512 1.447.156.431.334.854.466 1.289.112.369.186.749.268 1.126.039.19.081.388.073.578-.023.753-.38 1.207-1.121 1.424-.613.179-1.238.202-1.867.241-.637.039-1.273.097-1.91.148-.392.03-.784.058-1.176.1-.338.035-.671.094-1.005.14-.23.031-.454.066-.683.097-.45.058-.9.117-1.347.179-.101.015-.198.05-.295.07-.264.058-.466-.105-.691-.187-.532-.186-1.06-.396-1.607-.528-.598-.143-1.215-.124-1.82-.011-.225.042-.33.17-.33.407-.004.342-.004.683 0 1.021.004.136-.05.183-.183.214-.516.116-1.028.256-1.54.384-.059.015-.125.012-.183.027-.136.035-.202.097-.24.264-.117.485.07.959.019 1.436-.016.136.062.202.202.186.496-.05.993-.1 1.49-.155.23-.023.454-.058.683-.085.295-.035.59-.055.885-.097.26-.035.516-.093.773-.14.178-.031.357-.058.54-.085.344-.055.69-.144 1.035-.148.198 0 .4.132.594.23a13.844 13.844 0 012.776 1.792c.822.68 1.572 1.433 2.27 2.244.75.873 1.436 1.793 2.01 2.783.517.892.971 1.824 1.402 2.763.229.497.353 1.044.52 1.572.225.718.28 1.46.24 2.201-.019.388-.085.776-.15 1.16-.07.404-.148.812-.265 1.208-.128.43-.295.85-.462 1.265-.186.462-.376.92-.593 1.366-.128.26-.292.513-.474.738-.245.303-.57.29-.741-.136-.113-.28-.163-.578-.257-.866-.12-.364-.24-.733-.388-1.087a12.37 12.37 0 00-.597-1.277c-.385-.675-.909-1.218-1.623-1.556-.066-.011-.108-.039-.116-.043zM27.073 18.94c0-.109-.004-.187 0-.264.023-.443.07-.89.058-1.332a.723.723 0 00-.236-.485c-.874-.846-1.724-1.715-2.605-2.558a31.022 31.022 0 00-1.735-1.533 8.983 8.983 0 00-2.259-1.362c-.438-.183-.9-.326-1.386-.35-.438-.019-.877-.073-1.315-.065-.3.003-.598.073-.89.143-.383.093-.775.186-1.136.342-.447.19-.885.415-1.29.683-.543.36-1.04.792-1.416 1.335a7.395 7.395 0 00-.543.885c-.062.12-.035.295-.016.443.043.31.109.617.171.966.14-.163.264-.299.384-.443.645-.745 1.41-1.335 2.314-1.727.473-.206.97-.403 1.475-.477.648-.097 1.311-.109 1.967-.09.439.016.878.12 1.305.237a7.92 7.92 0 012.623 1.258c1.068.788 1.976 1.747 2.873 2.713.163.175.326.346.497.512.089.086.108.16-.016.218-.345.159-.687.337-1.048.465-.369.133-.753.222-1.133.315a2.94 2.94 0 01-.579.09c-.939.034-1.874.065-2.814.077-.415.004-.826-.043-1.242-.074-.69-.05-1.378-.105-2.069-.167-.45-.043-.904-.078-1.346-.163-.532-.1-1.052-.248-1.576-.388a6.498 6.498 0 01-1.89-.838 3.558 3.558 0 01-1.103-1.103.43.43 0 01-.039-.213c-.004-.307 0-.614-.004-.92-.004-.28-.023-.299-.345-.326.027-.21.047-.42.078-.625.027-.179.058-.357.1-.532.133-.54.241-1.087.412-1.614.225-.703.458-1.41.757-2.08.376-.847.83-1.662 1.331-2.446.804-1.25 1.747-2.387 2.768-3.462.714-.753 1.525-1.405 2.491-1.829.37-.163.746-.333 1.165-.279.178.023.353.085.52.147.117.043.124.113.004.179-.718.4-1.386.873-2.003 1.417-.71.62-1.362 1.3-1.94 2.041-.354.45-.715.9-1.03 1.382a30.965 30.965 0 00-1.199 2.015c-.271.508-.504 1.04-.702 1.583-.082.222-.031.497-.023.75.007.193.046.384.073.578.004.023.012.046.02.081.33-.601.64-1.188.974-1.758.202-.346.427-.68.668-.998.419-.547.83-1.106 1.292-1.614a24.225 24.225 0 011.758-1.759c.858-.768 1.801-1.436 2.861-1.91.287-.127.586-.22.873-.34.156-.067.233.026.303.123.283.412.567.823.83 1.246.296.474.59.951.855 1.448.341.644.652 1.304.97 1.96.217.447.423.897.629 1.347.229.497.434 1.01.683 1.494.314.618.633 1.242 1.009 1.825.357.543.784 1.044 1.2 1.548.174.214 0 .365-.04.54-.085.376-.201.745-.29 1.118-.144.61-.113 1.226-.082 1.843.008.163-.031.253-.194.326-.24.117-.481.288-.757.45zM17.77 31.466c-.237.136-.462.241-.664.377a77.604 77.604 0 00-2.208 1.54c-.757.556-1.42 1.22-2.07 1.899-.19.198-.356.415-.539.62-.05.055-.124.09-.19.137-.023-.016-.046-.028-.07-.043.043-.283.074-.567.124-.846.032-.167.105-.326.136-.493.086-.474.237-.92.466-1.347.644-1.2 1.425-2.313 2.181-3.439a67.883 67.883 0 011.82-2.604c1.25-1.7 2.617-3.303 4.2-4.705.804-.71 1.654-1.362 2.582-1.905.046-.027.093-.059.143-.062.687-.074 1.347-.237 1.956-.567.028-.016.066-.004.14-.008-.039.074-.058.124-.089.163-.415.478-.858.932-1.242 1.432-.551.722-1.052 1.475-1.58 2.217a13.75 13.75 0 00-1.327 2.352 20.77 20.77 0 00-.714 1.859c-.163.497-.288 1.01-.38 1.521a5.92 5.92 0 00-.047 2.011c.058-.248.112-.5.182-.749.12-.439.233-.881.38-1.308.307-.881.707-1.723 1.184-2.527.38-.64.777-1.265 1.188-1.886.307-.466.629-.924.966-1.367.338-.438.703-.853 1.064-1.273a8.924 8.924 0 012.368-1.925c.132-.073.28-.128.419-.19l.043.054c-.105.156-.21.315-.319.47-.64.928-1.234 1.879-1.72 2.896-.302.636-.6 1.28-.88 1.929-.194.45-.342.92-.517 1.377-.182.49-.376.975-.555 1.464-.151.415-.28.838-.43 1.254-.152.415-.323.819-.47 1.234-.155.438-.287.88-.43 1.32-.129.388-.273.772-.393 1.164-.1.322-.175.656-.268.982-.097.35-.21.699-.303 1.048-.07.264-.124.532-.186.796-.07.298-.143.593-.213.892-.035.148-.078.3-.105.45-.09.493-.16.994-.26 1.487-.09.447-.19.893-.326 1.324-.109.337-.326.384-.575.132a4.214 4.214 0 01-.625-.788 36.26 36.26 0 01-1.191-2.182 5.576 5.576 0 01-.563-1.797c-.062-.47-.14-.939-.151-1.409-.008-.334.089-.667.143-1.001a.137.137 0 00.008-.039c.012-.636.066-1.27-.093-1.94zm16.578-20.495c.05-.073.073-.124.108-.163.874-.935 1.75-1.87 2.628-2.806.897-.951 1.766-1.93 2.701-2.841.571-.555 1.23-1.021 1.875-1.495a3.265 3.265 0 011.708-.62c.52-.035.998.14 1.428.434.458.315.788.738 1.099 1.184.074.105.058.17-.047.252-.613.482-1.218.978-1.832 1.46a105.84 105.84 0 01-1.975 1.506c-.505.38-1.021.749-1.537 1.114-.49.345-.99.671-1.48 1.017-.356.252-.702.516-1.051.776-.38.287-.765.57-1.141.861-.082.063-.12.063-.163-.038-.109-.272-.28-.497-.57-.59-.164-.055-.335-.117-.502-.117-.314 0-.632.043-.947.066-.085.008-.17 0-.302 0zM23.584 3.846c.454.252.85.574 1.187.982.59.714 1.037 1.513 1.436 2.34.257.532.474 1.083.7 1.63.27.66.539 1.32.803 1.984.283.722.555 1.448.842 2.166.1.256.237.5.353.753.02.042.031.093.047.135l-.043.031c-.043-.034-.097-.058-.132-.1a11.067 11.067 0 01-1.545-2.34 64.96 64.96 0 01-.962-2.054c-.322-.726-.587-1.479-.936-2.193-.407-.827-.877-1.623-1.323-2.43-.132-.237-.284-.462-.42-.695-.03-.054-.035-.12-.054-.182.012-.008.027-.02.047-.027z" fill="#E30D16"/></svg>