<svg width="96" height="36" fill="none" xmlns="http://www.w3.org/2000/svg"><path d="M17.473 30.695c-.01 0-.025 0-.037-.004l-.043-.01a1.782 1.782 0 00-.245-.048 78.938 78.938 0 01-.97-.084c-.947-.084-1.924-.172-2.89-.205-1.521-.051-2.505-.889-2.915-2.484-.325-1.261-.102-2.27.67-3.002.318-.3.713-.52 1.1-.728.136-.073.271-.15.403-.227a409.29 409.29 0 012.729-1.587l1.16-.673.01-.007.564-.183c1.053-.307 2.077-.589 3.065-.856.976-.267 1.986-.541 3.014-.841l.739-.216-.648.413a5.908 5.908 0 01-.435.23c-.084.045-.161.081-.201.103l-.008.004c-.512.238-.892.42-1.258.596a73.5 73.5 0 01-1.148.545l.27.38c.256.359.501.699.724 1.064.761 1.244 1.094 2.579.995 3.969-.021.303-.153.46-.464.548-.841.245-1.668.498-2.542.765-.267.08-.534.164-.805.245l.966 1.298-.172.033c-.282.051-.527.143-.79.238a5.55 5.55 0 01-.72.227l.054.285a.176.176 0 01-.037.157.208.208 0 01-.135.055zm-.944-8.85c-.391.226-.771.449-1.152.665-.94.545-1.829 1.06-2.725 1.587-.135.08-.274.154-.41.23-.373.202-.757.414-1.053.695-.717.68-.918 1.595-.607 2.79.384 1.493 1.298 2.272 2.71 2.32.97.033 1.95.12 2.9.204.32.03.645.059.97.085.08.007.165.025.245.044l-.084-.432.11-.022c.285-.051.53-.143.794-.238a5.48 5.48 0 01.654-.208l-.943-1.27.15-.043c.322-.099.64-.194.954-.293.874-.267 1.701-.523 2.546-.768.223-.066.293-.142.307-.355.099-1.342-.226-2.633-.962-3.836-.22-.358-.46-.695-.713-1.05a35.37 35.37 0 01-.347-.49l-.074-.106.117-.055c.516-.241.897-.424 1.266-.6.26-.124.527-.252.841-.398-.64.179-1.269.35-1.887.52-.988.27-2.008.548-3.058.855l-.549.168z" fill="#333"/><path d="M15.413 25.74c1.92-.741 3.42-1.327 5.362-2.076l-.38-.597c-1.895.842-3.336 1.51-5.216 2.345l.234.329zm-3.661 3.314a1.426 1.426 0 002.311-.164c.692-1.09.425-2.688-.589-3.5-.918-.735-2.194-.322-2.417.8.054-.09.095-.164.139-.237.493-.786 1.254-.925 1.968-.33.61.51.83 1.211.855 1.983.019.483-.11.936-.398 1.324-.417.574-1.09.607-1.87.124z" fill="#333"/><path d="M16.354 20.986l-.23-1.829a89.167 89.167 0 01-.856-.044V17.48c.614-.092 1.21-.154 1.796-.278 1.419-.3 2.838-.608 4.25-.944 3.325-.794 6.595-1.77 9.832-2.86.143-.048.366-.004.494.084.391.267.76.57 1.126.874a.94.94 0 00.79.227c1.04-.154 2.085-.278 3.128-.428 3.969-.57 7.879-1.434 11.741-2.509 3.124-.867 6.215-1.836 9.232-3.024 2.07-.816 4.108-1.72 6.164-2.564.22-.092.486-.117.724-.103 1.21.077 2.418.271 3.625.256a86.712 86.712 0 005.929-.292 22.22 22.22 0 005.183-1.028c.483-.16 1.032-.263 1.266-.827l-.011.015c.07-.197.182-.274.41-.238.79.125 1.583.234 2.38.34 1.453.194 2.905.374 4.357.571.67.091 1.331.212 1.997.318-.527.3-1.06.549-1.602.765-1.953.779-3.9 1.572-5.867 2.311-2.6.977-5.209 1.928-7.831 2.842-2.458.856-4.766 2.011-7.027 3.28-.68.385-1.276.94-2.092 1.068-.432.07-.86.176-1.291.245-.893.143-1.785.271-2.681.406.969.088 1.93.092 2.896.084.224 0 .33.059.355.311.04.425.14.842.201 1.262.37 2.513.74 5.029 1.105 7.542.154 1.05.304 2.099.461 3.17-1.339.44-2.656.867-3.969 1.299l.022.066c1.474-.311 2.952-.626 4.463-.944-.121-1.284-.238-2.553-.359-3.83.132-.047.234-.087.34-.12 2.528-.808 5.04-1.66 7.411-2.87 1.05-.535 2.078-1.109 2.915-1.961.534-.542.692-.768-.289-1.116-.695-.248-1.46-.373-2.198-.41-2.202-.113-4.375.22-6.544.546-.717.106-1.426.245-2.183.376-.048-.464-.088-.877-.128-1.28.285-.076.515-.131.746-.197 2.754-.812 5.439-1.796 8.036-3.021.52-.245.82-.633.94-1.182a3.154 3.154 0 00-.183-1.912c.084-.033.139-.059.197-.08 1.511-.531 3.036-1.025 4.529-1.603a408.696 408.696 0 008.859-3.503c1.339-.553 2.619-1.248 3.928-1.873a1.86 1.86 0 01.425-.139c.643-.135 1.29-.26 1.938-.388-.146-.05-.278-.036-.413-.022-.67.077-1.35.26-2.012.213-1.496-.11-2.985-.337-4.477-.505-2.129-.245-4.254-.49-6.386-.72-.615-.066-1.222-.107-1.665-.619-.062-.073-.16-.117-.245-.172C77.826.962 75.42.74 72.925 1.112c-2.213.333-4.261 1.181-6.215 2.253-.35.194-.68.431-1.02.647.01.019.022.037.033.055l2.483-1.156c-.073.428-.135.787-.205 1.182.49-.128.948-.249 1.405-.366.816-.201.893-.187 1.353.516.267.406.553.819.611 1.327-.062.022-.084.037-.106.037-2.21.01-4.407-.088-6.595-.413-.322-.048-.687-.088-.976.022-1.449.548-2.868 1.177-4.32 1.726-4.276 1.613-8.643 2.944-13.077 4.052-.632.157-1.265.278-1.927.223-.776-.066-1.551-.084-2.33-.113-3.896-.154-7.791-.3-11.683-.465a1.284 1.284 0 01-.67-.26c-1.397-1.056-2.776-2.139-4.17-3.203-2.238-1.708-4.48-3.412-6.726-5.113-.647-.49-1.273-1.024-1.968-1.445-1.13-.706-2.374-.739-3.632-.413-1.997.516-3.99 1.046-5.984 1.569-.344.091-.691.168-1.09.263 2.703 4.118 5.37 8.185 8.04 12.256.036-.022.073-.044.106-.066A15833.66 15833.66 0 007.36 2.535c.073-.022.12-.037.168-.048 1.993-.472 3.987-.962 5.991-1.4 1.035-.227 2.074-.162 2.948.508 2.063 1.587 4.097 3.215 6.146 4.82 2.157 1.693 4.32 3.376 6.481 5.065.53.414 1.06.83 1.646 1.292-5.245 1.84-10.483 3.397-15.886 4.33v2.45h.922l.161 1.138c-.23.022-.417.047-.603.058-2.389.161-4.777.315-7.166.48-.432.029-.889.04-1.288.19-.994.373-1.964.815-2.94 1.236-.355.15-.706.307-1.061.457l.022.084c1.222.175 2.44.355 3.661.53l.011-.084-3.226-.537c.157-.085.22-.125.285-.154.787-.326 1.57-.655 2.363-.966.44-.172.882-.424 1.34-.457 2.75-.179 5.504-.307 8.258-.45.125-.007.249 0 .457 0l.304-.091zm31.771-2.556c-.014-.044-.025-.092-.04-.136-7.94 2.692-15.882 5.38-23.823 8.072.007.022.018.047.026.07 3.014-.582 6.024-1.167 9.049-1.753.007.103.015.128.011.15-.56 2.824-1.13 5.644-1.672 8.47-.07.363-.23.524-.552.64-1.028.363-2.045.743-3.065 1.124-.538.197-1.072.406-1.606.61.07.055.117.059.165.044 1.616-.482 3.23-.976 4.854-1.444.285-.084.398-.227.464-.498.33-1.426.732-2.838.991-4.275.165-.9.465-1.54 1.452-1.657.026-.004.048-.018.07-.026 1.737-.636 3.475-1.269 5.249-1.92.278.582.556 1.152.82 1.73.036.08.021.198.003.293a59.132 59.132 0 01-.377 1.953c-.018.084-.143.201-.23.212-1.19.165-2.382.31-3.574.465l-2.41.307c.618.044 1.229.014 1.84-.011 1.477-.066 2.951-.136 4.429-.194.238-.007.31-.099.355-.322.329-1.631.684-3.255 1.006-4.89.054-.285.194-.395.446-.464.65-.183 1.306-.351 1.935-.593.753-.289 1.477-.424 2.205.044.07.044.169.048.25.077l1.642.607c-.395.128-.684.209-.962.307-1.416.494-1.899 1.273-1.588 2.535.157.633.556 1.027 1.196 1.075a7.653 7.653 0 001.53-.07c1.985-.26 3.971-.522 5.95-.826.98-.15 1.924-.227 2.839.267.26.143.56.216.84.318.568.209 1.138.41 1.71.618l.028-.073c-5.728-2.461-11.456-4.926-17.25-7.413 1.968-1.16 3.881-2.293 5.794-3.424z" fill="#fff"/><path d="M16.05 21.08c-.208 0-.332-.008-.457 0-2.754.142-5.508.27-8.259.45-.454.028-.9.28-1.339.456-.79.311-1.576.644-2.363.966-.065.03-.128.07-.285.154 1.138.19 2.18.365 3.226.537l-.01.084c-1.222-.175-2.44-.354-3.662-.53l-.022-.084c.355-.154.706-.307 1.06-.457.98-.417 1.947-.863 2.941-1.236.4-.15.856-.161 1.288-.19 2.389-.169 4.777-.323 7.166-.48.186-.01.369-.036.603-.058l-.16-1.138h-.923v-2.45c5.4-.933 10.64-2.49 15.886-4.33-.589-.461-1.116-.878-1.646-1.291-2.162-1.69-4.324-3.376-6.482-5.066-2.048-1.605-4.082-3.237-6.145-4.82-.87-.67-1.913-.735-2.948-.509-2.004.44-3.994.93-5.991 1.401-.048.011-.092.026-.168.048 2.308 3.902 4.605 7.794 6.902 11.689a2.738 2.738 0 00-.106.065c-2.67-4.07-5.337-8.137-8.04-12.255.395-.095.746-.172 1.09-.264C9.203 1.25 11.193.72 13.19.2c1.258-.326 2.502-.293 3.632.395.692.42 1.317.954 1.968 1.444 2.242 1.701 4.488 3.405 6.727 5.113 1.393 1.065 2.772 2.147 4.17 3.204.186.14.442.249.669.26 3.895.164 7.79.31 11.683.464.775.03 1.554.048 2.33.114.662.054 1.295-.066 1.927-.223 4.434-1.109 8.8-2.44 13.077-4.053 1.452-.548 2.871-1.177 4.32-1.726.289-.11.658-.07.976-.022 2.188.326 4.386.424 6.595.413.022 0 .048-.014.106-.036-.062-.505-.344-.918-.61-1.328-.461-.702-.538-.717-1.354-.516-.457.114-.914.238-1.405.366.07-.395.132-.753.205-1.181l-2.483 1.156-.033-.055c.34-.216.67-.454 1.02-.648 1.954-1.071 3.998-1.92 6.215-2.253 2.494-.376 4.901-.15 7.081 1.277.084.055.18.099.245.172.447.508 1.05.552 1.665.618 2.128.227 4.257.475 6.386.72 1.492.172 2.981.399 4.477.505.662.048 1.339-.135 2.012-.212.135-.015.267-.03.413.022-.647.128-1.291.252-1.938.388a1.86 1.86 0 00-.425.139c-1.31.625-2.586 1.32-3.928 1.872a428.052 428.052 0 01-8.86 3.504c-1.492.574-3.017 1.068-4.528 1.602a3.89 3.89 0 00-.197.08 3.16 3.16 0 01.183 1.913c-.12.549-.42.936-.94 1.181-2.597 1.226-5.286 2.21-8.036 3.021a22.09 22.09 0 01-.746.198c.04.406.08.819.128 1.28.757-.132 1.466-.267 2.183-.377 2.17-.325 4.342-.655 6.544-.545.739.037 1.503.161 2.198.41.98.35.82.574.29 1.115-.838.849-1.866 1.423-2.916 1.96-2.37 1.211-4.883 2.063-7.41 2.872-.107.032-.21.073-.34.12l.358 3.83c-1.511.318-2.985.632-4.463.943l-.022-.066 3.969-1.298-.46-3.171c-.37-2.513-.736-5.029-1.106-7.541-.062-.421-.16-.838-.2-1.262-.026-.253-.129-.311-.356-.311-.965.007-1.93.004-2.897-.084.893-.135 1.79-.263 2.682-.406.431-.07.86-.18 1.29-.245.817-.128 1.41-.684 2.093-1.068 2.26-1.27 4.569-2.425 7.027-3.28 2.622-.915 5.23-1.866 7.83-2.843 1.969-.738 3.915-1.532 5.868-2.31a12.548 12.548 0 001.602-.765c-.666-.106-1.331-.227-1.997-.319-1.452-.197-2.904-.376-4.356-.57a88.701 88.701 0 01-2.382-.34c-.227-.037-.34.044-.41.238-.01-.096.012-.227-.043-.278-.348-.319-.655-.706-1.16-.787-.629-.102-1.254-.248-1.887-.285-1.672-.095-3.329.091-4.975.384-.607.11-1.21.223-1.737.318.34.651.677 1.258.976 1.884.1.205.198.27.417.263 2.195-.07 4.379-.245 6.53-.706.676-.142 1.382-.263 1.89-.812-.23.563-.782.67-1.265.827a22.222 22.222 0 01-5.183 1.028c-1.972.16-3.95.267-5.93.292-1.206.015-2.417-.175-3.624-.256a1.67 1.67 0 00-.724.103c-2.06.848-4.093 1.748-6.164 2.563-3.017 1.189-6.108 2.155-9.232 3.025-3.862 1.075-7.769 1.938-11.741 2.509-1.043.15-2.085.274-3.127.428a.929.929 0 01-.79-.227 15.201 15.201 0 00-1.127-.874c-.128-.088-.351-.132-.494-.084-3.237 1.09-6.507 2.066-9.832 2.86-1.412.336-2.828.647-4.25.943-.586.125-1.182.183-1.796.278v1.635c.27.015.548.03.856.044.076.607.157 1.298.237 1.928l-.31.021zm61.03-1.665c-.146-.073-.245-.153-.355-.171-.713-.118-1.426-.308-2.14-.319-1.843-.025-3.668.234-5.479.56-1.028.186-2.052.399-3.113.607l.278 2.915c1.533.018 9.587-2.644 10.809-3.592zm-34.368-7.607l-.015-.099c-4.159-.336-8.318-.673-12.48-1.013a67.109 67.109 0 003.16 2.495c.092.07.26.084.384.065 1.796-.252 3.592-.493 5.38-.779 1.197-.19 2.382-.442 3.57-.669zm24.982 4.788c.026.047.051.095.08.142.227 0 .465.04.681-.007 2.078-.454 4.02-1.277 5.915-2.217.815-.405 1.046-1.678.446-2.439-.662.366-1.339.713-1.99 1.108a257.46 257.46 0 00-4.4 2.718c-.282.179-.49.46-.732.695zm1.493-14.063c.395.234.757.465 1.137.666.14.073.322.12.472.095.999-.172 1.986-.395 2.988-.541 1.5-.22 3.007-.384 4.529-.194.098.01.197.029.296.04.084.01.168.018.252.026-3.222-1.708-6.448-1.193-9.674-.092zm.79.962c.014-.044.025-.084.04-.128-.311-.15-.61-.333-.936-.428-.132-.04-.388.066-.469.183-.128.19-.157.446-.252.76.614-.146 1.116-.266 1.617-.387z" fill="#333"/><path d="M48.127 18.428c-1.913 1.13-3.826 2.264-5.794 3.427 5.79 2.49 11.518 4.952 17.25 7.413-.011.026-.018.048-.03.073-.57-.204-1.137-.41-1.707-.618-.282-.102-.578-.179-.842-.318-.914-.497-1.858-.417-2.838-.267a270.5 270.5 0 01-5.951.827c-.505.066-1.025.11-1.53.07-.64-.048-1.038-.443-1.195-1.076-.311-1.262.171-2.04 1.587-2.535.282-.098.567-.182.962-.307-.614-.226-1.127-.42-1.642-.607-.08-.03-.18-.033-.249-.077-.728-.468-1.452-.336-2.206-.043-.629.24-1.287.41-1.935.592-.252.073-.391.18-.446.465-.322 1.63-.676 3.258-1.006 4.89-.044.222-.117.314-.355.321-1.477.055-2.951.128-4.429.194-.61.026-1.225.055-1.84.011l2.41-.307c1.193-.154 2.382-.3 3.574-.465.088-.01.212-.124.23-.212.14-.647.257-1.302.377-1.953.019-.095.033-.212-.003-.292-.264-.578-.542-1.149-.82-1.73-1.774.65-3.511 1.283-5.248 1.92-.022.007-.048.022-.07.025-.988.114-1.288.757-1.452 1.657-.26 1.438-.662 2.85-.991 4.276-.063.27-.176.417-.465.497-1.62.468-3.237.962-4.854 1.445-.044.014-.095.01-.164-.044.534-.205 1.068-.41 1.605-.611 1.02-.377 2.038-.76 3.066-1.123.325-.113.482-.278.552-.64.541-2.827 1.112-5.647 1.671-8.47.004-.022-.003-.048-.01-.15-3.022.585-6.036 1.166-9.05 1.752l-.025-.07c7.94-2.692 15.882-5.38 23.823-8.072.014.04.025.085.04.132zM46.086 28.65c.431.037.589-.194.688-.457.24-.633.153-1.24-.275-1.763-.106-.128-.325-.16-.494-.234-.014.033-.025.066-.04.095.413.04.647.351.724.97.095.753-.077 1.192-.603 1.39z" fill="#333"/><path d="M77.08 19.416c-1.221.947-9.275 3.61-10.812 3.595-.091-.951-.183-1.906-.278-2.915 1.061-.209 2.085-.424 3.113-.607 1.81-.326 3.636-.582 5.48-.56.713.011 1.426.198 2.14.318.109.015.211.095.358.169zm3.468-15.354c-.508.552-1.218.67-1.891.812-2.15.46-4.334.636-6.529.706-.22.007-.318-.062-.417-.263-.3-.626-.636-1.233-.977-1.884.527-.095 1.134-.208 1.738-.318 1.646-.296 3.303-.48 4.974-.384.633.036 1.259.183 1.888.285.504.084.812.468 1.16.786.054.052.032.183.043.278a.08.08 0 01.011-.018zm-37.834 7.747c-1.19.226-2.374.479-3.57.669-1.789.285-3.589.527-5.38.779-.125.018-.29.004-.385-.066a67.055 67.055 0 01-3.16-2.494c4.159.336 8.317.673 12.48 1.013l.015.099zm24.981 4.786c.242-.234.45-.515.728-.69a244.344 244.344 0 014.4-2.718c.652-.395 1.328-.743 1.99-1.108.6.76.37 2.033-.446 2.44-1.895.939-3.837 1.758-5.915 2.215-.215.048-.453.008-.68.008a4.945 4.945 0 00-.077-.147z" fill="#fff"/><path d="M69.188 2.533c3.226-1.097 6.452-1.613 9.674.088a8.188 8.188 0 01-.549-.066c-1.521-.19-3.028-.025-4.528.194-1.002.146-1.99.373-2.988.541-.15.026-.333-.025-.472-.095-.377-.197-.743-.428-1.138-.662zm.79.961c-.501.12-1.002.241-1.617.387.095-.31.125-.57.253-.76.08-.117.336-.223.468-.183.325.095.625.278.936.428-.014.044-.025.084-.04.128zM46.086 28.65c.523-.194.698-.637.607-1.39-.077-.615-.31-.93-.724-.97.014-.032.025-.065.04-.095.168.077.388.106.494.234.428.523.516 1.127.274 1.763-.102.264-.26.49-.691.457z" fill="#fff"/><path d="M17.525 30.098c1.986 1.891 3.924 3.742 5.863 5.589l-.048.054c-.504-.438-1.009-.877-1.51-1.32-1.36-1.203-2.714-2.414-4.078-3.61-.1-.084-.271-.113-.41-.117l.183-.596zm2.468-8.636l-1.397-.34 4.985-1.474-3.588 1.814z" fill="#333"/><path d="M66.501 24.936c.132-.047.234-.087.34-.12 2.528-.809 5.04-1.66 7.411-2.871 1.05-.534 2.078-1.109 2.915-1.96.534-.542.692-.769-.289-1.116-.695-.249-1.46-.373-2.198-.41-2.202-.113-4.375.22-6.544.545-.717.106-1.426.245-2.183.377l.548 5.555zm-18.424.18c-.395.128-.684.208-.962.307-1.415.494-1.898 1.273-1.587 2.534.157.633.556 1.028 1.196 1.075a7.644 7.644 0 001.529-.069c1.986-.26 3.972-.523 5.951-.826" fill="#fff"/><path d="M65.947 19.378c.757-.131 1.467-.267 2.184-.377 2.169-.325 4.342-.654 6.544-.544.739.036 1.503.16 2.198.41.98.35.82.573.289 1.115-.838.848-1.866 1.422-2.915 1.96-2.37 1.21-4.883 2.063-7.41 2.871-.107.033-.21.073-.341.12l-.549-5.555zm11.167.037c-.146-.073-.245-.154-.354-.172-.714-.117-1.427-.307-2.14-.318-1.844-.026-3.669.234-5.48.56-1.027.186-2.052.398-3.112.606.095 1.01.186 1.964.278 2.915 1.532.019 9.587-2.644 10.808-3.591zm-22.223 8.641c-.402 0-.274.015-.69.077-1.98.304-3.966.567-5.952.827-.505.066-1.024.11-1.529.07-.64-.048-1.039-.443-1.196-1.076-.311-1.262.172-2.04 1.587-2.535.282-.098.567-.182.962-.307l6.818 2.945zm-8.77.593c.43.037.588-.194.687-.457.241-.633.153-1.24-.275-1.763-.106-.128-.325-.161-.493-.234-.015.033-.026.066-.04.095.413.04.647.351.724.97.095.753-.077 1.191-.604 1.389z" fill="#E30D16"/><path d="M77.116 19.414c-1.222.947-9.276 3.61-10.813 3.595l-.278-2.915c1.061-.208 2.085-.424 3.113-.607 1.81-.325 3.636-.581 5.48-.56.713.012 1.426.198 2.14.319.109.014.211.095.358.168zm-30.997 9.238c.523-.194.699-.637.607-1.39-.077-.614-.31-.929-.724-.97.015-.032.026-.065.04-.094.168.077.388.106.494.234.428.523.516 1.126.274 1.763-.102.263-.26.49-.691.457z" fill="#fff"/><path d="M8.921 25.866c.03-.351-.117 1.39.359 2.707.475 1.316 1.719 2.413 1.719 2.413l-8.285 4.44s1.42-2.015 1.01-2.918c-.311-.874-2.418-1.043-2.418-1.043s1.587-1.287 1.214-2.337C2.228 28.05 0 27.79 0 27.79l8.921-1.924z" fill="#E30D16"/></svg>