<svg width="67" height="57" fill="none" xmlns="http://www.w3.org/2000/svg"><path d="M17.466 20.724c.205-.175.382-.28.586-.303.177-.024.41 0 .639.128.28.128.457.303.562.583.1.28.1.559-.024.834l-.587 1.37-3.845-1.621.51-1.166c.152-.328.357-.56.638-.683.28-.128.562-.152.839-.024.229.1.41.228.51.355.068.124.144.3.172.527zm-.69.839l.076-.176c.052-.152.052-.28 0-.38-.052-.127-.152-.203-.305-.279-.357-.151-.586-.052-.739.304l-.052.1 1.02.431zm1.582.683l.1-.252c.052-.151.052-.28 0-.38-.052-.127-.153-.203-.305-.279-.33-.151-.586-.052-.739.304l-.076.175 1.02.432zm2.698-3.423l-1.12 1.75-3.516-2.257 1.068-1.62.686.43-.586.887.715.455.485-.759.663.432-.486.758.763.508.638-.987.69.403zm-.737-3.698c-.358 0-.61.075-.763.227a.322.322 0 00-.1.252c0 .1.024.175.076.227.1.1.305.128.638.076a5.1 5.1 0 01.714-.076c.153 0 .33.024.486.076.153.052.305.152.458.28.28.251.433.53.433.862.024.328-.1.635-.329.91-.204.228-.485.38-.839.456l-.738-.683c.41 0 .714-.1.89-.328a.526.526 0 00.13-.303c0-.1-.025-.204-.101-.252-.1-.1-.305-.127-.586-.1a9.62 9.62 0 01-.944.077 2.978 2.978 0 01-.485-.1.98.98 0 01-.382-.228 1.161 1.161 0 01-.38-.787c0-.303.1-.582.328-.834.177-.204.41-.327.687-.431l.806.679zm2.371-2.509l-.639.507 2.14 2.583-.687.56-2.14-2.56-.637.53-.51-.634 1.963-1.597.51.61zm6.313.585l-.281.483-.534-.327a1.45 1.45 0 01-.586.455c-.305.128-.61.176-.891.1-.281-.076-.51-.228-.739-.455a3.284 3.284 0 01-.61-1.014c-.305-.711-.41-1.294-.305-1.697.1-.432.381-.711.79-.887.306-.128.61-.175.868-.1.28.076.51.204.738.432.23.227.434.559.639 1.014.305.683.409 1.242.329 1.62l.582.376zm-1.401-.762c-.129-.304-.205-.508-.281-.66-.177-.406-.33-.682-.41-.834-.1-.151-.204-.251-.329-.303a.486.486 0 00-.381 0c-.129.052-.229.176-.253.355-.024.176.052.507.253.986.177.408.305.66.41.787.1.128.204.228.304.252a.43.43 0 00.358 0 .638.638 0 00.176-.128l-.762-.483.305-.483.61.51zm4.15-1.14c.076.38.024.71-.153.962-.177.28-.486.455-.891.531-.433.1-.763.052-1.044-.128-.28-.175-.457-.455-.562-.886l-.61-2.811.891-.204.586 2.711c.053.204.1.328.205.408.1.076.205.127.357.076a.333.333 0 00.253-.204c.053-.128.053-.252.024-.431l-.61-2.763.891-.204.663 2.943zm3.645 1.038l-.89.024-.153-.66-1.096.025-.129.659-.89.024 1.095-4.205.915-.024 1.148 4.157zm-1.172-1.318l-.41-1.8h-.023l-.382 1.824.815-.024zm3.436 1.697l-1.934-.28.61-4.104.89.128-.485 3.294 1.044.152-.125.81zm1.607-3.876l.867.252-1.12 4.005-.867-.251 1.12-4.005zm3.896 2.307l-.739-.327-1.324 3.09-.84-.355 1.325-3.067-.762-.327.329-.735 2.344 1.014-.333.707zm3.49 1.244L44.59 13.81l-1.02 1.545-.738-.483 1.02-1.546.381-2.535.815.531-.281 1.394 1.148-.81.739.486zM24.75 43.526c.128.227.176.431.176.635-.024.175-.1.379-.253.607-.177.227-.41.379-.686.43-.281.053-.563-.023-.815-.203l-1.225-.862 2.445-3.37 1.044.734c.305.204.485.456.534.759a.927.927 0 01-.153.81 1.357 1.357 0 01-.458.408c-.2.052-.377.076-.61.052zm-1.679.559l.229.151c.128.076.253.128.381.1.129-.024.23-.1.33-.251.204-.304.176-.56-.129-.787l-.152-.1-.659.887zm1.016-1.394l.152.1c.129.1.253.128.382.1a.485.485 0 00.329-.228c.229-.303.177-.559-.129-.786l-.1-.076-.634.89zm2.854 4.38l-1.886-.886 1.81-3.75 1.758.835-.357.735-.967-.455-.358.758.815.38-.329.71-.815-.379-.41.834 1.068.508-.329.71zm3.639-1.999c-.152-.327-.328-.53-.533-.583a.385.385 0 00-.281.024c-.1.052-.152.1-.177.176-.052.128.024.328.205.583.177.252.305.455.381.607.077.152.1.303.129.455.024.176 0 .355-.052.531-.1.355-.305.607-.586.759-.281.151-.61.175-.968.076-.28-.076-.534-.28-.762-.56l.28-.938c.177.38.41.583.687.66a.761.761 0 00.33 0c.1-.053.152-.1.204-.205.052-.151-.024-.327-.177-.558-.253-.38-.41-.66-.457-.811-.053-.176-.1-.327-.1-.483 0-.152 0-.304.051-.455.1-.304.281-.531.562-.66a1.26 1.26 0 01.916-.051c.253.076.485.227.686.431l-.337 1.002zm3.109.076l-.815-.1-.41 3.318-.89-.1.409-3.317-.815-.1.1-.81 2.521.303-.1.806zm5.374 2.863l-.41.407-.433-.43a1.774 1.774 0 01-.662.303c-.33.051-.638.024-.891-.128a1.417 1.417 0 01-.61-.607c-.153-.28-.281-.659-.358-1.142-.128-.759-.1-1.342.129-1.721.204-.38.534-.607.967-.683.33-.052.638-.024.867.1.253.128.458.327.61.607.153.28.281.659.358 1.142.128.758.1 1.294-.077 1.645l.51.507zm-1.172-1.09c-.052-.328-.076-.559-.1-.71a6.352 6.352 0 00-.205-.911.696.696 0 00-.253-.38c-.1-.075-.229-.1-.381-.1-.153.025-.253.129-.33.304-.076.176-.076.507.025 1.014.076.432.128.711.204.863a.653.653 0 00.23.327c.1.076.204.1.328.076.077 0 .129-.024.205-.076l-.61-.635.41-.379.477.607zm4.409-1.443c.152.356.152.683 0 .987-.129.303-.41.507-.791.658-.41.152-.763.176-1.044.052-.305-.127-.534-.379-.686-.786l-1.068-2.711.839-.328 1.02 2.584c.076.175.152.303.28.379.1.076.23.076.358.024.128-.052.205-.128.229-.252a.684.684 0 00-.053-.43l-1.043-2.612.839-.328 1.12 2.763zm3.996-1.09l-.739.483-.486-.455-.915.607.229.635-.739.483-1.3-4.128.762-.508 3.188 2.883zm-1.678-.483l-1.3-1.318.637 1.75.663-.432zm3.894-1.569l-1.425 1.342-2.878-3.015.662-.607 2.316 2.432.763-.735.562.583zm-2.596-3.37l.562-.71 3.26 2.61-.563.712-3.259-2.612zm2.852-2.812l-.41.683 2.903 1.721-.457.759-2.879-1.721-.433.71-.715-.407 1.3-2.18.691.435zm.382-3.191l1.859 1.673 1.73.635-.305.834-1.73-.635-2.573.204.329-.91 1.425-.052-1.068-.939.334-.81z" fill="#333"/><path d="M9.618 27.06A24.464 24.464 0 0126.863 5.221c10.036-3.09 20.529.531 26.642 8.31l3.717-1.143a4.74 4.74 0 00-3.87-3.725 4.778 4.778 0 01-3.616-2.915c-.867-2.18-3.207-3.394-5.503-2.887a4.82 4.82 0 01-4.484-1.317 4.789 4.789 0 00-6.19-.56 4.746 4.746 0 01-4.636.484 4.817 4.817 0 00-5.933 1.825 4.788 4.788 0 01-4.103 2.204c-2.344-.024-4.38 1.645-4.765 3.953a4.763 4.763 0 01-2.93 3.597 4.764 4.764 0 00-2.902 5.475 4.76 4.76 0 01-1.325 4.46 4.76 4.76 0 00-1.068 5.242l3.721-1.166zM27.654 7.83c8.534-2.636 17.498.251 23.001 6.588l1.3-.407C46.176 7.019 36.498 3.8 27.302 6.64c-9.22 2.839-15.358 10.944-16.15 19.964l1.301-.407A21.708 21.708 0 0127.654 7.829zM61.86 27.993c0-.024-.024-.024-.024-.052l-3.16.962C58.524 39.19 51.8 48.641 41.408 51.859c-10.417 3.218-21.344-.81-27.329-9.196l-3.159.963v.076a4.755 4.755 0 003.974 4.74 4.778 4.778 0 013.617 2.914c.867 2.18 3.207 3.394 5.503 2.887a4.82 4.82 0 014.484 1.318 4.789 4.789 0 006.19.559 4.747 4.747 0 014.636-.483c2.164.91 4.66.151 5.933-1.825a4.788 4.788 0 014.103-2.204c2.344.024 4.38-1.645 4.765-3.953a4.763 4.763 0 012.93-3.598 4.764 4.764 0 002.902-5.474 4.761 4.761 0 011.325-4.46c1.674-1.593 1.93-4.2.578-6.13zM40.95 50.465c9.602-2.963 15.868-11.628 16.225-21.079l-1.272.38a21.762 21.762 0 01-15.334 19.509c-8.94 2.763-18.313-.507-23.74-7.475l-1.273.38c5.704 7.63 15.792 11.251 25.394 8.285zM8.984 42.359l-.739-.863c-.228.887-.815 1.47-1.782 1.773-1.859.583-3.16-.327-3.922-2.735L.964 35.491c-.177-.56-.253-1.062-.23-1.493.025-.456.101-.835.254-1.114.152-.28.357-.532.61-.76.253-.227.51-.406.763-.506.228-.128.51-.228.79-.304a8.79 8.79 0 011.02-.227c.305-.052.586-.052.839 0s.458.1.662.175a1.6 1.6 0 01.562.38c.177.152.305.327.434.507.128.176.253.38.357.659.128.251.229.507.305.734.076.228.177.508.281.811l-2.469.759-.28-.91a1.445 1.445 0 00-.205-.432c-.077-.1-.153-.176-.253-.204-.077-.024-.153-.052-.229-.052-.076 0-.128.024-.205.024-.152.052-.253.1-.329.176-.076.076-.128.128-.177.204a.734.734 0 00-.024.355c.028.152.053.304.1.455.025.128.101.356.205.635l1.401 4.484c.053.176.1.304.153.431.052.1.128.228.205.356a.568.568 0 00.305.251c.128.052.253.024.41-.024.252-.075.409-.227.433-.455.024-.227-.024-.559-.177-1.014l-.41-1.342-.686.204-.638-2 3.131-.963 2.115 6.764-1.003.304zm1.296-3.774L7.608 30.05l2.521-.787 2.598 8.31s0 .023.024.051c.052.128.076.228.1.304.024.075.076.175.128.28.053.127.129.203.177.279.076.052.153.1.253.127.1.024.205.024.33 0a.755.755 0 00.252-.127c.076-.052.1-.128.128-.204.024-.076.024-.152.053-.228 0-.076 0-.175-.024-.28-.025-.099-.053-.203-.053-.25a1.643 1.643 0 01-.076-.252c0-.024-.024-.052-.024-.052l-2.597-8.31 2.52-.786 2.674 8.537c.33 1.038.33 1.924-.024 2.635-.33.71-1.044 1.218-2.115 1.545-1.096.328-1.963.328-2.65-.075-.678-.408-1.188-1.142-1.521-2.18zm9.884-12.417l4.917 11.224-2.497.759-.738-1.697-1.301.407.381 1.8-2.52.787-2.293-12.034 4.05-1.246zm-1.249 2.787l-.229.076 1.401 5.674.916-.28-2.088-5.47zm8.052 2.054l1.654 5.295-2.625.81-3.617-11.627 3.974-1.218c.41-.128.763-.176 1.096-.152.329.024.586.1.815.228.229.128.433.327.61.583.177.251.329.53.457.834.129.28.253.635.382 1.063.076.227.128.407.152.53.024.152.053.328.077.56.024.231 0 .43-.024.582a1.772 1.772 0 01-.253.532 2.443 2.443 0 01-.51.507c.253-.024.486 0 .662.052.205.075.357.175.486.327.128.152.229.303.28.431.077.152.13.304.206.483.61 1.925 1.043 3.394 1.324 4.385l-2.52.786-1.402-4.536a1.866 1.866 0 00-.176-.407.415.415 0 00-.281-.176.645.645 0 00-.305 0c-.133.028-.261.08-.462.128zm-1.276-4.18l.686 2.18.638-.204c.33-.1.41-.507.177-1.218-.153-.483-.305-.759-.486-.834-.176-.1-.457-.076-.891.052l-.124.023zm9.016-5.144l4.917 11.224-2.497.758-.739-1.697-1.3.408.381 1.8-2.52.787-2.293-12.035 4.05-1.245zm-1.245 2.787l-.229.075 1.401 5.674.916-.28-2.088-5.47zm9.832-5.418l3.616 11.628-2.52.786-3.108-5.422 1.81 5.825-2.52.787-3.617-11.627 2.65-.81 2.93 5.194-1.73-5.55 2.489-.81zm.938-.308L49.888 17l.687 2.228-1.53.483 2.93 9.375-2.572.787-2.93-9.375-1.53.483-.71-2.236zm10.217 9.604l-3.617-11.628 5.17-1.597.715 2.256-2.55.787.715 2.28 2.445-.76.686 2.181-2.444.759.815 2.659 2.673-.863.715 2.28-5.323 1.645zm6.473-2l-3.617-11.628 5.17-1.597.715 2.256-2.55.787.715 2.28 2.445-.76.686 2.181-2.445.759.815 2.659 2.702-.835.714 2.28-5.35 1.617z" fill="#E30D16"/><path d="M30.251 16.443l.944 1.014 1.348-.227-.662 1.19.638 1.217-1.349-.28-.967.987-.152-1.37-1.225-.607 1.249-.559.176-1.365zm4.097-.33l.662.711.968-.152-.486.835.458.862-.944-.175-.686.682-.129-.962-.867-.431.891-.407.133-.963zm-7.662 2.382l.662.71.968-.175-.486.862.457.835-.943-.176-.686.683-.129-.963-.867-.43.891-.408.133-.938zM37.585 39.93l-.943-1.014-1.349.251.662-1.19-.638-1.217 1.349.251.967-.962.153 1.341 1.224.607-1.248.583-.177 1.35zm-4.098.326l-.662-.711-.968.152.486-.835-.458-.862.968.203.662-.71.129.962.867.431-.891.407-.133.963zm7.666-2.356l-.662-.71-.968.151.486-.834-.458-.863.968.176.662-.683.129.962.867.432-.891.407-.133.962z" fill="#E30D16"/></svg>