<svg width="20" height="28" fill="none" xmlns="http://www.w3.org/2000/svg"><path d="M19.167 7.333h-3.334v-.834A5.84 5.84 0 0010 .666a5.84 5.84 0 00-5.833 5.833v.834H.833A.833.833 0 000 8.166v16.667c0 1.378 1.122 2.5 2.5 2.5h15c1.378 0 2.5-1.122 2.5-2.5V8.166a.833.833 0 00-.833-.833zM5.833 6.499A4.171 4.171 0 0110 2.333a4.171 4.171 0 014.167 4.166v.834H5.833v-.834zm12.5 18.334c0 .46-.373.833-.833.833h-15a.834.834 0 01-.833-.833V8.999h2.5v1.667a.833.833 0 001.666 0V8.999h8.334v1.667a.833.833 0 101.666 0V8.999h2.5v15.834z" fill="#333"/><path d="M13.427 13.758a.833.833 0 00-1.17.146l-5.833 7.5c-.429.551-.027 1.345.657 1.345.248 0 .494-.11.659-.322l5.833-7.5a.833.833 0 00-.146-1.169zm-.51 8.992a1.667 1.667 0 100-3.334 1.667 1.667 0 000 3.333zm-5.833-5.834a1.667 1.667 0 100-3.333 1.667 1.667 0 000 3.333z" fill="#333"/></svg>