<svg width="18" height="19" fill="none" xmlns="http://www.w3.org/2000/svg"><path d="M6.358 10.331a.408.408 0 00-.408-.408H4.524a.408.408 0 00-.409.408v1.426c0 .226.183.408.409.408H5.95a.409.409 0 00.408-.408V10.33zm3.562 0a.408.408 0 00-.408-.408H8.086a.408.408 0 00-.408.408v1.426c0 .226.183.408.408.408h1.426a.408.408 0 00.408-.408V10.33zm3.568 0a.408.408 0 00-.408-.408h-1.426a.408.408 0 00-.409.408v1.426c0 .226.183.408.409.408h1.426a.408.408 0 00.408-.408V10.33zm-7.13 3.565a.408.408 0 00-.408-.408H4.524a.408.408 0 00-.409.408v1.426c0 .225.183.408.409.408H5.95a.408.408 0 00.408-.408v-1.426zm3.562 0a.408.408 0 00-.408-.408H8.086a.408.408 0 00-.408.408v1.426c0 .225.183.408.408.408h1.426a.408.408 0 00.408-.408v-1.426zm3.568 0a.408.408 0 00-.408-.408h-1.426a.408.408 0 00-.409.408v1.426c0 .225.183.408.409.408h1.426a.408.408 0 00.408-.408v-1.426z" fill="#9F9F9F"/><path d="M16.037 2.405v2.178c0 .984-.799 1.777-1.783 1.777h-1.125a1.788 1.788 0 01-1.793-1.777V2.397H6.267v2.186c0 .984-.809 1.777-1.793 1.777H3.35a1.779 1.779 0 01-1.782-1.777V2.405A1.621 1.621 0 000 4.018V16.78c0 .891.722 1.623 1.614 1.623H15.99c.89 0 1.613-.733 1.613-1.623V4.018a1.62 1.62 0 00-1.567-1.613zm-.523 13.58a.698.698 0 01-.697.698H2.757a.698.698 0 01-.699-.698V9.393c0-.385.313-.698.698-.698h12.06c.386 0 .698.313.698.698v6.592z" fill="#9F9F9F"/><path d="M3.344 5.193h1.112a.611.611 0 00.612-.611v-3.57A.611.611 0 004.456.4H3.344a.611.611 0 00-.612.612v3.57c0 .337.274.61.612.61zm9.773 0h1.112a.611.611 0 00.612-.611v-3.57A.611.611 0 0014.23.4h-1.113a.611.611 0 00-.611.612v3.57c0 .337.274.61.611.61z" fill="#9F9F9F"/></svg>