<svg width="52" height="32" fill="none" xmlns="http://www.w3.org/2000/svg"><path fill="#EB0002" d="M1 8h50v4H1z"/><path d="M26.404 21.486l.807 5.79h1.986l3.698-7.17H30.81l-1.57 3.325c-.223.472-.415.9-.58 1.29a48.92 48.92 0 00-.103-1.21l-.32-3.404h-3.172l3.3 2.61-1.96-1.231zm7.916 5.789l1.36-7.168h-1.866l-1.362 7.168h1.869zm1.095-.42c.437.328 1.207.524 2.058.524 1.767 0 2.952-.998 2.952-2.482 0-.812-.474-1.456-1.446-1.966-.547-.305-.877-.51-.877-.77 0-.241.255-.502.856-.502a2.47 2.47 0 011.118.274l.213.117.597-1.598-.157-.086c-.445-.245-1-.366-1.693-.366-1.692 0-2.873.988-2.873 2.402 0 1.026.807 1.596 1.515 1.977.667.345.798.543.798.767 0 .43-.466.584-.864.584a2.97 2.97 0 01-1.484-.402l-.21-.126-.632 1.555.129.098zm6.811.421l.802-1.752h1.617l.14 1.752h1.94l-.84-7.17h-2.17l-3.49 7.17h2.001zm1.95-4.43c.074-.161.15-.343.226-.535l.036.468.111 1.226h-.907l.533-1.159z" fill="#333"/><path d="M52 31.83H0V0h52v31.83zM1.642 30.189h48.715V1.643H1.642v28.546z" fill="#EB0002"/></svg>