<svg width="39" height="26" fill="none" xmlns="http://www.w3.org/2000/svg"><path d="M31.826 5.14L19.5 16 7.173 5.14a1.184 1.184 0 00-1.566 1.776l13.111 11.551a1.182 1.182 0 001.566 0l13.108-11.55a1.185 1.185 0 00-1.566-1.777z" fill="#EB0002"/><path d="M34.978.106H4.022A3.556 3.556 0 00.47 3.66v18.789A3.556 3.556 0 004.022 26h30.956a3.556 3.556 0 003.552-3.552V3.658A3.557 3.557 0 0034.978.107zm1.184 22.342c0 .653-.531 1.184-1.184 1.184H4.022a1.185 1.185 0 01-1.184-1.184V3.658c0-.652.531-1.183 1.184-1.183h30.956c.653 0 1.184.531 1.184 1.184v18.789z" fill="#EB0002"/></svg>