<svg width="37" height="37" fill="none" xmlns="http://www.w3.org/2000/svg"><path d="M34.39 23.12a.93.93 0 00-.928.933v8.283a2.794 2.794 0 01-2.784 2.798H4.64a2.794 2.794 0 01-2.784-2.798V8.028A2.794 2.794 0 014.64 5.229h8.24a.93.93 0 00.927-.932.93.93 0 00-.928-.933H4.64C2.08 3.367.004 5.454 0 8.028v24.308C.003 34.911 2.079 36.997 4.64 37h26.038c2.562-.003 4.637-2.09 4.64-4.664v-8.282a.93.93 0 00-.928-.933z" fill="#333"/><path d="M34.716 1.209a4.128 4.128 0 00-5.838 0L12.512 17.574a.917.917 0 00-.236.404l-2.152 7.769a.917.917 0 001.13 1.129l7.769-2.152a.918.918 0 00.404-.236L35.793 8.123a4.132 4.132 0 000-5.838L34.716 1.21zM14.511 18.17L27.905 4.776l4.32 4.32L18.83 22.489l-4.32-4.319zm-.863 1.731l3.451 3.452-4.774 1.322 1.323-4.774zM34.496 6.826l-.973.973-4.32-4.32.973-.973a2.293 2.293 0 013.243 0l1.077 1.076a2.296 2.296 0 010 3.244z" fill="#333"/></svg>