<svg width="36" height="36" fill="none" xmlns="http://www.w3.org/2000/svg"><path d="M35.1 26.814l-4.352-4.351a3.08 3.08 0 00-4.352 0l-1.978 1.978a2.334 2.334 0 01-3.296 0l-8.573-8.58a2.33 2.33 0 010-3.297l1.977-1.978a3.075 3.075 0 000-4.353l-4.351-4.337a3.08 3.08 0 00-4.349-.003L4.241 3.465C-.085 7.79-.085 14.83 4.24 19.157l13.584 13.591a11.09 11.09 0 0015.692 0l1.582-1.582a3.08 3.08 0 000-4.352zM7.273 3.347c.4-.4 1.05-.4 1.452 0l4.35 4.338c.4.4.4 1.05 0 1.45l-.725.725-5.799-5.798.722-.715zm12.002 27.95L5.69 17.708a9.018 9.018 0 01-.565-12.17l5.781 5.78a4.378 4.378 0 00.19 5.994l8.574 8.58a4.378 4.378 0 005.993.191l5.781 5.782a9 9 0 01-12.17-.566zm14.373-1.582l-.725.726-5.802-5.803.725-.725c.4-.4 1.05-.4 1.45 0l4.352 4.352c.4.4.4 1.05 0 1.45z" fill="#EB0002"/></svg>