<svg width="32" height="41" fill="none" xmlns="http://www.w3.org/2000/svg"><path d="M16 .771C7.178.771 0 7.823 0 16.49c0 3.495.818 6.947 2.43 10.26 1.279 2.628 3.057 5.172 5.285 7.562 3.777 4.05 7.517 6.242 7.675 6.334L16 41l.61-.355c.158-.09 3.898-2.284 7.675-6.334 2.228-2.389 4.006-4.933 5.285-7.56C31.183 23.437 32 19.985 32 16.49 32 7.823 24.822.77 16 .77zM27.423 25.7c-1.169 2.411-2.804 4.756-4.86 6.97-2.676 2.88-5.385 4.793-6.564 5.564-1.17-.764-3.846-2.652-6.515-5.514-2.068-2.217-3.713-4.567-4.89-6.985C3.139 22.741 2.4 19.63 2.4 16.49 2.4 9.122 8.501 3.129 16 3.129c7.5 0 13.6 5.993 13.6 13.36 0 3.129-.732 6.227-2.177 9.21z" fill="#EB0002"/><path d="M21.256 15.638c0 2.812-2.326 5.122-5.232 5.122s-5.231-2.31-5.231-5.122 2.325-5.121 5.231-5.121c2.906 0 5.232 2.31 5.232 5.121z" stroke="#EB0002" stroke-width="2"/></svg>