<svg width="66" height="31" fill="none" xmlns="http://www.w3.org/2000/svg"><path d="M.042 18.498c.073.012.15.012.216.037.886.322 1.771.648 2.657.97.542.195 1.09.372 1.628.573.593.219 1.18.459 1.774.681.554.207 1.114.405 1.67.609.643.234 1.282.48 1.93.706.441.155.889.283 1.333.42.042.012.094-.003.13-.003-.048-.442-.109-.87-.14-1.3-.082-1.144-.027-2.285.299-3.387.228-.77.493-1.536.986-2.2.322-.432.618-.885.9-1.345.165-.268.271-.572.414-.852.125-.243.262-.484.4-.721.102-.18.221-.35.319-.533.02-.04 0-.136-.034-.167a40.387 40.387 0 00-1.193-.968c-.04-.03-.17-.003-.222.043-.255.22-.499.457-.752.685-.313.283-.702.356-1.098.325-.791-.067-1.58-.173-2.37-.261a5.903 5.903 0 00-.265-.03l.176 4.229c-.018 0-.036.003-.055.003l-.1-1.004c-.15-1.491-.301-2.98-.444-4.47-.025-.265-.125-.35-.402-.378-1.065-.11-2.127-.255-3.189-.386-.514-.064-1.032-.125-1.546-.192-.113-.015-.222-.042-.335-.064l.01-.07c.496.03.992.043 1.484.092a181.02 181.02 0 017.212.812c.481.064.953.176 1.428.265.642.121 1.135.493 1.567.952.328.347.328.371.666.107.773-.612 1.662-.785 2.617-.728.892.055 1.656.439 2.38.916.758.5 1.381 1.141 1.95 1.847.667.831 1.251 1.714 1.808 2.62.74 1.212 1.196 2.53 1.564 3.887.244.9.517 1.795.743 2.702a32.5 32.5 0 01.499 2.407c.11.66.146 1.33.213 1.996.04.414.036.42.44.493a55.31 55.31 0 005.15.685c3.651.295 7.306.194 10.958.222 1.78.012 3.542-.238 5.303-.454.59-.073 1.193-.057 1.775-.158a64.288 64.288 0 003.116-.642 55.773 55.773 0 002.431-.618c.788-.216 1.57-.456 2.352-.694.925-.28 1.85-.566 2.775-.855.454-.143.904-.304 1.355-.456.036-.012.076-.021.115-.034.013.025.028.046.04.07-.338.22-.67.448-1.017.655-.584.35-1.168.703-1.767 1.022-.396.21-.82.371-1.233.542-.587.237-1.18.465-1.77.694-.607.234-1.218.46-1.824.687-.563.213-1.117.448-1.686.636-.703.235-1.415.457-2.133.645-.63.165-1.269.31-1.91.405a60.684 60.684 0 01-3.239.402c-1.299.125-2.604.21-3.91.292-2.376.152-4.756.195-7.136.049-.894-.055-1.795-.046-2.687-.131-1.35-.128-2.696-.305-4.04-.472a47.89 47.89 0 01-2.286-.325c-.648-.113-1.287-.271-1.93-.411l-.882-.192c.365-.192.712-.326 1.004-.535a21.578 21.578 0 001.577-1.254c.146-.131.283-.387.267-.57-.088-.98-.073-1.977-.429-2.918-.02-.057-.088-.134-.14-.137-.703-.06-1.314-.34-1.88-.748-.533-.384-1.087-.743-1.513-1.26-.264-.322-.234-.651.128-.84.512-.264 1.029-.517 1.543-.776.058-.03.14-.054.167-.106.201-.369.393-.743.585-1.114-.025-.021-.046-.043-.07-.067-.299.107-.6.21-.898.317l-.015-.037c.2-.107.401-.22.605-.317.295-.143.344-.261.195-.526-.149-.262-.292-.283-.557-.125-.523.31-1.056.603-1.58.913-.306.183-.641.353-.888.603-.191.195-.3.496-.39.767a3.796 3.796 0 01-.876 1.49.538.538 0 00-.137.268c-.051.33-.094.66-.112.992-.015.232.04.47.018.7-.134 1.592-.28 3.186-.417 4.778-.015.176-.082.234-.268.231-1.046-.015-1.999-.316-2.906-.83a9.076 9.076 0 01-2.595-2.2c-.472-.585-.828-1.24-1.111-1.945-.593-1.488-.749-3.031-.62-4.604.06-.74.24-1.464.556-2.152.365-.794.816-1.533 1.412-2.163.578-.609 1.22-1.157 2.027-1.455.648-.24 1.287-.554 1.96-.666.86-.143 1.752-.177 2.601.167.177.07.368.095.554.14l.052-.06c-.305-.275-.615-.545-.913-.828-.706-.67-1.522-.679-2.386-.405-.453.143-.922.252-1.345.453-.508.244-.992.545-1.454.867a6.5 6.5 0 00-1.05.907c-.387.42-.74.877-1.056 1.351a7.46 7.46 0 00-.712 1.345c-.21.527-.35 1.08-.5 1.629-.276 1.028-.267 2.078-.127 3.119.082.599.268 1.186.42 1.777.094.365.2.724.316 1.08.092.286.201.563.301.846.025.067.034.14.028.237C8.54 23.1 4.494 20.476.006 18.626a.465.465 0 01.036-.128zm18.465-5.085c-.106 0-.216-.018-.316.003-.466.098-.931.195-1.39.314-.85.216-1.568.672-2.22 1.247-.492.436-1.012.846-1.32 1.452-.225.447-.468.886-.678 1.339-.32.681-.387 1.418-.399 2.154-.018 1.047-.027 2.094.405 3.086.058.134.1.198.25.134.666-.28 1.335-.56 2.005-.834.593-.243 1.19-.48 1.783-.724.542-.222 1.083-.45 1.622-.676a.53.53 0 00-.021-.064c-.098.012-.198.016-.293.034-.493.1-.983.207-1.473.313-.663.14-1.323.274-1.987.42-.164.037-.246-.027-.31-.173-.359-.837-.371-1.713-.25-2.59.037-.262-.054-.426-.179-.608-.174-.25-.34-.5-.511-.75l.052-.06c1.293.67 2.586 1.342 3.876 2.012-.237-.262-.499-.494-.757-.728a41.524 41.524 0 01-.77-.7c-.244-.228-.475-.468-.712-.703.02-.027.045-.051.067-.079 1.354 1.026 2.78 1.933 4.254 2.776a1.7 1.7 0 00-.204-.293c-.49-.59-1.017-1.15-1.455-1.774-.48-.684-.885-1.424-1.311-2.148-.052-.085-.055-.21-.055-.316.006-.4.28-.658.532-.904.506-.5 1.114-.843 1.765-1.16zm-5.675 10.81c.195.35.344.644.514.924.396.654.91 1.211 1.498 1.69a16.24 16.24 0 001.615 1.168c.42.261.886.456 1.346.645.212.088.462.085.702.128.238-2.155.469-4.264.7-6.373l-.091-.018c-.487 1.561-.97 3.122-1.467 4.714a44.461 44.461 0 00-.745-.432c-.642-.356-1.141-.858-1.558-1.455-.104-.146-.192-.362-.335-.414-.566-.198-1.15-.347-1.728-.508-.113-.03-.238-.036-.45-.07zm6.725-10.536c-.024.022-.051.043-.076.064.043.347.085.694.125 1.04.15 1.282.286 2.563.45 3.841.052.402.168.794.277 1.187.022.082.134.143.204.213.049-.098.125-.189.137-.292.119-.913.225-1.83.335-2.742.079-.657.155-1.315.602-1.85.107-.128.043-.195-.082-.271-.383-.231-.752-.487-1.135-.721-.274-.165-.557-.31-.837-.469zm-.535-.06c.009 2.053.377 4.053.873 6.034a48.52 48.52 0 00-.873-6.035z" fill="#333"/><path d="M10.519 6.35c.24.027.484.064.724.076.995.043 1.996.046 2.988.125 1.57.125 3.138.28 4.702.46 1.23.14 2.456.319 3.676.514 1.32.21 2.632.471 3.953.69.849.143 1.707.24 2.559.378.925.146 1.853.289 2.769.48.931.195 1.853.433 2.772.682.734.198 1.46.417 2.179.667.76.264 1.512.569 2.258.876.773.316 1.543.636 2.297.992a34.74 34.74 0 012.505 1.29c.514.299.974.697 1.451 1.056.153.113.259.29.156.457a.619.619 0 01-.38.258c-.336.061-.682.1-1.023.092-1.945-.04-3.89-.076-5.83-.15a7.206 7.206 0 01-2.155-.438c-.423-.152-.85-.298-1.27-.46a31.51 31.51 0 01-1.527-.623c-.654-.295-1.293-.615-1.941-.925-.466-.225-.928-.447-1.39-.679-.36-.18-.71-.365-1.066-.55-.645-.332-1.287-.664-1.932-.999-.548-.283-1.09-.578-1.637-.858-.682-.35-1.34-.745-2.076-.986-.8-.261-1.573-.602-2.37-.86a9.952 9.952 0 00-1.631-.39 79.698 79.698 0 00-3.612-.469A74.836 74.836 0 0012.36 6.8c-.71-.045-1.424-.042-2.136-.07-.734-.027-1.418.22-2.112.402-.99.259-1.829.834-2.714 1.312-.05.027-.104.042-.232.094.5-.882 1.084-1.622 1.692-2.428-.255-.037-.441-.076-.63-.089-.703-.045-1.406-.094-2.109-.124-.602-.028-1.183-.137-1.698-.457-.368-.228-.456-.356-.167-.788.53-.794 1.36-1.071 2.21-1.275.794-.192 1.606-.332 2.437-.28.478.03.846.29 1.183.584.131.116.217.286.314.442.076.121.027.197-.11.237a7.433 7.433 0 01-2.215.301c.53-.11 1.05-.207 1.567-.331.128-.03.295-.134.332-.244.027-.08-.104-.27-.21-.326-.301-.155-.618-.35-.943-.383-1.36-.137-2.65.13-3.813.876-.198.125-.344.335-.5.518-.106.128-.078.25.043.374.36.365.99.405 1.309.222.374-.216.776-.289 1.18-.295.56-.01 1.12.043 1.677.094.128.013.244.146.371.21.153.076.31.195.466.195.986-.006 1.972-.036 3.046-.064-.183-.517-.34-.968-.505-1.418-.049-.134-.128-.252-.186-.383-.112-.262-.283-.292-.465-.076-.17.2-.341.407-.512.611a.566.566 0 00-.057-.033c.11-.216.216-.432.328-.645a1.38 1.38 0 01.152-.229c.207-.261.271-.535.098-.846-.222-.398-.39-.836-.664-1.192C8.456.86 7.911.818 7.403.763 7.214.742 7.019.76 6.828.745A3.605 3.605 0 018.316.708c.386.073.66.31.815.636a63.56 63.56 0 011.126 2.505c.232.535.441 1.08.651 1.625.07.182.192.234.372.204.155-.028.316-.04.471-.064.189-.03.256-.143.195-.326-.1-.301-.195-.602-.304-.9-.198-.551-.402-1.096-.6-1.647-.009-.021 0-.049.049-.091.134.328.262.66.399.989.234.56.468 1.12.706 1.68.106.249.325.34.569.334.62-.015 1.238-.058 1.859-.076 1.582-.042 3.165-.082 4.75-.112 1.132-.022 2.261-.043 3.393-.04 3.846.006 7.696.021 11.542.033h.31c-.051-.124-.066-.225-.124-.283-.441-.444-.867-.91-1.348-1.311a14.465 14.465 0 00-1.656-1.196 27 27 0 00-2.148-1.16c-.493-.24-1.01-.438-1.53-.608a4.93 4.93 0 00-1.056-.192C21.637.212 16.506.398 11.38.395h-1.156c-.015 0-.028-.01-.046-.08.74-.051 1.479-.124 2.218-.151 1.65-.067 3.302-.174 4.951-.156 2.81.03 5.615.131 8.42.229.66.02 1.321.118 1.972.228.366.064.725.207 1.069.353.918.392 1.837.791 2.744 1.214.664.31 1.303.67 1.957 1.001.371.189.755.36 1.126.548.186.094.356.219.541.31.594.286 1.242.372 1.881.496.578.113 1.169.198 1.698.496.38.213.435.399.195.746-.012.018-.015.046-.03.097.38.055.748.104 1.116.165.956.16 1.914.325 2.87.493.74.13 1.482.264 2.218.413.557.113 1.108.25 1.659.387 1.153.286 2.306.563 3.45.876.722.198 1.43.454 2.14.7.374.131.74.295 1.107.447.043.019.076.055.146.107-.064.015-.094.03-.118.024-.375-.115-.746-.24-1.123-.35-.825-.24-1.65-.487-2.483-.7a66.962 66.962 0 00-2.882-.669 91.444 91.444 0 00-3.156-.587 75.46 75.46 0 00-2.976-.454 86.11 86.11 0 00-3.195-.347c-1.25-.115-2.504-.222-3.758-.3-2.568-.165-5.143-.174-7.717-.15-1.71.015-3.42-.003-5.13.021-2.666.037-5.329.076-7.995.156-.79.024-1.579.176-2.37.273-.07.01-.137.037-.207.055.003.015.003.04.003.064zm17.473 2.641a2.882 2.882 0 00-.018.076c.058.04.11.089.17.116.664.314 1.327.62 1.987.937.767.366 1.552.697 2.285 1.12.986.566 1.948 1.18 2.888 1.82.64.435 1.208.968 1.835 1.421.25.18.551.347.85.386 2.038.274 4.095.24 6.146.247.216 0 .438-.024.642-.085.234-.067.265-.268.07-.408a9.34 9.34 0 00-.83-.55 40.666 40.666 0 00-1.604-.865c-.676-.34-1.357-.67-2.048-.983-.508-.231-1.029-.432-1.546-.642-.517-.21-1.032-.432-1.555-.62a35.491 35.491 0 00-1.99-.661c-.846-.25-1.695-.514-2.56-.69-1.442-.3-2.893-.555-4.37-.616-.115-.006-.233-.003-.352-.003zm8.8 5.667c-.118-.14-.176-.247-.267-.31-.868-.606-1.726-1.221-2.611-1.793a22.85 22.85 0 00-2.03-1.178c-.843-.432-1.698-.858-2.58-1.193-1.02-.386-2.076-.69-3.123-.998-.316-.094-.663-.082-.998-.119l-.045.116c.079.067.149.152.24.198.396.195.8.371 1.196.566.627.307 1.247.627 1.871.94.73.368 1.461.734 2.188 1.105 1.032.526 2.048 1.08 3.092 1.576.742.353 1.518.64 2.288.934.226.082.484.095.78.155zm25.268.729c-.39.073-.78.152-1.169.223l-2.492.456c-.618.113-1.235.213-1.85.335a.434.434 0 00-.268.18 197.59 197.59 0 00-1.397 2.333c-.395.667-.788 1.333-1.174 2.002-.29.497-.57.999-.85 1.5-.033.062-.048.138-.078.235.447-.06.858-.122 1.272-.177.864-.112 1.728-.197 2.59-.334.675-.11 1.341-.265 2.008-.426.706-.17 1.408-.356 2.105-.56.8-.231 1.358-.764 1.729-1.497.24-.475.505-.94.712-1.43.295-.7.53-1.425.602-2.192.025-.264-.112-.468-.353-.575-.051-.02-.097-.051-.158-.085.371-.188.743.043.746.49.003.34-.046.685-.122 1.02-.256 1.14-.76 2.172-1.381 3.164-.636 1.02-1.577 1.57-2.688 1.88-.925.26-1.856.497-2.79.7-.733.159-1.479.287-2.224.372-1.181.134-2.365.268-3.549.313-.517.022-1.059-.13-1.567-.28-.575-.167-.855-.666-1.007-1.198-.237-.84-.405-1.695-.344-2.578.046-.675.24-1.281.773-1.728.143-.122.317-.226.496-.283 1.257-.39 2.535-.67 3.837-.865.414-.06.816-.194 1.227-.252 1.424-.207 2.848-.414 4.278-.581.937-.113 1.884-.162 2.827-.235.085-.006.174 0 .259 0a.296.296 0 000 .073z" fill="#333"/><path d="M38.354 17.942l-3.48.797c.632 1.847 1.244 3.63 1.868 5.456-.274-.045-.533-.091-.791-.134-.576-.1-1.154-.182-1.726-.304-1.062-.228-1.917-.822-2.58-1.658-.536-.676-1.014-1.4-1.491-2.121a6.337 6.337 0 01-.545-1.035c-.286-.682.085-1.521 1.037-1.5 1.08.027 2.161.03 3.241.073 1.297.052 2.593.128 3.89.2.197.013.395.083.59.128-.003.03-.006.064-.013.098z" fill="#E30D16"/><path d="M47.532 6.395c.758-.128 1.494-.073 2.225.003.897.094 1.795.2 2.69.34.584.092 1.165.229 1.734.39.648.186 1.287.41 1.923.64.384.136.694.343.968.696.344.441.816.803 1.281 1.123.67.462 1.376.873 2.085 1.275 1.043.59 2.081 1.217 3.243 1.546.713.2 1.203.648 1.629 1.193.298.38.389.86.465 1.332.192 1.2 0 2.35-.405 3.479-.027.079-.094.146-.115.18.091-.707.216-1.44.27-2.177.028-.359-.045-.733-.124-1.089-.052-.231-.207-.45-.487-.463-.743-.033-1.485-.076-2.227-.07-1.765.022-3.494.375-5.238.582-.97.115-1.932.304-2.9.456-.833.131-1.673.228-2.504.38-.688.128-1.372.29-2.045.494-.526.158-1.05.377-1.409.818-.188.231-.368.524-.41.81-.101.666-.116 1.348-.165 2.023-.006.107 0 .216 0 .323-.021.003-.042.003-.06.006-.022-.198-.065-.399-.059-.594.022-.648.016-1.305.11-1.944.064-.441.259-.883.675-1.129.369-.22.755-.43 1.16-.57 1.302-.45 2.666-.617 4.017-.848.84-.143 1.676-.31 2.52-.438.851-.128 1.71-.226 2.565-.335.715-.091 1.427-.198 2.142-.265 1.12-.106 2.24-.106 3.365-.033.66.042.713-.067.457-.676a2.403 2.403 0 00-.861-1.047c-.22-.152-.515-.185-.77-.289-.572-.228-1.154-.44-1.71-.703-.612-.283-1.23-.569-1.793-.934-.849-.55-1.664-1.16-2.47-1.774-.28-.213-.488-.52-.752-.758a1.643 1.643 0 00-.533-.31c-.636-.231-1.269-.475-1.92-.645a25.231 25.231 0 00-4.047-.724c-.84-.07-1.668-.177-2.52-.274z" fill="#333"/><path d="M43.093 24.222c-.688.286-1.345.028-1.558-.623a37.605 37.605 0 01-.676-2.307c-.264-1.02-.49-2.048-.745-3.067-.058-.226.015-.347.219-.393.17-.037.347-.058.52-.052 1.34.046 2.678.098 4.02.15.588.02 1.172.042 1.759.066.088.003.177.022.265.034l.018.064c-.08.04-.155.1-.24.112-.703.107-1.41.186-2.11.305-.714.121-1.435.23-2.108.532-.414.186-.508.435-.453.883.158 1.293.614 2.513.913 3.77.04.176.115.344.176.526z" fill="#E30D16"/><path d="M20.87 22.934c.35.32.67.633 1.013.922.64.539 1.294 1.062 1.942 1.592.036.03.085.051.13.07.168.066.162.18.074.298a4.7 4.7 0 01-1.157 1.092c-.6.405-1.269.621-1.935.864a1.15 1.15 0 01-.484.067c.11-.16.204-.331.332-.477.137-.159.161-.305.1-.505-.377-1.251-.258-2.514-.067-3.777.006-.04.028-.076.052-.146z" fill="#333"/><path d="M12.833 24.221c.21.034.338.04.453.073.579.161 1.163.307 1.729.508.143.049.231.265.335.414.413.597.915 1.099 1.558 1.455.246.137.486.28.745.432.496-1.592.983-3.153 1.467-4.714l.091.018c-.231 2.11-.462 4.218-.7 6.372-.24-.04-.49-.04-.703-.127-.46-.189-.928-.38-1.345-.645a16.044 16.044 0 01-1.616-1.169 6.568 6.568 0 01-1.497-1.689c-.173-.283-.322-.575-.517-.928zm6.725-10.535c.28.155.566.304.836.472.384.234.752.49 1.135.72.125.077.19.144.083.272-.45.535-.527 1.193-.603 1.85-.11.913-.216 1.829-.335 2.742-.012.1-.091.194-.137.292-.07-.07-.18-.131-.203-.213-.107-.393-.226-.785-.277-1.187-.165-1.278-.302-2.56-.45-3.84-.04-.347-.083-.694-.126-1.041a.796.796 0 01.076-.067zm-.535-.061a48.6 48.6 0 01.873 6.034c-.493-1.984-.864-3.983-.873-6.034z" fill="#fff"/><path d="M42.694 14.005c-1.084-.481-2.17-.962-3.302-1.467.058.176.1.298.137.414-.049.03-.07.048-.076.045-.238-.146-.46-.173-.679.046-.04.04-.152.04-.216.015-.259-.097-.48-.115-.575.21-.231-.106-.441-.2-.651-.298.243-.91.057-1.449-.548-1.567-.71-.14-1.141.25-1.25 1.162-.558-.283-1.102-.563-1.68-.858.255 0 .474.027.681-.009.158-.027.341-.11.432-.228.052-.067-.024-.292-.11-.39-.237-.27-.51-.514-.806-.803 3.104.77 5.946 2.081 8.691 3.624-.012.037-.03.07-.048.104z" fill="#333"/><path d="M14.558 12.05a.128.128 0 00-.037-.066 40.192 40.192 0 00-1.193-.968c-.04-.03-.17-.003-.222.043-.255.219-.499.456-.751.684-.314.283-.703.356-1.099.326-.791-.067-1.58-.174-2.37-.262-.073-.009-.146-.018-.265-.03.06 1.427.119 2.827.176 4.23l-.054.003-.1-1.005c-.15-1.49-.302-2.979-.445-4.47-.024-.264-.125-.35-.402-.377-1.065-.11-2.127-.256-3.189-.387-.514-.064-1.031-.124-1.546-.191-.112-.016-.222-.043-.334-.064l.009-.07c.496.03.992.042 1.485.091a181.012 181.012 0 017.212.813c.48.064.952.176 1.427.264.642.122 1.135.493 1.567.953.192.204.27.298.374.286l-.243.198z" fill="#E30D16"/></svg>