<svg width="27" height="26" fill="none" xmlns="http://www.w3.org/2000/svg"><path d="M18.655.35H8.391C4.22.35.826 3.743.826 7.915v10.264c0 4.171 3.394 7.565 7.565 7.565h10.264c4.172 0 7.565-3.394 7.565-7.565V7.915c0-4.172-3.393-7.565-7.565-7.565zm5.01 17.829a5.01 5.01 0 01-5.01 5.01H8.391a5.01 5.01 0 01-5.01-5.01V7.915a5.01 5.01 0 015.01-5.01h10.264a5.01 5.01 0 015.01 5.01v10.264z" fill="url(#paint0_linear)"/><path d="M13.523 6.479a6.575 6.575 0 00-6.568 6.567 6.575 6.575 0 006.568 6.568 6.575 6.575 0 006.568-6.568 6.575 6.575 0 00-6.568-6.567zm0 10.58a4.013 4.013 0 110-8.026 4.013 4.013 0 010 8.027z" fill="url(#paint1_linear)"/><path d="M20.105 8.102a1.574 1.574 0 100-3.148 1.574 1.574 0 000 3.148z" fill="url(#paint2_linear)"/><defs><linearGradient id="paint0_linear" x1="13.523" y1="25.67" x2="13.523" y2=".547" gradientUnits="userSpaceOnUse"><stop stop-color="#E09B3D"/><stop offset=".3" stop-color="#C74C4D"/><stop offset=".6" stop-color="#C21975"/><stop offset="1" stop-color="#7024C4"/></linearGradient><linearGradient id="paint1_linear" x1="13.523" y1="25.669" x2="13.523" y2=".547" gradientUnits="userSpaceOnUse"><stop stop-color="#E09B3D"/><stop offset=".3" stop-color="#C74C4D"/><stop offset=".6" stop-color="#C21975"/><stop offset="1" stop-color="#7024C4"/></linearGradient><linearGradient id="paint2_linear" x1="20.105" y1="25.669" x2="20.105" y2=".547" gradientUnits="userSpaceOnUse"><stop stop-color="#E09B3D"/><stop offset=".3" stop-color="#C74C4D"/><stop offset=".6" stop-color="#C21975"/><stop offset="1" stop-color="#7024C4"/></linearGradient></defs></svg>