<svg width="40" height="40" fill="none" xmlns="http://www.w3.org/2000/svg"><path d="M38.335 18.335c-.923 0-1.666.742-1.666 1.665 0 9.192-7.477 16.67-16.669 16.67S3.33 29.191 3.33 20c0-9.192 7.478-16.67 16.67-16.67a16.58 16.58 0 0112.825 6.017h-5.756c-.922 0-1.665.743-1.665 1.665 0 .923.743 1.665 1.665 1.665h9.356c.922 0 1.665-.742 1.665-1.665V1.665C38.09.743 37.347 0 36.424 0c-.922 0-1.665.743-1.665 1.665v4.817A19.94 19.94 0 0020 0C8.971 0 0 8.971 0 20s8.971 20 20 20 20-8.971 20-20c0-.922-.743-1.665-1.665-1.665z" fill="#EB0002"/></svg>