<svg width="20" height="13" fill="none" xmlns="http://www.w3.org/2000/svg"><path fill-rule="evenodd" clip-rule="evenodd" d="M.444 7.044a11.517 11.517 0 004.1 4.002c1.717 1.015 3.533 1.522 5.445 1.522 1.913 0 3.728-.507 5.446-1.503 1.717-1.015 3.083-2.343 4.098-4.02.137-.255.215-.509.215-.743a1.6 1.6 0 00-.215-.76 11.507 11.507 0 00-4.098-4.002C13.717.525 11.902.018 9.989.018 8.077.018 6.26.525 4.544 1.54a11.517 11.517 0 00-4.1 4.002 1.607 1.607 0 00-.214.76c0 .234.078.488.214.742zm5.33-4.606a4.75 4.75 0 00-.664 2.46c0 1.346.468 2.497 1.424 3.454.956.957 2.109 1.425 3.455 1.425 1.347 0 2.498-.468 3.435-1.425.957-.957 1.445-2.108 1.445-3.455a4.95 4.95 0 00-.664-2.459c1.66.86 3.045 2.147 4.138 3.864-.957 1.484-2.166 2.674-3.63 3.553a8.95 8.95 0 01-4.724 1.327c-1.698 0-3.279-.45-4.743-1.327-1.444-.879-2.655-2.07-3.63-3.553 1.113-1.717 2.498-3.005 4.157-3.864zm1.873.117c.644-.644 1.424-.976 2.342-.976.137 0 .254.06.371.156a.486.486 0 01.137.37.52.52 0 01-.137.372.571.571 0 01-.371.156c-.625 0-1.17.215-1.6.664a2.166 2.166 0 00-.664 1.6.532.532 0 01-.527.527.502.502 0 01-.371-.155.502.502 0 01-.156-.372c0-.917.332-1.698.976-2.342z" fill="#BEBEBE"/></svg>