<svg width="32" height="30" fill="none" xmlns="http://www.w3.org/2000/svg"><path d="M11.25 21.821a3.909 3.909 0 00-3.904 3.905 3.909 3.909 0 003.904 3.904 3.909 3.909 0 003.905-3.904 3.909 3.909 0 00-3.905-3.905zm0 5.578c-.922 0-1.673-.75-1.673-1.673s.75-1.674 1.673-1.674 1.674.751 1.674 1.674c0 .922-.751 1.673-1.674 1.673zm12.496-5.578a3.909 3.909 0 00-3.904 3.905 3.909 3.909 0 003.904 3.904 3.909 3.909 0 003.905-3.904 3.909 3.909 0 00-3.905-3.905zm0 5.578c-.922 0-1.673-.75-1.673-1.673s.75-1.674 1.673-1.674 1.674.751 1.674 1.674c0 .922-.751 1.673-1.674 1.673zm7.139-20.861a1.115 1.115 0 011.082 1.385l-2.789 11.23c-.123.497-.57.846-1.082.846H8.276c-.526 0-.98-.367-1.09-.88L3.694 2.893H1.36a1.116 1.116 0 110-2.23h3.235c.526 0 .98.366 1.09.88L6.76 6.538l.48 2.231 1.937 9h18.047l2.235-9H27.53a1.115 1.115 0 110-2.23h3.355z" fill="#fff"/><path d="M17.5 1.846c-.828 0-1.5.828-1.5 1.85v7.767c0 1.021.672 1.85 1.5 1.85s1.5-.829 1.5-1.85V3.695c0-1.021-.671-1.85-1.5-1.85z" fill="#fff"/><path d="M21.151 6h-7.706c-1.021 0-1.85.672-1.85 1.5s.829 1.5 1.85 1.5h7.706c1.022 0 1.85-.672 1.85-1.5S22.173 6 21.15 6z" fill="#fff"/></svg>