<svg width="21" height="21" fill="none" xmlns="http://www.w3.org/2000/svg"><path d="M15.205 0h-9.41A5.802 5.802 0 000 5.795v9.41C0 18.4 2.6 21 5.795 21h9.41C18.4 21 21 18.4 21 15.205v-9.41C21 2.6 18.4 0 15.205 0zm3.932 15.205a3.937 3.937 0 01-3.932 3.932h-9.41a3.936 3.936 0 01-3.932-3.932v-9.41a3.936 3.936 0 013.932-3.932h9.41a3.937 3.937 0 013.932 3.932v9.41z" fill="#B64B9F"/><path d="M10.497 5.09a5.417 5.417 0 00-5.411 5.41 5.417 5.417 0 005.411 5.411 5.417 5.417 0 005.411-5.41 5.417 5.417 0 00-5.41-5.412zm0 8.958A3.552 3.552 0 016.95 10.5a3.552 3.552 0 013.548-3.548 3.552 3.552 0 013.548 3.548 3.552 3.552 0 01-3.548 3.548zM16.14 3.51a1.372 1.372 0 00-1.367 1.366c0 .359.146.711.401.966.254.253.606.4.965.4.36 0 .712-.147.967-.4.254-.255.4-.607.4-.966 0-.36-.146-.713-.4-.967a1.372 1.372 0 00-.967-.4z" fill="#B64B9F"/></svg>