<svg width="21" height="21" fill="none" xmlns="http://www.w3.org/2000/svg"><path d="M18.17 0H2.83A2.83 2.83 0 000 2.83v15.34A2.83 2.83 0 002.83 21h7.566l.012-7.504h-1.95a.46.46 0 01-.46-.459l-.008-2.419a.46.46 0 01.46-.461h1.946V7.819c0-2.712 1.656-4.189 4.076-4.189h1.985a.46.46 0 01.46.46v2.04a.46.46 0 01-.46.46H15.24c-1.316 0-1.57.626-1.57 1.543v2.024h2.89c.276 0 .49.24.458.514l-.287 2.419a.46.46 0 01-.457.406h-2.592L13.67 21h4.501A2.83 2.83 0 0021 18.17V2.83A2.83 2.83 0 0018.17 0z" fill="#03A9F4"/></svg>