<svg width="14" height="14" viewBox="0 0 14 14" fill="none" xmlns="http://www.w3.org/2000/svg">
<path d="M6.4101 3.9099L3.62327 0.176557C3.4482 -0.0586082 3.05538 -0.0586082 2.88031 0.176557L0.0934739 3.9099C-0.135632 4.21615 0.0824815 4.65636 0.464955 4.65636H1.85839V13.523C1.85839 13.7809 2.06613 13.9897 2.32285 13.9897H4.18072C4.43745 13.9897 4.639 13.7809 4.639 13.523V4.65636H6.03859C6.42141 4.65636 6.63896 4.21584 6.4101 3.9099Z" fill="#A8A8A8"/>
<path d="M12.5406 9.33332H11.141V0.46666C11.141 0.208721 10.9394 0 10.6827 0H8.82481C8.56809 0 8.36035 0.208721 8.36035 0.46666V9.33328H6.96691C6.58441 9.33328 6.36633 9.7735 6.59543 10.0798L9.3823 13.8131C9.56774 14.0622 9.94009 14.0618 10.1253 13.8131L12.9121 10.0798C13.141 9.77384 12.9234 9.33332 12.5406 9.33332Z" fill="#A8A8A8"/>
</svg>
