<svg width="30" height="25" fill="none" xmlns="http://www.w3.org/2000/svg"><path d="M29.238.76c-.355-.433-.886-.672-1.496-.672-.331 0-.682.07-1.043.208L2.133 9.673c-1.304.498-1.48 1.244-1.468 1.645.01.401.228 1.136 1.558 1.56l.024.007 5.096 1.458 2.756 7.88c.376 1.075 1.219 1.742 2.201 1.742.62 0 1.228-.26 1.762-.75l3.152-2.902 4.571 3.68.002.002.043.035.012.01c.509.393 1.063.602 1.605.602 1.059 0 1.902-.784 2.147-1.996L29.62 2.77c.162-.797.026-1.511-.381-2.01zM9.048 14.066l9.83-5.022-6.12 6.504a.849.849 0 00-.207.379l-1.18 4.781-2.323-6.642zm3.862 7.898c-.041.037-.082.07-.123.101l1.095-4.435 1.992 1.604-2.964 2.73zM27.953 2.433l-4.025 19.875c-.04.19-.163.633-.481.633-.157 0-.355-.086-.557-.241l-5.18-4.171-.003-.002-3.082-2.482 8.852-9.407a.85.85 0 00-1.005-1.34l-14.56 7.439-5.165-1.478 24.558-9.375a1.26 1.26 0 01.437-.096c.052 0 .145.007.18.049.044.055.102.243.03.596z" fill="#039BE5"/></svg>