<svg width="28" height="29" fill="none" xmlns="http://www.w3.org/2000/svg"><path d="M24.784 3.244C22.49.997 18.785-.092 13.767.006c-5.06.1-8.444.988-10.646 2.795C.991 4.55 0 7.106 0 10.85v3.82c0 4.419 2.368 9.277 6.893 10.012A.958.958 0 107.2 22.79c-3.432-.558-5.284-4.6-5.284-8.12v-3.82c0-5.367 1.99-8.732 11.888-8.927 4.488-.089 7.727.817 9.638 2.69 1.49 1.46 2.213 3.5 2.213 6.237v3.82c0 5.785-2.596 8.336-9.256 9.087h-4.722a.958.958 0 00-.677.28l-3.327 3.328a.958.958 0 001.355 1.355l3.046-3.046h4.38c.034 0 .07-.002.105-.006 3.81-.423 6.42-1.415 8.212-3.122 1.885-1.794 2.8-4.37 2.8-7.876v-3.82c0-3.232-.937-5.79-2.787-7.605z" fill="#8E24AA"/><path d="M14.384 6.259c1.545 0 2.996.601 4.088 1.693a5.743 5.743 0 011.693 4.088.958.958 0 001.916 0 7.64 7.64 0 00-2.254-5.443 7.646 7.646 0 00-5.443-2.255.958.958 0 100 1.917z" fill="#8E24AA"/><path d="M14.384 9.629a2.415 2.415 0 012.412 2.412.958.958 0 101.916 0 4.334 4.334 0 00-4.328-4.329.958.958 0 000 1.917zM10.09 11.27a.958.958 0 001.081 1.583c.344-.235 1.149-.785 1.092-1.885-.036-.658-.63-1.598-1.121-2.27-.72-.985-1.34-1.578-1.839-1.761a2.124 2.124 0 00-1.45-.011c-1.029.346-1.776.973-2.16 1.81-.374.817-.365 1.754.025 2.713.92 2.259 2.21 4.236 3.84 5.886 1.64 1.621 3.617 2.91 5.877 3.831.489.2.973.299 1.438.299.446 0 .874-.092 1.274-.275.838-.384 1.464-1.13 1.81-2.16a2.122 2.122 0 00-.01-1.446c-.184-.503-.777-1.123-1.76-1.842-.674-.492-1.613-1.086-2.274-1.122-1.098-.055-1.647.748-1.882 1.092a.958.958 0 001.582 1.082c.104-.153.163-.222.198-.252.538.172 2.071 1.3 2.347 1.731.007.028.009.07-.017.146-.12.36-.356.829-.793 1.029-.409.187-.873.072-1.19-.057-2.025-.825-3.792-1.976-5.246-3.411-1.444-1.462-2.594-3.23-3.42-5.254-.129-.317-.243-.782-.056-1.19.2-.437.67-.673 1.027-.793.077-.026.119-.024.148-.017.432.276 1.558 1.81 1.73 2.347-.03.034-.099.093-.251.198z" fill="#8E24AA"/></svg>