<svg width="25" height="16" fill="none" xmlns="http://www.w3.org/2000/svg"><path d="M12.481.8C7.865.8 3.68 3.324.591 7.425a.956.956 0 000 1.142c3.089 4.106 7.274 6.631 11.89 6.631 4.615 0 8.801-2.525 11.89-6.626a.956.956 0 000-1.142C21.282 3.325 17.097.799 12.48.799zm.331 12.27a5.084 5.084 0 01-5.401-5.402c.158-2.53 2.209-4.58 4.739-4.739a5.084 5.084 0 015.4 5.401c-.163 2.526-2.214 4.576-4.739 4.74zm-.153-2.343a2.731 2.731 0 01-2.906-2.906 2.747 2.747 0 012.555-2.554 2.731 2.731 0 012.906 2.905 2.747 2.747 0 01-2.555 2.555z" fill="#9F9F9F"/></svg>