<svg width="26" height="26" fill="none" xmlns="http://www.w3.org/2000/svg"><path d="M22.307 3.693A12.525 12.525 0 0013.392 0h-.002c-1.665 0-3.289.323-4.824.959a12.546 12.546 0 00-4.09 2.734 12.526 12.526 0 00-3.693 8.915c0 2.009.485 4.005 1.403 5.783l-2.12 6.055c-.149.427-.043.89.277 1.21a1.158 1.158 0 001.211.277l6.055-2.119a12.645 12.645 0 005.783 1.403c3.367 0 6.534-1.311 8.915-3.693A12.526 12.526 0 0026 12.61c0-3.368-1.311-6.535-3.693-8.916zM21.23 20.446a11.01 11.01 0 01-7.837 3.246c-1.811 0-3.61-.448-5.204-1.296a1.175 1.175 0 00-.936-.072l-5.5 1.925 1.924-5.5c.108-.308.081-.65-.072-.938a11.111 11.111 0 01-1.296-5.203c0-2.96 1.153-5.743 3.246-7.837a11.012 11.012 0 017.837-3.246A11.01 11.01 0 0121.23 4.77a11.01 11.01 0 013.246 7.837 11.01 11.01 0 01-3.246 7.838z" fill="#57AD68"/><path d="M18.077 13.733a1.49 1.49 0 00-2.104 0l-.634.634a9.234 9.234 0 01-3.708-3.708l.634-.634a1.49 1.49 0 000-2.104l-1.71-1.71a1.49 1.49 0 00-2.103 0L7.084 7.58c-.783.783-.822 2.13-.11 3.792.619 1.443 1.75 3.03 3.187 4.466 1.437 1.437 3.023 2.569 4.466 3.187.79.338 1.508.507 2.129.507.686 0 1.252-.206 1.663-.617l1.368-1.368c.28-.28.436-.654.436-1.051 0-.398-.155-.772-.436-1.052l-1.71-1.71zm-.736 4.103c-.224.223-.911.302-2.113-.213-1.27-.544-2.686-1.561-3.989-2.864-1.302-1.303-2.32-2.72-2.863-3.989-.515-1.201-.437-1.89-.214-2.113l1.342-1.341 1.657 1.657-.795.794a1.164 1.164 0 00-.215 1.355 10.758 10.758 0 004.725 4.725c.452.23.996.144 1.355-.215l.794-.794 1.657 1.657-1.341 1.34z" fill="#57AD68"/></svg>