<svg width="33" height="34" fill="none" xmlns="http://www.w3.org/2000/svg"><path d="M17.717 12.924h-3.796V9.127a.633.633 0 00-1.265 0v3.797H8.859a.633.633 0 000 1.265h3.797v3.796a.633.633 0 001.265 0V14.19h3.796a.633.633 0 000-1.265z" fill="#BEBEBE"/><path d="M32.092 32.71l-9.402-9.777a13.245 13.245 0 003.884-9.377C26.574 6.23 20.614.27 13.287.27 5.96.27 0 6.23 0 13.557c0 7.326 5.96 13.286 13.287 13.286 3.216 0 6.168-1.15 8.468-3.057l9.425 9.802a.631.631 0 10.912-.877zM1.265 13.557c0-6.628 5.393-12.021 12.022-12.021 6.629 0 12.022 5.393 12.022 12.021 0 6.63-5.393 12.022-12.022 12.022-6.629 0-12.022-5.392-12.022-12.021z" fill="#BEBEBE"/></svg>