<svg width="29" height="37" fill="none" xmlns="http://www.w3.org/2000/svg"><path fill-rule="evenodd" clip-rule="evenodd" d="M28.594 31.283L26.619 8.59a.958.958 0 00-.945-.885h-4.061C21.556 3.918 18.523.86 14.8.86S8.045 3.92 7.988 7.704H3.927a.953.953 0 00-.945.885L1.007 31.283a.357.357 0 01-.003.043.355.355 0 00-.004.044c0 2.583 2.32 4.685 5.176 4.685h17.249c2.856 0 5.176-2.102 5.176-4.685 0-.03 0-.058-.007-.087zM14.8 2.803c2.673 0 4.852 2.188 4.909 4.901H9.892c.057-2.713 2.236-4.902 4.909-4.902zM6.176 34.111h17.249c1.784 0 3.244-1.21 3.272-2.7L24.8 9.656h-3.187v2.95c0 .54-.424.972-.952.972a.958.958 0 01-.952-.972v-2.95H9.885v2.95c0 .54-.423.972-.952.972a.958.958 0 01-.952-.972v-2.95H4.794l-1.89 21.758c.028 1.49 1.481 2.699 3.272 2.699z" fill="#333"/><path d="M26.62 8.59l-.15.012.15-.013zm1.974 22.693l-.15.013.001.012.003.01.146-.035zM21.612 7.704l-.15.002.003.148h.148v-.15zm-13.624 0v.15h.148l.002-.148-.15-.002zm-5.006.885l.149.013-.15-.013zM1.007 31.283l-.15-.013v.013h.15zm-.003.043l-.15-.018.15.018zM19.709 7.704v.15h.153l-.003-.153-.15.003zm-9.817 0l-.15-.003-.003.153h.153v-.15zm16.805 23.709l.15.003V31.4l-.15.013zM24.8 9.655l.15-.013-.012-.137H24.8v.15zm-3.187 0v-.15h-.15v.15h.15zm-1.904 0h.15v-.15h-.15v.15zm-9.824 0v-.15h-.15v.15h.15zm-1.904 0h.15v-.15h-.15v.15zm-3.187 0v-.15h-.137l-.012.137.15.013zm-1.89 21.758l-.15-.013v.016l.15-.003zM26.47 8.603l1.974 22.693.3-.026-1.975-22.694-.3.026zm-.796-.749c.407 0 .76.32.796.748l.299-.025a1.108 1.108 0 00-1.095-1.023v.3zm-4.061 0h4.061v-.3h-4.061v.3zM14.8 1.01c3.639 0 6.607 2.99 6.662 6.697l.3-.004C21.706 3.837 18.61.709 14.8.709v.3zM8.138 7.706C8.194 4 11.162 1.01 14.8 1.01v-.3c-3.808 0-6.904 3.128-6.962 6.993l.3.004zm-4.211.148h4.061v-.3H3.927v.3zm-.796.748a.803.803 0 01.796-.748v-.3c-.574 0-1.046.444-1.095 1.023l.299.025zM1.156 31.296L3.131 8.602l-.299-.026L.858 31.27l.298.026zm-.004.049a.428.428 0 00.005-.062h-.3l-.002.025.297.037zm-.002.025l.002-.025-.297-.037a.428.428 0 00-.005.062h.3zm5.026 4.535c-2.787 0-5.026-2.048-5.026-4.535h-.3c0 2.68 2.402 4.835 5.326 4.835v-.3zm17.249 0H6.176v.3h17.249v-.3zm5.026-4.535c0 2.487-2.239 4.535-5.026 4.535v.3c2.924 0 5.326-2.155 5.326-4.835h-.3zm-.003-.051c.002.008.003.02.003.05h.3c0-.026 0-.072-.012-.121l-.29.07zM19.858 7.7c-.058-2.792-2.3-5.049-5.058-5.049v.3c2.589 0 4.704 2.12 4.759 4.755l.3-.006zm-9.966.153h9.817v-.3H9.892v.3zm4.909-5.202c-2.758 0-5 2.257-5.059 5.049l.3.006c.055-2.635 2.17-4.755 4.758-4.755v-.3zm8.624 31.31H6.176v.3h17.249v-.3zm3.122-2.552c-.026 1.385-1.395 2.552-3.122 2.552v.3c1.84 0 3.392-1.252 3.422-2.846l-.3-.006zM24.651 9.668l1.897 21.758.299-.026-1.898-21.758-.298.026zm-3.038.137H24.8v-.3h-3.187v.3zm.15 2.8v-2.95h-.3v2.95h.3zm-1.102 1.122c.614 0 1.102-.502 1.102-1.122h-.3c0 .46-.36.822-.802.822v.3zm-1.102-1.122c0 .62.487 1.122 1.102 1.122v-.3a.808.808 0 01-.802-.822h-.3zm0-2.95v2.95h.3v-2.95h-.3zm-9.674.15h9.824v-.3H9.885v.3zm.15 2.8v-2.95h-.3v2.95h.3zm-1.102 1.122c.615 0 1.103-.502 1.103-1.122h-.3a.81.81 0 01-.803.822v.3zm-1.102-1.122c0 .62.488 1.122 1.102 1.122v-.3a.808.808 0 01-.802-.822h-.3zm0-2.95v2.95h.3v-2.95h-.3zm-3.037.15h3.187v-.3H4.794v.3zm-1.74 21.62l1.89-21.757-.3-.026L2.755 31.4l.3.026zm3.122 2.537c-1.734 0-3.096-1.167-3.122-2.552l-.3.006c.03 1.594 1.574 2.846 3.422 2.846v-.3z" fill="#333"/></svg>