<svg width="36" height="34" fill="none" xmlns="http://www.w3.org/2000/svg"><path d="M33.133 4.067C31.37 2.025 28.924.9 26.247.9c-3.766 0-6.15 2.295-7.487 4.221-.347.5-.642 1.001-.89 1.473a14.026 14.026 0 00-.89-1.473C15.645 3.196 13.26.901 9.495.901 6.816.9 4.37 2.025 2.608 4.067.926 6.014 0 8.623 0 11.41c0 3.035 1.161 5.859 3.654 8.885 2.228 2.704 5.433 5.492 9.145 8.72a433.035 433.035 0 014.336 3.807l.046.04a1.032 1.032 0 001.379 0l.046-.04c1.522-1.36 2.953-2.604 4.336-3.807 3.711-3.228 6.916-6.016 9.145-8.72 2.492-3.026 3.653-5.85 3.653-8.885 0-2.788-.926-5.397-2.607-7.344zm-11.55 23.322a487.962 487.962 0 00-3.713 3.253 479.451 479.451 0 00-3.713-3.253C6.893 21.071 2.094 16.898 2.094 11.411c0-2.268.74-4.374 2.085-5.931 1.36-1.575 3.247-2.442 5.315-2.442 2.87 0 4.726 1.806 5.778 3.32a12.78 12.78 0 011.603 3.253c.14.44.542.738.995.738.454 0 .855-.298.996-.738.168-.525.66-1.895 1.603-3.253 1.051-1.514 2.907-3.32 5.778-3.32 2.068 0 3.955.867 5.315 2.442 1.344 1.557 2.084 3.663 2.084 5.931 0 5.487-4.799 9.66-12.063 15.978z" fill="#333"/></svg>