<svg width="104" height="64" viewBox="0 0 104 64" fill="none" xmlns="http://www.w3.org/2000/svg">
<line x1="1.5" y1="45.4131" x2="103.5" y2="45.4131" stroke="#EB0002" stroke-linecap="round" stroke-linejoin="round"/>
<path d="M5.6409 60.585C6.83662 60.585 7.84425 60.0746 8.40852 59.1107L7.69646 58.6004C7.2128 59.3517 6.46044 59.6919 5.6409 59.6919C4.09587 59.6919 2.96732 58.5436 2.96732 56.7858C2.96732 55.0422 4.09587 53.8798 5.6409 53.8798C6.46044 53.8798 7.2128 54.2342 7.69646 54.9855L8.40852 54.4752C7.84425 53.497 6.83662 53.0009 5.6409 53.0009C3.5316 53.0009 2 54.5602 2 56.7858C2 59.0114 3.5316 60.585 5.6409 60.585Z" fill="#818181"/>
<path d="M13.778 53.0009C12.5823 53.0009 11.6553 53.497 11.1313 54.3618V49.9956H10.1774V60.5141H11.1313V56.6016C11.1313 54.9005 12.0852 53.9081 13.6034 53.9081C14.9469 53.9081 15.7261 54.7162 15.7261 56.2897V60.5141H16.68V56.1905C16.68 54.0499 15.4977 53.0009 13.778 53.0009Z" fill="#818181"/>
<path d="M19.7534 51.4274C20.1564 51.4274 20.452 51.1013 20.452 50.6902C20.452 50.3075 20.143 49.9956 19.7534 49.9956C19.3638 49.9956 19.0548 50.3217 19.0548 50.7044C19.0548 51.1013 19.3638 51.4274 19.7534 51.4274ZM19.2697 60.5141H20.2236V53.0576H19.2697V60.5141Z" fill="#818181"/>
<path d="M25.8066 60.585C27.0023 60.585 28.01 60.0746 28.5742 59.1107L27.8622 58.6004C27.3785 59.3517 26.6261 59.6919 25.8066 59.6919C24.2616 59.6919 23.133 58.5436 23.133 56.7858C23.133 55.0422 24.2616 53.8798 25.8066 53.8798C26.6261 53.8798 27.3785 54.2342 27.8622 54.9855L28.5742 54.4752C28.01 53.497 27.0023 53.0009 25.8066 53.0009C23.6973 53.0009 22.1657 54.5602 22.1657 56.7858C22.1657 59.0114 23.6973 60.585 25.8066 60.585Z" fill="#818181"/>
<path d="M42.7777 53.0009C41.5014 53.0009 40.4937 53.6104 39.9832 54.5744C39.5533 53.5254 38.6397 53.0009 37.4709 53.0009C36.2886 53.0009 35.375 53.5254 34.8779 54.4185V53.0576H33.9643V60.5141H34.9182V56.6016C34.9182 54.9005 35.8452 53.9081 37.2828 53.9081C38.5725 53.9081 39.3249 54.7162 39.3249 56.2897V60.5141H40.2788V56.6016C40.2788 54.9005 41.1924 53.9081 42.6434 53.9081C43.9197 53.9081 44.672 54.7162 44.672 56.2897V60.5141H45.6259V56.1905C45.6259 54.0499 44.4974 53.0009 42.7777 53.0009Z" fill="#818181"/>
<path d="M54.4057 56.7858C54.4057 54.5461 52.9682 53.0009 50.9798 53.0009C48.9914 53.0009 47.527 54.5744 47.527 56.7858C47.527 58.9973 49.0317 60.585 51.2351 60.585C52.3502 60.585 53.3309 60.1597 53.9624 59.3658L53.425 58.7138C52.8876 59.3658 52.1218 59.6919 51.2619 59.6919C49.7169 59.6919 48.5884 58.6571 48.4809 57.0977H54.3923C54.3923 56.9843 54.4057 56.8709 54.4057 56.7858ZM50.9798 53.8656C52.3636 53.8656 53.3712 54.8863 53.4922 56.3464H48.4809C48.6018 54.8863 49.6094 53.8656 50.9798 53.8656Z" fill="#818181"/>
<path d="M56.4548 59.0398C56.0518 59.0398 55.7427 59.3658 55.7427 59.8053C55.7427 60.1739 55.9443 60.4432 56.2264 60.5283L55.7696 62.5838H56.4145L56.9788 60.6275C57.1131 60.2306 57.1669 60.0463 57.1669 59.8053C57.1669 59.38 56.8713 59.0398 56.4548 59.0398Z" fill="#818181"/>
<path d="M66.3515 53.0009C65.1827 53.0009 64.2019 53.5396 63.6242 54.5319V53.0576H62.7106V63.2642H63.6645V59.1107C64.2556 60.0746 65.223 60.585 66.3515 60.585C68.3668 60.585 69.8715 59.054 69.8715 56.7858C69.8715 54.5319 68.3668 53.0009 66.3515 53.0009ZM66.2843 59.6919C64.7796 59.6919 63.6511 58.5295 63.6511 56.7858C63.6511 55.0564 64.7796 53.8798 66.2843 53.8798C67.7756 53.8798 68.9176 55.0564 68.9176 56.7858C68.9176 58.5295 67.7756 59.6919 66.2843 59.6919Z" fill="#818181"/>
<path d="M71.816 60.5141H72.7699V49.9956H71.816V60.5141Z" fill="#818181"/>
<path d="M81.5907 56.7858C81.5907 54.5461 80.1532 53.0009 78.1648 53.0009C76.1764 53.0009 74.712 54.5744 74.712 56.7858C74.712 58.9973 76.2167 60.585 78.4201 60.585C79.5352 60.585 80.5159 60.1597 81.1474 59.3658L80.61 58.7138C80.0726 59.3658 79.3068 59.6919 78.4469 59.6919C76.9019 59.6919 75.7734 58.6571 75.6659 57.0977H81.5773C81.5773 56.9843 81.5907 56.8709 81.5907 56.7858ZM78.1648 53.8656C79.5486 53.8656 80.5562 54.8863 80.6772 56.3464H75.6659C75.7868 54.8863 76.7944 53.8656 78.1648 53.8656Z" fill="#818181"/>
<path d="M85.8076 53.0009C84.6925 53.0009 83.6445 53.3695 82.9325 54.0074L83.3624 54.7587C83.9401 54.22 84.7999 53.8798 85.7135 53.8798C87.0302 53.8798 87.7153 54.5744 87.7153 55.8502V56.3039H85.4717C83.443 56.3039 82.7444 57.2678 82.7444 58.4161C82.7444 59.7061 83.7251 60.585 85.3239 60.585C86.4928 60.585 87.3257 60.1172 87.7557 59.3517V60.5141H88.6692V55.8928C88.6692 53.9648 87.6347 53.0009 85.8076 53.0009ZM85.4717 59.7911C84.3431 59.7911 83.6848 59.2524 83.6848 58.3877C83.6848 57.6222 84.1282 57.0552 85.4986 57.0552H87.7153V58.2743C87.3392 59.2524 86.5465 59.7911 85.4717 59.7911Z" fill="#818181"/>
<path d="M93.1544 60.585C94.995 60.585 96.0699 59.7486 96.0699 58.4586C96.0699 55.5951 91.4885 57.1119 91.4885 55.0989C91.4885 54.3901 92.0528 53.8656 93.3291 53.8656C94.0546 53.8656 94.7935 54.0499 95.4115 54.5035L95.828 53.6955C95.2369 53.2702 94.2427 53.0009 93.3291 53.0009C91.5288 53.0009 90.5346 53.9081 90.5346 55.1273C90.5346 58.0758 95.116 56.5449 95.116 58.4869C95.116 59.2241 94.5651 59.7061 93.2216 59.7061C92.2274 59.7061 91.2735 59.3375 90.7093 58.8697L90.2793 59.6635C90.857 60.188 91.9856 60.585 93.1544 60.585Z" fill="#818181"/>
<path d="M104 56.7858C104 54.5461 102.562 53.0009 100.574 53.0009C98.5857 53.0009 97.1212 54.5744 97.1212 56.7858C97.1212 58.9973 98.626 60.585 100.829 60.585C101.944 60.585 102.925 60.1597 103.557 59.3658L103.019 58.7138C102.482 59.3658 101.716 59.6919 100.856 59.6919C99.3112 59.6919 98.1826 58.6571 98.0751 57.0977H103.987C103.987 56.9843 104 56.8709 104 56.7858ZM100.574 53.8656C101.958 53.8656 102.965 54.8863 103.086 56.3464H98.0751C98.196 54.8863 99.2037 53.8656 100.574 53.8656Z" fill="#818181"/>
<path d="M17.1181 8.36816C18.8989 8.36816 20.3303 8.85908 21.4183 9.83506C22.5062 10.811 23.0502 12.0968 23.0502 13.6981C23.0502 15.0013 22.6894 16.3163 21.9737 17.6429C21.2579 18.9462 20.2845 20.0975 19.0649 21.0968C17.8682 22.102 16.5398 22.8033 15.0797 23.2124L14.4842 22.1546C15.6237 21.6111 16.5398 20.7871 17.2326 19.6767C17.9484 18.5371 18.3091 17.3156 18.3091 16.0182C18.3091 14.4754 17.8968 13.2422 17.0723 12.3188C16.2478 11.3721 15.1713 10.8929 13.8486 10.8929C12.44 10.8929 11.1116 11.4773 9.86338 12.6403C8.64376 13.7799 7.65891 15.3228 6.91454 17.2747C6.1988 19.1975 5.83807 21.2722 5.83807 23.4988C5.83807 25.778 6.18162 27.7943 6.87446 29.5592C7.56729 31.295 8.52352 32.6508 9.74314 33.6268C10.9914 34.6028 12.4114 35.0937 14.0032 35.0937C15.1427 35.0937 16.2879 34.8073 17.4273 34.2404C18.5954 33.6443 19.7234 32.7911 20.8113 31.6807L21.8878 32.6976C20.6395 34.3515 19.0878 35.7366 17.2269 36.847C15.3946 37.934 13.4707 38.4716 11.4495 38.4716C9.27362 38.4716 7.36116 37.9574 5.7121 36.9288C4.09166 35.9002 2.84341 34.4742 1.96735 32.6567C1.09129 30.8099 0.650391 28.7118 0.650391 26.3508C0.650391 23.043 1.38331 20.0215 2.84342 17.2806C4.33215 14.5163 6.32477 12.3481 8.81554 10.776C11.3578 9.16882 14.1177 8.36816 17.1181 8.36816Z" fill="#404040"/>
<path d="M31.5567 27.9692H31.717C32.301 25.3393 33.2573 22.914 34.5857 20.6873C35.9141 18.4665 37.546 17.3503 39.4871 17.3503C40.3917 17.3503 41.056 17.6367 41.4797 18.2035C41.932 18.7704 42.2126 19.4484 42.3156 20.2373C42.4187 20.9971 42.476 21.9322 42.476 23.0426V34.3102C42.476 34.6375 42.5676 34.9472 42.7566 35.2453C42.9684 35.5141 43.2604 35.6544 43.6326 35.6544C44.2682 35.6544 44.9324 35.181 45.6252 34.2342L46.3009 35.0057C45.8485 35.9291 45.1958 36.7122 44.3483 37.3609C43.5009 38.0096 42.5676 38.3369 41.5598 38.3369C39.0347 38.3369 37.775 36.9167 37.775 34.0647V23.4107C37.775 23.0601 37.7063 22.7445 37.5746 22.4757C37.4658 22.1776 37.2711 22.0257 36.9791 22.0257C35.8625 22.0257 34.8949 22.9724 34.0703 24.8718C33.2744 26.7712 32.6503 28.9686 32.198 31.4582C31.7742 33.9537 31.5624 35.97 31.5624 37.5187L26.7812 38.5765V2.1904L31.5624 0.483887V27.9692H31.5567Z" fill="#404040"/>
<path d="M53.6262 13.4522L51.1182 14.2645L49.4863 5.76702L55.0233 3.85596L53.6262 13.4522ZM54.903 34.316C54.903 34.7251 54.9947 35.0465 55.1836 35.292C55.3726 35.5374 55.6245 35.6602 55.9394 35.6602C56.6036 35.6602 57.2793 35.1868 57.9721 34.24L58.6879 35.0114C58.1038 36.0926 57.348 36.9225 56.4147 37.4894C55.51 38.0563 54.611 38.3427 53.7063 38.3427C51.29 38.3427 50.0818 36.9225 50.0818 34.0705V19.4308L54.903 17.7243V34.316Z" fill="#404040"/>
<path d="M93.521 17.7241C94.9296 17.7241 96.2294 18.0105 97.4261 18.5774C98.6457 19.1443 99.5504 20.0267 100.134 21.219L96.2695 22.8437C95.8973 22.1365 95.3819 21.5579 94.7177 21.0962C94.0535 20.6345 93.3492 20.4066 92.6049 20.4066C90.8241 20.4066 89.4155 21.1664 88.3791 22.6859C87.3428 24.2054 86.8274 26.0989 86.8274 28.3781C86.8274 30.4645 87.1309 32.1886 87.7436 33.5444C88.3562 34.871 89.3239 35.5373 90.6523 35.5373C92.5133 35.5373 93.7844 34.6548 94.4772 32.8957C95.1701 31.1074 95.5136 29.1671 95.5136 27.0807V25.2924L100.175 23.5859V34.1581C100.175 34.5379 100.255 34.8769 100.415 35.1749C100.604 35.4438 100.867 35.584 101.211 35.584C101.875 35.584 102.551 35.1107 103.244 34.1581L103.999 34.9295C103.599 35.8763 102.963 36.6944 102.087 37.3724C101.24 38.0211 100.323 38.3484 99.3385 38.3484C98.0617 38.3484 97.1341 37.9159 96.55 37.0451C95.966 36.1509 95.674 35.0113 95.674 33.6262H95.5136C94.8781 35.0931 94.0249 36.2853 92.9656 37.2029C91.9006 38.0971 90.6695 38.5471 89.2609 38.5471C87.1366 38.5471 85.4876 37.7581 84.3195 36.186C83.18 34.5847 82.6074 32.51 82.6074 29.9619C82.6074 27.7937 83.0598 25.7716 83.9645 23.9015C84.8921 22.0313 86.1804 20.541 87.8295 19.4306C89.5014 18.291 91.3967 17.7241 93.521 17.7241Z" fill="#404040"/>
<path d="M76.8292 35.349C76.129 35.349 75.3873 34.9061 74.5938 34.0261C73.8262 33.1173 72.9444 31.9151 71.959 30.4254C71.7411 30.1608 71.5285 29.8502 71.3107 29.5051C72.9237 28.4352 73.6758 27.722 74.9724 26.3013C76.0512 25.1221 76.5491 24.5182 77.0522 23.7417C77.545 22.9882 78.4007 21.5157 78.7119 20.7219C79.4381 18.8698 80.0812 15.9996 80.0138 15.6947C77.887 16.3041 77.1349 16.6492 75.3974 17.2244C74.6713 20.8884 73.5046 24.1903 70.7038 27.3251C69.5991 28.556 69.485 28.8206 67.4363 30.5002L67.2859 30.598C67.2547 30.6152 67.2236 30.6382 67.1925 30.6612L66.456 31.1386L66.4664 25.1394V0.843262L62.1719 2.52282V38.3458L66.4664 37.3047C66.4923 36.5052 66.5494 35.5561 66.6479 34.4632C66.7672 33.3704 66.9021 32.5421 67.0473 31.9842L67.374 31.7829C67.5919 31.9957 68.095 32.6341 68.8885 33.704C69.9207 35.142 70.8491 36.2636 71.6685 37.0631C72.5088 37.8626 73.4475 38.2653 74.4849 38.2653C75.5429 38.2653 76.5543 37.9432 77.5138 37.3047C78.4785 36.6662 79.2202 35.861 79.7493 34.9004L79.1009 34.1009C78.4785 34.9349 77.7213 35.349 76.8292 35.349Z" fill="#404040"/>
</svg>
