<svg width="31" height="32" fill="none" xmlns="http://www.w3.org/2000/svg"><path d="M26.152 20.924a15.22 15.22 0 00-5.822-3.727 9.09 9.09 0 003.846-7.45c0-4.984-3.973-9.039-8.857-9.039-4.883 0-8.856 4.055-8.856 9.04a9.09 9.09 0 003.845 7.449 15.22 15.22 0 00-5.821 3.727C1.594 23.877 0 27.804 0 31.98h2.394c0-7.275 5.798-13.193 12.925-13.193 7.128 0 12.926 5.918 12.926 13.193h2.394c0-4.177-1.594-8.103-4.487-11.056zm-10.833-4.58c-3.563 0-6.462-2.96-6.462-6.596 0-3.638 2.899-6.597 6.462-6.597 3.564 0 6.463 2.96 6.463 6.597 0 3.637-2.899 6.596-6.463 6.596z" fill="#333"/></svg>