<svg width="12" height="10" viewBox="0 0 12 10" fill="none" xmlns="http://www.w3.org/2000/svg">
<path fill-rule="evenodd" clip-rule="evenodd" d="M11.1035 1.01272C10.8127 0.72753 10.3471 0.72753 10.0563 1.01272L3.71983 8.10962C3.44818 8.40112 3.45722 8.8557 3.74026 9.13616C4.02329 9.41663 4.47793 9.42152 4.76694 9.14722L11.1035 2.05825C11.3919 1.76942 11.3919 1.30155 11.1035 1.01272Z" fill="white"/>
<path fill-rule="evenodd" clip-rule="evenodd" d="M4.82557 9.15522C4.53506 9.44031 4.06977 9.44031 3.77926 9.15522L0.59199 6.01864C0.453076 5.88014 0.375 5.69204 0.375 5.49588C0.375 5.29971 0.453076 5.11162 0.59199 4.97311C0.883039 4.68783 1.34884 4.68783 1.63989 4.97311L4.82557 8.10969C4.96449 8.24819 5.04256 8.43629 5.04256 8.63245C5.04256 8.82862 4.96449 9.01671 4.82557 9.15522Z" fill="white"/>
</svg>
