<svg width="52" height="32" viewBox="0 0 52 32" fill="none" xmlns="http://www.w3.org/2000/svg">
<rect x="1" y="8" width="50" height="4" fill="#EB0002"/>
<path d="M26.4037 21.486L27.2113 27.2755H29.1967L32.8953 20.1069H30.8095L29.2385 23.4311C29.016 23.9028 28.8241 24.3303 28.659 24.7217C28.6285 24.3136 28.5955 23.9166 28.5556 23.5115L28.2352 20.1071H25.0645L28.3635 22.7177L26.4037 21.486Z" fill="#333333"/>
<path d="M34.3206 27.2754L35.6803 20.1069H33.8138L32.4521 27.2754H34.3206Z" fill="#333333"/>
<path d="M35.4148 26.8548C35.8522 27.1825 36.6219 27.3789 37.4732 27.3789C39.2399 27.3789 40.4252 26.3812 40.4252 24.8967C40.4252 24.0853 39.9509 23.441 38.9787 22.9306C38.4321 22.6259 38.1025 22.4202 38.1025 22.1617C38.1025 21.9198 38.3574 21.6588 38.9582 21.6588C39.5427 21.6588 39.9939 21.8874 40.0761 21.933L40.2892 22.0502L40.8856 20.4524L40.7286 20.3664C40.2837 20.1208 39.7291 20 39.0365 20C37.3445 20 36.1631 20.9877 36.1631 22.4018C36.1631 23.4281 36.9701 23.9977 37.678 24.3792C38.3454 24.7245 38.4757 24.922 38.4757 25.1464C38.4757 25.5758 38.0102 25.7298 37.6125 25.7298C37.0927 25.7298 36.5519 25.5821 36.1281 25.3284L35.9174 25.2018L35.2861 26.7573L35.4148 26.8548Z" fill="#333333"/>
<path d="M42.2262 27.2755L43.0282 25.5238H44.6454L44.7855 27.2755H46.7248L45.8841 20.1069H43.7148L40.2256 27.2755H42.2262ZM44.1754 22.846C44.2501 22.6846 44.3269 22.5026 44.4016 22.3107C44.4146 22.4815 44.4284 22.6404 44.4383 22.7788L44.5492 24.0047H43.6425L44.1754 22.846Z" fill="#333333"/>
<path d="M52 31.83H0V0H52V31.83ZM1.64219 30.1888H50.357V1.64297H1.64219V30.1888Z" fill="#EB0002"/>
</svg>
