<svg width="66" height="31" viewBox="0 0 66 31" fill="none" xmlns="http://www.w3.org/2000/svg">
<path d="M0.0423815 18.4982C0.115414 18.5104 0.191492 18.5104 0.258439 18.5347C1.14396 18.8573 2.02947 19.1829 2.91499 19.5054C3.45665 19.7002 4.00439 19.8767 4.543 20.0775C5.13639 20.2966 5.72369 20.537 6.31708 20.7591C6.87091 20.9661 7.43083 21.1639 7.98771 21.3677C8.62978 21.6021 9.26882 21.8485 9.91698 22.0737C10.3582 22.2289 10.8055 22.3567 11.2498 22.4937C11.2924 22.5058 11.3442 22.4906 11.3807 22.4906C11.332 22.0494 11.2711 21.6203 11.2407 21.1913C11.1585 20.0471 11.2133 18.9059 11.5389 17.8044C11.7671 17.0345 12.0319 16.2676 12.5248 15.6043C12.8474 15.1722 13.1426 14.7188 13.4256 14.2593C13.5899 13.9915 13.6964 13.6872 13.8394 13.4072C13.9642 13.1638 14.1011 12.9234 14.2381 12.686C14.3415 12.5065 14.4602 12.3361 14.5576 12.1535C14.5789 12.1139 14.5576 12.0166 14.5241 11.9861C14.1316 11.6575 13.736 11.3319 13.3312 11.0184C13.2917 10.988 13.1608 11.0154 13.1091 11.061C12.8535 11.2801 12.61 11.5175 12.3575 11.7457C12.044 12.0287 11.6545 12.1018 11.259 12.0713C10.4678 12.0044 9.67961 11.8979 8.88843 11.8096C8.8154 11.8005 8.74237 11.7914 8.6237 11.7792C8.68456 13.2064 8.74237 14.6062 8.80018 16.009C8.78193 16.009 8.76367 16.012 8.74542 16.012C8.71194 15.6773 8.67846 15.3426 8.64499 15.0078C8.49588 13.5168 8.34374 12.0287 8.20072 10.5376C8.17637 10.2729 8.07595 10.1877 7.79903 10.1603C6.73398 10.0508 5.67197 9.90469 4.60996 9.77384C4.09569 9.70994 3.57836 9.64909 3.06409 9.58214C2.9515 9.56692 2.84195 9.53953 2.72936 9.51823C2.7324 9.49389 2.73546 9.47259 2.7385 9.44824C3.23451 9.47867 3.73052 9.49084 4.22349 9.53953C5.3494 9.64604 6.47227 9.75559 7.59819 9.8834C8.8793 10.0295 10.1574 10.1847 11.4354 10.352C11.9162 10.4159 12.3879 10.5285 12.8626 10.6168C13.5047 10.7385 13.9977 11.1097 14.4298 11.5692C14.7584 11.9161 14.7584 11.9405 15.0962 11.6757C15.8691 11.0641 16.7577 10.8906 17.7132 10.9485C18.6048 11.0032 19.3686 11.3866 20.0928 11.8644C20.8505 12.3635 21.4744 13.0055 22.0434 13.7115C22.7098 14.5423 23.2941 15.4247 23.851 16.3316C24.5904 17.5427 25.0469 18.8603 25.4151 20.2175C25.6585 21.1182 25.9324 22.0129 26.1576 22.9197C26.3523 23.7139 26.5227 24.5173 26.6566 25.3267C26.7662 25.9871 26.8027 26.6565 26.8696 27.3229C26.9092 27.7368 26.9062 27.7429 27.3109 27.8159C29.018 28.1172 30.7282 28.3606 32.4597 28.5006C36.1113 28.7958 39.7659 28.6953 43.4176 28.7227C45.1977 28.7349 46.9596 28.4854 48.7215 28.2693C49.3119 28.1963 49.9144 28.2115 50.4956 28.1111C51.5394 27.9285 52.5771 27.7033 53.6117 27.469C54.4272 27.2834 55.2367 27.0734 56.0431 26.8513C56.8312 26.6352 57.6133 26.3948 58.3953 26.1575C59.3204 25.8775 60.2455 25.5915 61.1705 25.3024C61.624 25.1594 62.0743 24.9981 62.5247 24.8459C62.5612 24.8338 62.6008 24.8246 62.6403 24.8125C62.6525 24.8368 62.6677 24.8581 62.6799 24.8824C62.3421 25.1015 62.0104 25.3298 61.6635 25.5367C61.0793 25.8866 60.495 26.2396 59.8955 26.5591C59.4999 26.7691 59.0769 26.9304 58.6631 27.1008C58.0758 27.3381 57.4824 27.5664 56.8921 27.7946C56.2865 28.0289 55.6749 28.2541 55.0693 28.4823C54.5063 28.6953 53.9525 28.9297 53.3835 29.1183C52.6805 29.3526 51.9685 29.5748 51.2503 29.7634C50.6204 29.9278 49.9814 30.0738 49.3393 30.1682C48.2651 30.3294 47.1848 30.4664 46.1015 30.5698C44.8022 30.6946 43.4967 30.7798 42.1912 30.862C39.8146 31.0141 37.435 31.0567 35.0554 30.9107C34.1607 30.8559 33.26 30.865 32.3684 30.7798C31.0173 30.652 29.6723 30.4755 28.3272 30.3081C27.5634 30.2138 26.7996 30.1134 26.0419 29.9825C25.3938 29.8699 24.7547 29.7117 24.1127 29.5717C23.8297 29.5109 23.5497 29.45 23.2302 29.38C23.5953 29.1883 23.9423 29.0544 24.2344 28.8445C24.7791 28.4519 25.3055 28.032 25.8107 27.5907C25.9567 27.4599 26.0937 27.2043 26.0785 27.0217C25.9902 26.0418 26.0054 25.0437 25.6494 24.1034C25.6281 24.0456 25.5611 23.9695 25.5094 23.9665C24.8065 23.9056 24.1948 23.6257 23.6288 23.2179C23.0963 22.8345 22.5425 22.4754 22.1164 21.9581C21.8517 21.6355 21.8821 21.3069 22.2443 21.1182C22.7555 20.8535 23.2728 20.6009 23.7871 20.3423C23.8449 20.3118 23.927 20.2875 23.9544 20.2357C24.1553 19.8675 24.347 19.4933 24.5387 19.122C24.5143 19.1007 24.493 19.0794 24.4687 19.0551C24.1705 19.1616 23.8692 19.265 23.571 19.3715C23.5649 19.3594 23.5619 19.3472 23.5558 19.335C23.7566 19.2285 23.9575 19.1159 24.1614 19.0185C24.4565 18.8755 24.5052 18.7568 24.3561 18.4921C24.207 18.2304 24.064 18.2091 23.7992 18.3673C23.2758 18.6777 22.7433 18.9699 22.2199 19.2802C21.9126 19.4628 21.5778 19.6332 21.3313 19.8828C21.1396 20.0775 21.0301 20.3788 20.9418 20.6496C20.7623 21.2156 20.4732 21.7116 20.0654 22.1407C19.9985 22.2107 19.9437 22.3141 19.9285 22.4085C19.8768 22.7371 19.8342 23.0688 19.8159 23.4005C19.8007 23.6318 19.8555 23.8691 19.8342 24.1004C19.7003 25.6919 19.5542 27.2864 19.4173 28.8779C19.4021 29.0544 19.3351 29.1122 19.1495 29.1092C18.1027 29.094 17.1502 28.7927 16.2434 28.2784C15.2362 27.7064 14.372 26.973 13.6477 26.0784C13.1761 25.4941 12.82 24.8398 12.537 24.1338C11.9436 22.6458 11.7884 21.103 11.9162 19.5298C11.9771 18.7903 12.1566 18.0661 12.4731 17.3784C12.8383 16.5841 13.2886 15.8447 13.8851 15.2148C14.4632 14.6062 15.1053 14.0584 15.9117 13.7602C16.5599 13.5198 17.1989 13.2064 17.8714 13.0938C18.7326 12.9508 19.6242 12.9173 20.4732 13.2611C20.6497 13.3311 20.8414 13.3555 21.027 13.4011C21.0453 13.3798 21.0605 13.3616 21.0788 13.3403C20.7745 13.0664 20.4641 12.7956 20.1659 12.5126C19.4599 11.8431 18.6444 11.834 17.7801 12.1078C17.3267 12.2509 16.8581 12.3604 16.4351 12.5613C15.9269 12.8047 15.4431 13.106 14.9806 13.4285C14.6032 13.6933 14.2411 13.9976 13.9307 14.3353C13.5443 14.7553 13.1913 15.2117 12.8748 15.6864C12.5948 16.1064 12.3514 16.5628 12.1627 17.0314C11.9528 17.5579 11.8128 18.1117 11.6637 18.6595C11.3868 19.688 11.3959 20.7378 11.5359 21.7786C11.618 22.378 11.8036 22.9653 11.9558 23.5557C12.0501 23.9208 12.1566 24.2799 12.2723 24.6359C12.3636 24.922 12.4731 25.1989 12.5735 25.4819C12.5979 25.5489 12.607 25.6219 12.6009 25.7193C8.54152 23.0992 4.49431 20.4761 0.00585938 18.626C0.0149884 18.5682 0.0271665 18.5317 0.0423815 18.4982ZM18.5074 13.4133C18.4009 13.4133 18.2914 13.395 18.1909 13.4163C17.7254 13.5137 17.2598 13.6111 16.8003 13.7298C15.9513 13.9458 15.2331 14.4023 14.5819 14.9774C14.089 15.4126 13.5686 15.8234 13.2613 16.4289C13.0361 16.8763 12.7926 17.3145 12.5827 17.7679C12.2631 18.4495 12.1962 19.1859 12.184 19.9223C12.1658 20.9691 12.1566 22.0159 12.5887 23.0079C12.6466 23.1418 12.6892 23.2057 12.8383 23.1418C13.5047 22.8619 14.1742 22.5819 14.8436 22.308C15.437 22.0646 16.0334 21.8272 16.6268 21.5838C17.1685 21.3617 17.7101 21.1334 18.2488 20.9082C18.2427 20.8869 18.2366 20.8657 18.2275 20.8444C18.1301 20.8565 18.0297 20.8596 17.9353 20.8778C17.4424 20.9782 16.9524 21.0848 16.4625 21.1913C15.7991 21.3312 15.1388 21.4651 14.4754 21.6112C14.3111 21.6477 14.2289 21.5838 14.165 21.4377C13.806 20.6009 13.7938 19.7245 13.9155 18.8481C13.952 18.5864 13.8607 18.4221 13.736 18.2395C13.5625 17.99 13.3951 17.7405 13.2247 17.4909C13.243 17.4696 13.2582 17.4514 13.2765 17.4301C14.5698 18.0995 15.863 18.7721 17.1533 19.4415C16.9159 19.1798 16.6542 18.9485 16.3956 18.7142C16.1369 18.483 15.8783 18.2517 15.6257 18.0143C15.3822 17.7861 15.151 17.5457 14.9136 17.3114C14.9349 17.284 14.9593 17.2597 14.9806 17.2323C16.3347 18.2578 17.7619 19.1646 19.2347 20.0075C19.1769 19.898 19.1069 19.8067 19.0308 19.7154C18.5409 19.125 18.0144 18.5651 17.5762 17.9413C17.0955 17.2566 16.6907 16.5172 16.2647 15.7929C16.213 15.7077 16.2099 15.583 16.2099 15.4765C16.216 15.0778 16.4899 14.8192 16.7425 14.5727C17.2476 14.0736 17.8562 13.7298 18.5074 13.4133ZM12.8322 24.2221C13.0269 24.5721 13.176 24.8672 13.3465 25.1472C13.742 25.8014 14.2563 26.3583 14.8436 26.8361C15.3579 27.256 15.8965 27.6516 16.4595 28.0046C16.8794 28.2663 17.345 28.461 17.8045 28.6497C18.0175 28.7379 18.267 28.7349 18.5074 28.7775C18.7448 26.623 18.976 24.5142 19.2073 22.4054C19.1769 22.3993 19.1464 22.3932 19.116 22.3872C18.6291 23.9482 18.1453 25.5093 17.6493 27.1008C17.3906 26.9486 17.1472 26.8056 16.9038 26.6687C16.2617 26.3127 15.7626 25.8106 15.3457 25.2141C15.2423 25.0681 15.154 24.852 15.011 24.8003C14.445 24.6025 13.8607 24.4534 13.2826 24.2921C13.17 24.2617 13.0452 24.2556 12.8322 24.2221ZM19.5573 13.6872C19.5329 13.7085 19.5055 13.7298 19.4812 13.7511C19.5238 14.098 19.5664 14.4449 19.6059 14.7918C19.7551 16.0729 19.892 17.354 20.0563 18.6321C20.108 19.0338 20.2237 19.4263 20.3332 19.8189C20.3545 19.901 20.4671 19.9619 20.5371 20.0319C20.5858 19.9345 20.6619 19.8432 20.6741 19.7397C20.7927 18.8268 20.8992 17.9109 21.0088 16.998C21.0879 16.3407 21.164 15.6834 21.6113 15.1478C21.7178 15.02 21.6539 14.9531 21.5291 14.877C21.1457 14.6457 20.7775 14.3901 20.3941 14.1558C20.1202 13.9915 19.8372 13.8454 19.5573 13.6872ZM19.0217 13.6263C19.0308 15.6803 19.399 17.6796 19.895 19.6606C19.7368 17.6279 19.4325 15.6195 19.0217 13.6263Z" fill="#333333"/>
<path d="M10.5189 6.35007C10.7593 6.37746 11.0028 6.41397 11.2432 6.42615C12.2382 6.46875 13.2394 6.47179 14.2314 6.55091C15.8016 6.67568 17.3687 6.83087 18.9329 7.01041C20.1622 7.15039 21.3886 7.32992 22.6088 7.52468C23.9295 7.73465 25.241 7.99635 26.5617 8.21544C27.4107 8.35846 28.2688 8.45584 29.1209 8.59278C30.046 8.73885 30.9741 8.88186 31.89 9.07357C32.8212 9.26832 33.7432 9.50568 34.6622 9.75521C35.3956 9.95301 36.1229 10.1721 36.841 10.4216C37.6018 10.6864 38.3534 10.9907 39.0989 11.298C39.8719 11.6145 40.6418 11.934 41.3964 12.29C42.2454 12.6917 43.0883 13.1117 43.9008 13.5803C44.4151 13.8785 44.8746 14.2771 45.3524 14.6362C45.5045 14.7488 45.611 14.9253 45.5075 15.0927C45.4345 15.2144 45.2671 15.327 45.1272 15.3513C44.7924 15.4122 44.4455 15.4517 44.1047 15.4426C42.1602 15.4031 40.2157 15.3665 38.2743 15.2935C37.5409 15.2661 36.8167 15.1048 36.1198 14.8553C35.6969 14.7032 35.2708 14.5571 34.8509 14.3958C34.3397 14.198 33.8254 13.9972 33.3233 13.772C32.669 13.4768 32.03 13.1573 31.3818 12.8469C30.9163 12.6217 30.4537 12.3996 29.9912 12.1683C29.6321 11.9888 29.2822 11.8032 28.9261 11.6175C28.281 11.2858 27.6389 10.9542 26.9938 10.6194C26.4461 10.3364 25.9044 10.0413 25.3567 9.7613C24.675 9.41135 24.0177 9.01576 23.2813 8.77536C22.481 8.51366 21.7081 8.17284 20.9108 7.91419C20.3813 7.74073 19.8305 7.60684 19.2798 7.52468C18.0808 7.3421 16.8758 7.18386 15.6677 7.05606C14.5692 6.94042 13.4646 6.86738 12.3599 6.80044C11.6509 6.75479 10.9358 6.75783 10.2237 6.73045C9.49038 6.70306 8.80568 6.94955 8.11188 7.13213C7.12289 7.39079 6.28303 7.96591 5.39751 8.44367C5.34882 8.47106 5.29405 8.48627 5.16624 8.538C5.66529 7.65553 6.24956 6.91607 6.85816 6.10967C6.60255 6.07316 6.41692 6.0336 6.22825 6.02143C5.52531 5.97578 4.82238 5.92709 4.11944 5.89666C3.51693 5.86928 2.9357 5.75973 2.42143 5.44021C2.05323 5.21198 1.96498 5.08418 2.25406 4.65207C2.78355 3.85784 3.6143 3.58092 4.4633 3.37704C5.25753 3.18533 6.07002 3.04535 6.90076 3.09709C7.37851 3.12752 7.74672 3.38617 8.08449 3.68134C8.21534 3.79698 8.30055 3.96739 8.39793 4.12258C8.47401 4.2443 8.42532 4.32038 8.28838 4.35994C7.56718 4.56382 6.83381 4.67945 6.07305 4.66119C6.60254 4.55165 7.12289 4.45427 7.64021 4.32951C7.76801 4.29908 7.93539 4.19562 7.97191 4.08607C7.9993 4.00695 7.86843 3.81524 7.76193 3.76047C7.46067 3.60527 7.1442 3.41051 6.81859 3.37704C5.45836 3.24011 4.16813 3.50789 3.0057 4.25343C2.8079 4.3782 2.66184 4.58816 2.50664 4.77075C2.40014 4.89855 2.42752 5.02027 2.54924 5.14504C2.90832 5.5102 3.53822 5.54976 3.85774 5.36718C4.23203 5.15113 4.63371 5.07809 5.03843 5.072C5.59834 5.06287 6.15826 5.11461 6.71513 5.16634C6.84294 5.17851 6.95858 5.3124 7.08639 5.3763C7.23854 5.45238 7.39677 5.57106 7.55196 5.57106C8.5379 5.56498 9.52384 5.53454 10.598 5.50715C10.4154 4.98984 10.2572 4.53948 10.0929 4.08911C10.0442 3.95522 9.96508 3.83654 9.90726 3.70569C9.79467 3.44399 9.62426 3.41356 9.44168 3.62961C9.27127 3.83045 9.10087 4.03738 8.93046 4.24126C8.9122 4.22909 8.89089 4.21692 8.87263 4.20779C8.98218 3.99173 9.08869 3.77568 9.20129 3.56267C9.24389 3.48051 9.29562 3.40443 9.35344 3.33444C9.56036 3.07274 9.62426 2.79887 9.4508 2.48848C9.22866 2.08985 9.0613 1.65165 8.78743 1.29562C8.45574 0.860468 7.91104 0.817866 7.40286 0.763091C7.21419 0.74179 7.01944 0.760045 6.82773 0.74483C7.3207 0.632238 7.81671 0.613982 8.31576 0.708315C8.70223 0.781348 8.97609 1.0187 9.13129 1.3443C9.52992 2.16896 9.89509 3.00884 10.2572 3.84871C10.4885 4.38428 10.6985 4.92899 10.9084 5.47369C10.9784 5.65627 11.1001 5.708 11.2797 5.67757C11.4349 5.65018 11.5961 5.638 11.7513 5.61366C11.94 5.58323 12.0069 5.47064 11.9461 5.28806C11.8457 4.9868 11.7513 4.68554 11.6418 4.38732C11.444 3.83654 11.2401 3.29184 11.0423 2.74105C11.0332 2.71975 11.0423 2.69237 11.091 2.64976C11.2249 2.97841 11.3527 3.3101 11.4896 3.63874C11.7239 4.19866 11.9583 4.75857 12.1956 5.31849C12.3021 5.56802 12.5212 5.65931 12.7647 5.65322C13.3854 5.63801 14.0032 5.5954 14.6239 5.57715C16.2063 5.53454 17.7887 5.49499 19.3741 5.46456C20.5061 5.44325 21.6351 5.42195 22.7671 5.42499C26.6134 5.43108 30.4629 5.4463 34.3092 5.45847C34.3975 5.45847 34.4857 5.45847 34.6196 5.45847C34.5679 5.33371 34.5527 5.23329 34.4949 5.17547C34.0536 4.73119 33.6276 4.2656 33.1468 3.86392C32.6234 3.42877 32.0696 3.02405 31.4914 2.66802C30.7976 2.24504 30.0734 1.86771 29.343 1.50863C28.8501 1.26823 28.3328 1.07044 27.8124 0.900027C27.4746 0.790478 27.1125 0.741789 26.7565 0.708315C21.6381 0.212303 16.5076 0.397926 11.3801 0.394883C10.9936 0.394883 10.6102 0.394883 10.2237 0.394883C10.2085 0.394883 10.1964 0.385758 10.1781 0.315769C10.9176 0.264038 11.657 0.191005 12.3965 0.163618C14.0458 0.0966716 15.6981 -0.00983704 17.3474 0.00842108C20.1561 0.0388513 22.9618 0.139271 25.7675 0.236648C26.4278 0.257949 27.0881 0.355325 27.7393 0.464874C28.1045 0.528777 28.4636 0.671802 28.8075 0.817867C29.7264 1.21042 30.6454 1.60905 31.5523 2.03203C32.2156 2.34242 32.8547 2.70149 33.5089 3.03318C33.8802 3.22185 34.2636 3.39226 34.6348 3.58092C34.8205 3.67526 34.9909 3.80003 35.1765 3.89132C35.7699 4.17736 36.418 4.26256 37.0571 4.38732C37.6353 4.49991 38.2256 4.58512 38.7551 4.88334C39.1355 5.09635 39.1902 5.28197 38.9498 5.62888C38.9377 5.64713 38.9346 5.67452 38.9194 5.72625C39.2998 5.78102 39.668 5.82972 40.0362 5.89058C40.9917 6.05186 41.9503 6.21618 42.9058 6.38355C43.6452 6.5144 44.3877 6.64829 45.1241 6.7974C45.681 6.90999 46.2318 7.04693 46.7826 7.18386C47.9359 7.4699 49.0892 7.74682 50.2333 8.06025C50.9545 8.25805 51.6636 8.51366 52.3726 8.76015C52.7469 8.891 53.1121 9.05532 53.4803 9.20747C53.5229 9.22573 53.5563 9.26224 53.6263 9.31398C53.5624 9.32919 53.532 9.34441 53.5076 9.33832C53.1334 9.22269 52.7621 9.09792 52.3848 8.98837C51.5601 8.74798 50.7355 8.50149 49.9017 8.28848C48.9462 8.04504 47.9846 7.81985 47.0199 7.61901C45.9731 7.40296 44.9202 7.21125 43.8643 7.03171C42.8753 6.86434 41.8833 6.7061 40.8882 6.5783C39.8262 6.44136 38.7612 6.32877 37.6931 6.23139C36.4424 6.11576 35.1887 6.00926 33.9349 5.93014C31.3666 5.76582 28.7922 5.75668 26.2178 5.78103C24.5077 5.79624 22.7975 5.77798 21.0873 5.80233C18.4216 5.83884 15.759 5.8784 13.0933 5.95752C12.3021 5.98187 11.514 6.13402 10.7228 6.23139C10.6528 6.24052 10.5859 6.26791 10.5159 6.28617C10.5189 6.30139 10.5189 6.32573 10.5189 6.35007ZM27.9919 8.99141C27.9858 9.01576 27.9798 9.0401 27.9737 9.06749C28.0315 9.10705 28.0832 9.15574 28.1441 9.18312C28.8075 9.49655 29.4708 9.8039 30.1312 10.1204C30.898 10.4855 31.6831 10.8172 32.4165 11.2402C33.4024 11.8062 34.364 12.4209 35.3043 13.0599C35.9433 13.4951 36.5124 14.0276 37.1392 14.481C37.3888 14.6606 37.69 14.8279 37.9882 14.8675C40.0271 15.1414 42.0841 15.1079 44.1351 15.114C44.3512 15.114 44.5733 15.0896 44.7772 15.0288C45.0115 14.9618 45.042 14.761 44.8472 14.621C44.5794 14.4262 44.3025 14.2345 44.0165 14.0702C43.487 13.772 42.9544 13.4799 42.4128 13.206C41.7372 12.8652 41.0556 12.5365 40.3648 12.2231C39.8567 11.9918 39.3363 11.791 38.819 11.581C38.3017 11.3711 37.7874 11.1489 37.264 10.9602C36.6067 10.7229 35.9433 10.4977 35.2739 10.2999C34.4279 10.0504 33.5789 9.78564 32.7147 9.60915C31.2723 9.31093 29.8208 9.05532 28.3449 8.99446C28.2293 8.98837 28.1106 8.99141 27.9919 8.99141ZM36.7923 14.6575C36.6737 14.5175 36.6158 14.411 36.5245 14.3471C35.6573 13.7416 34.7992 13.1269 33.9136 12.5548C33.2564 12.1288 32.5808 11.7332 31.8839 11.3771C31.041 10.945 30.1859 10.519 29.3035 10.1843C28.2841 9.79781 27.2281 9.49352 26.1813 9.18617C25.8649 9.09184 25.5179 9.104 25.1832 9.06749C25.168 9.10705 25.1528 9.14356 25.1376 9.18312C25.2167 9.25007 25.2867 9.33527 25.378 9.38092C25.7736 9.57567 26.1783 9.75217 26.5739 9.94692C27.2007 10.2543 27.8215 10.5738 28.4453 10.8872C29.1757 11.2554 29.906 11.6206 30.6333 11.9918C31.6648 12.5183 32.6812 13.0721 33.725 13.5681C34.4675 13.9211 35.2434 14.2071 36.0133 14.5023C36.2385 14.5845 36.4972 14.5967 36.7923 14.6575Z" fill="#333333"/>
<path d="M62.0598 15.3873C61.6703 15.4604 61.2808 15.5395 60.8913 15.6095C60.0605 15.7616 59.2298 15.9138 58.399 16.0659C57.7813 16.1785 57.1636 16.279 56.5489 16.4007C56.4485 16.4189 56.3328 16.495 56.2811 16.5802C55.8094 17.3531 55.3469 18.1322 54.8843 18.9142C54.4888 19.5806 54.0962 20.2471 53.7098 20.9165C53.4207 21.4125 53.1407 21.9146 52.8607 22.4167C52.8273 22.4776 52.8121 22.5537 52.7816 22.651C53.229 22.5902 53.6398 22.5293 54.0536 22.4745C54.9178 22.3619 55.782 22.2767 56.6432 22.1398C57.3188 22.0303 57.9852 21.8751 58.6516 21.7138C59.3576 21.5434 60.0605 21.3578 60.7574 21.1539C61.5577 20.9226 62.1146 20.3901 62.4858 19.6567C62.7262 19.182 62.991 18.7164 63.1979 18.2265C63.4931 17.5266 63.7274 16.8024 63.8004 16.0355C63.8247 15.7708 63.6878 15.5669 63.4474 15.4604C63.3957 15.4391 63.35 15.4087 63.2892 15.3752C63.6604 15.1865 64.0317 15.4178 64.0347 15.8651C64.0378 16.2059 63.9891 16.5498 63.913 16.8845C63.6574 18.0257 63.1522 19.0572 62.5315 20.0493C61.8955 21.0687 60.9552 21.6195 59.8445 21.9298C58.9194 22.1885 57.9882 22.4259 57.054 22.6297C56.3207 22.788 55.5751 22.9158 54.8296 23.001C53.6489 23.1349 52.4651 23.2688 51.2814 23.3144C50.7641 23.3357 50.2224 23.1836 49.7143 23.0345C49.1391 22.8671 48.8592 22.368 48.707 21.8355C48.4697 20.9956 48.3023 20.1405 48.3632 19.2581C48.4088 18.5825 48.6036 17.977 49.1361 17.5296C49.2791 17.4079 49.4526 17.3045 49.6321 17.2466C50.8889 16.8571 52.1669 16.5772 53.4693 16.3824C53.8832 16.3216 54.2849 16.1877 54.6957 16.1298C56.1198 15.9229 57.544 15.716 58.9742 15.5486C59.9114 15.436 60.8578 15.3874 61.8011 15.3143C61.8863 15.3082 61.9746 15.3143 62.0598 15.3143C62.0568 15.3356 62.0568 15.36 62.0598 15.3873Z" fill="#333333"/>
<path d="M38.3544 17.9418C37.2194 18.2005 36.0844 18.4622 34.8732 18.7391C35.5062 20.5862 36.1178 22.3694 36.7416 24.1952C36.4678 24.1496 36.2091 24.1039 35.9505 24.0613C35.3753 23.9609 34.7971 23.8788 34.2251 23.757C33.163 23.5288 32.308 22.9354 31.6446 22.0986C31.109 21.423 30.6313 20.6988 30.1535 19.9776C29.9375 19.6551 29.761 19.299 29.6088 18.943C29.3228 18.2614 29.694 17.4215 30.6465 17.4428C31.7267 17.4702 32.807 17.4732 33.8873 17.5158C35.1836 17.5675 36.4799 17.6436 37.7763 17.7167C37.9741 17.7288 38.1719 17.7988 38.3666 17.8445C38.3636 17.8749 38.3605 17.9084 38.3544 17.9418Z" fill="#E30D16"/>
<path d="M47.5322 6.39478C48.2899 6.26697 49.0263 6.32175 49.7567 6.39782C50.6544 6.49216 51.5521 6.59866 52.4467 6.73864C53.031 6.82993 53.6122 6.96687 54.1812 7.12815C54.8294 7.31377 55.4684 7.53895 56.1044 7.76718C56.4878 7.90412 56.7982 8.11104 57.0721 8.46403C57.416 8.90527 57.8876 9.26739 58.3532 9.58691C59.0227 10.0494 59.7286 10.4603 60.4377 10.8619C61.4814 11.4523 62.5191 12.0791 63.6815 12.4078C64.3936 12.6086 64.8835 13.0559 65.3095 13.6006C65.6077 13.981 65.699 14.4618 65.7751 14.9335C65.9668 16.1324 65.7751 17.2827 65.3704 18.4117C65.343 18.4908 65.2761 18.5577 65.2548 18.5912C65.3461 17.8852 65.4708 17.1519 65.5256 16.4154C65.553 16.0564 65.4799 15.6821 65.4008 15.326C65.3491 15.0948 65.1939 14.8757 64.9139 14.8635C64.1714 14.83 63.429 14.7874 62.6865 14.7935C60.9215 14.8148 59.1931 15.1678 57.4494 15.3747C56.4787 15.4904 55.5171 15.679 54.5494 15.8312C53.7156 15.962 52.8758 16.0594 52.045 16.2116C51.3573 16.3394 50.6726 16.5006 50.0001 16.7045C49.4737 16.8628 48.9503 17.0819 48.5912 17.5231C48.4025 17.7544 48.223 18.0465 48.1804 18.3325C48.08 18.999 48.0648 19.6806 48.0161 20.3561C48.01 20.4627 48.0161 20.5722 48.0161 20.6787C47.9948 20.6817 47.9735 20.6818 47.9552 20.6848C47.9339 20.487 47.8913 20.2862 47.8974 20.0914C47.9187 19.4432 47.9126 18.786 48.0069 18.1469C48.0708 17.7057 48.2656 17.2644 48.6825 17.018C49.0507 16.7989 49.4372 16.5889 49.8419 16.4489C51.1443 15.9985 52.5076 15.8312 53.8587 15.5999C54.6985 15.4569 55.5354 15.2895 56.3783 15.1617C57.2303 15.0339 58.0885 14.9365 58.9435 14.827C59.6587 14.7357 60.3707 14.6292 61.0858 14.5622C62.2057 14.4557 63.3255 14.4557 64.4514 14.5288C65.1117 14.5714 65.1635 14.4618 64.9079 13.8532C64.7222 13.415 64.424 13.0681 64.0467 12.8064C63.8276 12.6543 63.5324 12.6208 63.2768 12.5173C62.7047 12.2891 62.1235 12.0761 61.5666 11.8144C60.955 11.5314 60.3372 11.2454 59.7743 10.8802C58.9253 10.3294 58.1097 9.7208 57.3033 9.10611C57.0234 8.8931 56.8165 8.58576 56.5517 8.3484C56.3996 8.21451 56.2109 8.10495 56.0192 8.03801C55.3832 7.80674 54.7503 7.5633 54.0991 7.39289C52.7723 7.04598 51.4242 6.79646 50.0518 6.66865C49.212 6.59866 48.3843 6.49215 47.5322 6.39478Z" fill="#333333"/>
<path d="M43.093 24.2224C42.4053 24.5084 41.748 24.2498 41.535 23.5986C41.2855 22.8378 41.0603 22.0679 40.8594 21.292C40.5947 20.2726 40.3695 19.244 40.1139 18.2246C40.0561 17.9994 40.1291 17.8777 40.333 17.8321C40.5034 17.7955 40.6799 17.7742 40.8533 17.7803C42.1923 17.826 43.5312 17.8777 44.8732 17.9294C45.4605 17.9507 46.0447 17.972 46.632 17.9964C46.7203 17.9994 46.8085 18.0177 46.8968 18.0299C46.9029 18.0512 46.9089 18.0725 46.915 18.0938C46.8359 18.1333 46.7598 18.1942 46.6746 18.2064C45.9717 18.3129 45.2657 18.392 44.5658 18.5107C43.8507 18.6324 43.1295 18.7419 42.457 19.0432C42.0432 19.2288 41.9488 19.4783 42.0036 19.9257C42.1618 21.2189 42.6183 22.4392 42.9165 23.696C42.9561 23.8724 43.0321 24.0398 43.093 24.2224Z" fill="#E30D16"/>
<path d="M20.87 22.9341C21.22 23.2536 21.5395 23.567 21.8833 23.8561C22.5224 24.3947 23.1766 24.9181 23.8248 25.4476C23.8613 25.478 23.91 25.4993 23.9556 25.5176C24.123 25.5845 24.1169 25.6971 24.0287 25.8158C23.7061 26.2449 23.3257 26.604 22.8723 26.9083C22.2729 27.313 21.6034 27.529 20.937 27.7725C20.7909 27.8242 20.6387 27.8516 20.4531 27.8394C20.5627 27.6782 20.657 27.5077 20.7848 27.3617C20.9218 27.2034 20.9461 27.0574 20.8852 26.8565C20.5079 25.6058 20.6266 24.343 20.8183 23.0802C20.8244 23.0406 20.8457 23.0041 20.87 22.9341Z" fill="#333333"/>
<path d="M12.833 24.2211C13.043 24.2545 13.1708 24.2606 13.2864 24.2941C13.8646 24.4554 14.4489 24.6014 15.0149 24.8023C15.1579 24.851 15.2461 25.067 15.3496 25.2161C15.7634 25.8126 16.2655 26.3147 16.9076 26.6707C17.1541 26.8076 17.3945 26.9506 17.6531 27.1028C18.1492 25.5113 18.636 23.9502 19.1199 22.3892C19.1503 22.3952 19.1807 22.4013 19.2112 22.4074C18.9799 24.5162 18.7486 26.625 18.5113 28.7795C18.2709 28.7399 18.0214 28.7399 17.8083 28.6517C17.3488 28.463 16.8802 28.2713 16.4633 28.0066C15.9004 27.6536 15.3618 27.258 14.8475 26.8381C14.2602 26.3603 13.7459 25.8034 13.3503 25.1492C13.1769 24.8662 13.0278 24.5741 12.833 24.2211Z" fill="white"/>
<path d="M19.5575 13.686C19.8375 13.8412 20.1235 13.9903 20.3944 14.1577C20.7778 14.392 21.146 14.6476 21.5294 14.8789C21.6542 14.955 21.7181 15.0219 21.6116 15.1497C21.1612 15.6853 21.0851 16.3426 21.009 16.9999C20.8995 17.9128 20.793 18.8287 20.6743 19.7416C20.6621 19.8421 20.583 19.9364 20.5374 20.0338C20.4674 19.9638 20.3578 19.9029 20.3335 19.8208C20.227 19.4282 20.1083 19.0357 20.0566 18.634C19.8922 17.3559 19.7553 16.0748 19.6062 14.7937C19.5667 14.4468 19.524 14.0999 19.4814 13.753C19.5058 13.7286 19.5301 13.7073 19.5575 13.686Z" fill="white"/>
<path d="M19.0225 13.625C19.4333 15.6182 19.7376 17.6296 19.8958 19.6593C19.4028 17.6753 19.0316 15.676 19.0225 13.625Z" fill="white"/>
<path d="M42.6935 14.0046C41.6102 13.5238 40.5238 13.043 39.3918 12.5378C39.4496 12.7143 39.4922 12.836 39.5287 12.9517C39.4801 12.9821 39.4588 13.0004 39.4527 12.9973C39.2153 12.8513 38.9932 12.8239 38.7741 13.043C38.7345 13.0825 38.6219 13.0825 38.558 13.0582C38.2994 12.9608 38.0772 12.9425 37.9829 13.2681C37.7516 13.1616 37.5416 13.0673 37.3317 12.9699C37.5751 12.0601 37.3895 11.5215 36.7839 11.4028C36.0749 11.2628 35.6428 11.6523 35.5333 12.5652C34.9764 12.2822 34.4317 12.0022 33.8535 11.7071C34.1091 11.7071 34.3282 11.7345 34.5351 11.698C34.6934 11.6706 34.876 11.5884 34.9672 11.4697C35.019 11.4028 34.9429 11.1776 34.8577 11.0802C34.6204 10.8094 34.3465 10.5659 34.0513 10.2769C37.1552 11.0467 39.9974 12.3583 42.7422 13.9011C42.73 13.9376 42.7117 13.9711 42.6935 14.0046Z" fill="#333333"/>
<path d="M14.5578 12.0506C14.5517 12.0232 14.5365 11.9958 14.5213 11.9837C14.1288 11.655 13.7332 11.3294 13.3285 11.016C13.2889 10.9856 13.158 11.013 13.1063 11.0586C12.8507 11.2777 12.6073 11.5151 12.3547 11.7433C12.0413 12.0263 11.6517 12.0993 11.2562 12.0689C10.465 12.0019 9.67683 11.8954 8.88564 11.8072C8.81261 11.7981 8.73957 11.7889 8.6209 11.7767C8.68176 13.2039 8.73957 14.6037 8.79739 16.0065C8.77913 16.0065 8.76087 16.0096 8.74262 16.0096C8.70914 15.6749 8.67568 15.3401 8.6422 15.0054C8.49309 13.5143 8.34094 12.0263 8.19792 10.5352C8.17357 10.2705 8.07315 10.1853 7.79624 10.1579C6.73118 10.0483 5.66917 9.90225 4.60716 9.7714C4.09289 9.7075 3.57556 9.64664 3.06129 9.57969C2.9487 9.56448 2.83915 9.53709 2.72656 9.51578C2.72961 9.49144 2.73266 9.47014 2.7357 9.4458C3.23171 9.47623 3.72772 9.4884 4.22069 9.53709C5.3466 9.6436 6.46948 9.75314 7.59539 9.88095C8.8765 10.027 10.1546 10.1822 11.4326 10.3496C11.9134 10.4135 12.3851 10.5261 12.8598 10.6143C13.5019 10.736 13.9949 11.1073 14.427 11.5668C14.6187 11.7707 14.6978 11.865 14.8013 11.8528L14.5578 12.0506Z" fill="#E30D16"/>
</svg>
