<svg width="33" height="34" viewBox="0 0 33 34" fill="none" xmlns="http://www.w3.org/2000/svg">
<path d="M17.7173 12.9236H13.921V9.12734C13.921 8.77808 13.6375 8.49463 13.2883 8.49463C12.939 8.49463 12.6556 8.77808 12.6556 9.12734V12.9236H8.85928C8.51002 12.9236 8.22656 13.2071 8.22656 13.5563C8.22656 13.9056 8.51002 14.1891 8.85928 14.1891H12.6556V17.9853C12.6556 18.3346 12.939 18.6181 13.2883 18.6181C13.6375 18.6181 13.921 18.3346 13.921 17.9853V14.1891H17.7173C18.0665 14.1891 18.35 13.9056 18.35 13.5563C18.35 13.2071 18.0665 12.9236 17.7173 12.9236Z" fill="#BEBEBE"/>
<path d="M32.0919 32.7107L22.6904 22.9333C25.0884 20.5284 26.574 17.213 26.574 13.5565C26.574 6.2297 20.6138 0.269531 13.287 0.269531C5.96017 0.269531 0 6.2297 0 13.5565C0 20.8834 5.96017 26.8435 13.287 26.8435C16.5031 26.8435 19.4547 25.6939 21.7552 23.7862L31.1795 33.5876C31.3035 33.7173 31.4693 33.7819 31.6357 33.7819C31.7939 33.7819 31.9514 33.723 32.0742 33.6053C32.326 33.363 32.3336 32.9625 32.0919 32.7107ZM1.26543 13.5565C1.26543 6.92758 6.65805 1.53496 13.287 1.53496C19.9159 1.53496 25.3086 6.92758 25.3086 13.5565C25.3086 20.1855 19.9159 25.5781 13.287 25.5781C6.65805 25.5781 1.26543 20.1855 1.26543 13.5565Z" fill="#BEBEBE"/>
</svg>
