<svg width="123" height="39" fill="none" xmlns="http://www.w3.org/2000/svg"><path d="M41.114 27.421h-1.95v5.212h.551v-1.646h1.4c1.325 0 2.129-.67 2.129-1.779 0-1.117-.804-1.787-2.13-1.787zm-.014 3.082h-1.385v-2.605H41.1c1.042 0 1.593.476 1.593 1.31 0 .819-.551 1.295-1.593 1.295zm4.461-1.816c-.618 0-1.198.194-1.593.528l.238.395c.32-.283.797-.462 1.303-.462.73 0 1.11.365 1.11 1.035v.239h-1.244c-1.124 0-1.511.506-1.511 1.109 0 .677.543 1.139 1.43 1.139.647 0 1.109-.246 1.347-.648v.61h.506v-2.426c0-1.013-.573-1.52-1.586-1.52zm-.186 3.566c-.625 0-.99-.283-.99-.737 0-.402.246-.7 1.005-.7h1.228v.64c-.208.514-.647.797-1.243.797zm5.005-1.66c.454-.15.76-.462.76-.871 0-.64-.686-1.05-1.58-1.05-.476 0-.967.112-1.45.365l.148.41c.417-.217.849-.32 1.25-.32.626 0 1.088.237 1.088.67 0 .386-.402.617-.975.617h-.64v.387h.67c.654 0 1.056.246 1.056.663 0 .476-.528.76-1.235.76-.477 0-.983-.15-1.348-.425l-.179.394c.417.32.99.484 1.549.484.975 0 1.757-.461 1.757-1.169 0-.461-.32-.789-.871-.915zm4.088-1.906c-.648 0-1.19.283-1.511.804v-.774h-.506v5.36h.528v-2.181c.328.506.864.774 1.49.774 1.116 0 1.95-.804 1.95-1.995 0-1.184-.834-1.988-1.95-1.988zm-.037 3.514c-.834 0-1.46-.61-1.46-1.526 0-.909.626-1.527 1.46-1.527.826 0 1.46.618 1.46 1.527 0 .915-.634 1.526-1.46 1.526zm4.449-3.514c-.618 0-1.199.194-1.593.528l.238.395c.32-.283.797-.462 1.303-.462.73 0 1.109.365 1.109 1.035v.239h-1.243c-1.124 0-1.511.506-1.511 1.109 0 .677.543 1.139 1.429 1.139.648 0 1.11-.246 1.347-.648v.61h.507v-2.426c0-1.013-.574-1.52-1.586-1.52zm-.186 3.566c-.626 0-.99-.283-.99-.737 0-.402.245-.7 1.005-.7h1.228v.64c-.208.514-.648.797-1.243.797zm5.077-3.439c-.737 0-1.325.364-1.638.967.052-1.25.559-1.809 1.668-2.054l1.653-.38-.09-.484-1.757.402c-1.332.313-1.98 1.132-1.98 2.836 0 1.594.73 2.576 2.047 2.576 1.169 0 1.973-.796 1.973-1.95 0-1.132-.774-1.913-1.876-1.913zm-.082 3.424c-.834 0-1.43-.618-1.43-1.496 0-.871.589-1.452 1.43-1.452s1.422.58 1.422 1.452c0 .878-.588 1.496-1.422 1.496zm4.706.432c1.147 0 1.988-.834 1.988-1.995 0-1.162-.841-1.988-1.988-1.988-1.146 0-1.995.826-1.995 1.988 0 1.161.849 1.995 1.995 1.995zm0-.47c-.833 0-1.459-.61-1.459-1.525 0-.916.626-1.527 1.46-1.527.833 0 1.451.611 1.451 1.527 0 .915-.618 1.526-1.452 1.526zm5.727-3.483H70.63v.469h1.482v3.447h.528v-3.447h1.482v-.47zm3.63 3.916h.626l-1.653-2.018 1.54-1.898h-.572l-1.378 1.72h-.9v-1.72h-.529v3.916h.529V30.89h.893l1.444 1.742zm2.734-3.946c-.617 0-1.198.194-1.593.528l.239.395c.32-.283.796-.462 1.302-.462.73 0 1.11.365 1.11 1.035v.239H80.3c-1.124 0-1.51.506-1.51 1.109 0 .677.542 1.139 1.428 1.139.648 0 1.11-.246 1.348-.648v.61h.506v-2.426c0-1.013-.573-1.52-1.586-1.52zm-.186 3.566c-.625 0-.99-.283-.99-.737 0-.402.246-.7 1.005-.7h1.229v.64c-.209.514-.648.797-1.244.797zm6.765.417c.663 0 1.221-.268 1.534-.775l-.395-.267c-.268.394-.684.573-1.139.573-.856 0-1.481-.603-1.481-1.526 0-.916.625-1.527 1.481-1.527.454 0 .871.187 1.14.581l.394-.268c-.313-.513-.871-.774-1.534-.774-1.168 0-2.017.819-2.017 1.988 0 1.168.849 1.995 2.017 1.995zm3.905-3.983c-.618 0-1.199.194-1.593.528l.238.395c.32-.283.797-.462 1.303-.462.73 0 1.109.365 1.109 1.035v.239h-1.243c-1.124 0-1.512.506-1.512 1.109 0 .677.544 1.139 1.43 1.139.648 0 1.11-.246 1.347-.648v.61h.506v-2.426c0-1.013-.573-1.52-1.585-1.52zm-.186 3.566c-.626 0-.99-.283-.99-.737 0-.402.245-.7 1.005-.7h1.228v.64c-.209.514-.648.797-1.243.797zm4.958-4.095c.662 0 1.102-.342 1.117-.967h-.38c-.015.394-.313.64-.737.64-.425 0-.722-.246-.73-.64h-.38c.015.625.447.967 1.11.967zm-1.78 4.474h.477l2.606-3.111v3.111h.528v-3.915h-.469l-2.613 3.111v-3.111h-.528v3.916zm7.88-3.915h-3.491v.469h1.481v3.447h.529v-3.447h1.481v-.47zm2.112-.03c-.618 0-1.198.194-1.593.528l.238.395c.32-.283.797-.462 1.303-.462.73 0 1.109.365 1.109 1.035v.239h-1.243c-1.124 0-1.511.506-1.511 1.109 0 .677.543 1.139 1.429 1.139.648 0 1.109-.246 1.348-.648v.61h.506v-2.426c0-1.013-.573-1.52-1.586-1.52zm-.186 3.566c-.625 0-.99-.283-.99-.737 0-.402.246-.7 1.005-.7h1.228v.64c-.208.514-.647.797-1.243.797z" fill="#9F9F9F"/><g clip-path="url(#clip0)" fill="#F3F2F2"><path d="M47.786 13.852c-.829-.765-2.072-1.113-3.591-1.113h-5.18V24.99h2.763v-3.48h2.417c1.519 0 2.762-.418 3.59-1.184.83-.765 1.244-1.88 1.244-3.341 0-1.323-.415-2.367-1.243-3.133zm-2.003 4.804c-.414.348-1.036.557-1.795.557h-2.28v-4.177h2.28c.76 0 1.38.14 1.795.487.414.348.621.835.621 1.532 0 .696-.207 1.253-.621 1.6zm8.081-5.917h-2.762V24.99h2.762V12.74zm13.672 0H64.29l-2.555 3.759-2.555-3.76h-3.176l4.074 5.987-4.42 6.265h3.246l2.831-4.037 2.831 4.037h3.315l-4.42-6.404 4.075-5.847zm4.972 7.239h5.87v-2.297h-5.87v-2.645H79v-2.297h-9.254V24.99h9.46v-2.297h-6.698v-2.715zm11.946-7.239H81.69V24.99h7.942v-2.366h-5.18v-9.885zm9.875 0h-2.763V24.99h2.763V12.74zm12.016.626c-.967-.556-2.072-.835-3.315-.835-1.243 0-2.348.279-3.314.835-.967.557-1.796 1.323-2.348 2.297-.553.975-.829 2.02-.829 3.203 0 1.183.276 2.297.829 3.202.552.974 1.38 1.74 2.348 2.297.966.557 2.071.835 3.314.835 1.243 0 2.348-.278 3.315-.835.967-.557 1.795-1.323 2.348-2.297.552-.975.828-2.019.828-3.202 0-1.184-.276-2.228-.828-3.202a5.771 5.771 0 00-2.348-2.298zm-.069 7.449a3.634 3.634 0 01-1.312 1.392c-.553.348-1.174.487-1.865.487-.69 0-1.312-.209-1.864-.557a4.408 4.408 0 01-1.381-1.392c-.346-.626-.484-1.253-.484-1.949 0-.696.138-1.392.484-1.95a3.34 3.34 0 011.381-1.391c.552-.348 1.174-.488 1.864-.488.691 0 1.312.14 1.865.488.552.348 1.036.835 1.312 1.392.345.626.483 1.253.483 1.949 0 .766-.138 1.462-.483 2.019zm13.81-8.075v7.935l-5.87-7.935h-2.486V24.99h2.625v-7.866l5.869 7.866h2.486V12.74h-2.624zM12.706 3.968l12.637 7.379v-1.74l-12.637-7.38L.07 9.538 0 9.607v1.74l12.706-7.38z"/><path d="M27.76 22.972l1.519-.905-.07-14.688L16.574 0l-1.589.905 12.707 7.379.069 14.688zM5.387 15.245l-1.52.835L3.8 30.838l12.637 7.379.069.07 1.52-.906-12.638-7.448V15.245z"/><path d="M14.225 7.588l-1.519-.836L.07 14.062l-.069.07v14.687l1.588.905V14.966l12.637-7.378zm17.333.835l.07 14.757-12.638 7.38 1.45.904 12.637-7.31.07-.069V9.327l-1.589-.904z"/><path d="M7.803 26.87v1.81l12.706 7.378.069-.07 12.499-7.378.069-.07V26.8l-12.637 7.38-12.706-7.31z"/><path d="M16.503 23.18l-3.038 1.95v2.088l3.038-2.019 3.108 2.019V25.13l-3.108-1.95zm-3.038-4.664v2.02l3.038 2.018 3.108-2.019v-2.019l-3.108 1.95-3.038-1.95zm7.735-6.821l-3.315 1.531v3.69l1.726 1.113v-3.69l3.315-1.53-1.727-1.114zm-6.009 1.531l-3.314-1.531-1.727 1.113 3.315 1.532v3.69l1.726-1.115v-3.689zM7.803 21.51l3.245 1.531 1.796-1.113-3.315-1.532v-3.69l-1.726 1.115v3.689zm17.541-3.69l-1.796-1.113v3.69l-3.245 1.53 1.726 1.114 3.315-1.531v-3.69z"/></g><defs><clipPath id="clip0"><path fill="#fff" d="M0 0h122.918v38.286H0z"/></clipPath></defs></svg>