<svg width="24" height="20" fill="none" xmlns="http://www.w3.org/2000/svg"><path d="M23.258.538C22.975.19 22.55 0 22.062 0c-.265 0-.546.056-.835.166L1.575 7.668C.532 8.066.392 8.663.401 8.984c.009.32.183.909 1.247 1.247a.703.703 0 00.019.006l4.076 1.167 2.205 6.304c.3.86.975 1.393 1.76 1.393.496 0 .984-.208 1.41-.6l2.521-2.322 3.658 2.945.036.029.01.008c.406.315.85.481 1.283.481.847 0 1.521-.626 1.718-1.596l3.22-15.9c.13-.638.02-1.21-.306-1.608zM7.107 11.182l7.865-4.018-4.897 5.204a.68.68 0 00-.165.303l-.945 3.825-1.858-5.314zm3.09 6.318a1.33 1.33 0 01-.099.081l.876-3.548 1.594 1.283-2.371 2.184zM22.23 1.876l-3.22 15.9c-.031.152-.13.506-.385.506-.126 0-.284-.069-.446-.193l-4.144-3.337-.002-.001-2.465-1.986L18.65 5.24a.68.68 0 00-.805-1.072l-11.648 5.95-4.132-1.181 19.647-7.5a.998.998 0 01.35-.077c.04 0 .115.005.142.04.037.043.083.194.026.476z" fill="#fff"/></svg>