<svg width="22" height="24" fill="none" xmlns="http://www.w3.org/2000/svg"><path d="M19.714 2.754C17.91.984 14.991.127 11.04.204 7.054.282 4.391.982 2.657 2.405.98 3.781.199 5.795.199 8.742v3.008c0 3.48 1.865 7.304 5.428 7.883a.754.754 0 10.242-1.49c-2.703-.439-4.16-3.621-4.16-6.393V8.742c0-4.226 1.565-6.876 9.36-7.03 3.533-.07 6.084.644 7.589 2.12 1.172 1.15 1.742 2.755 1.742 4.91v3.008c0 4.555-2.044 6.564-7.288 7.155H9.394c-.2 0-.392.08-.533.221l-2.62 2.62a.755.755 0 001.067 1.067l2.399-2.399h3.447a.724.724 0 00.084-.005c3-.333 5.056-1.114 6.466-2.457 1.484-1.413 2.205-3.442 2.205-6.202V8.742c0-2.545-.738-4.56-2.195-5.988z" fill="#fff"/><path d="M11.526 5.127c1.216 0 2.36.474 3.219 1.334a4.522 4.522 0 011.333 3.219.754.754 0 001.51 0 6.02 6.02 0 00-1.776-4.286 6.02 6.02 0 00-4.286-1.776.754.754 0 100 1.51z" fill="#fff"/><path d="M11.526 7.78a1.904 1.904 0 011.9 1.9.754.754 0 101.508 0 3.413 3.413 0 00-3.408-3.408.754.754 0 000 1.509zM8.143 9.073a.755.755 0 00.851 1.246c.27-.185.904-.618.86-1.484-.028-.519-.496-1.259-.883-1.788-.566-.775-1.055-1.242-1.448-1.386a1.672 1.672 0 00-1.142-.009c-.81.273-1.398.766-1.7 1.426-.295.643-.288 1.38.019 2.136.725 1.778 1.74 3.335 3.023 4.634 1.292 1.277 2.85 2.292 4.629 3.017.385.157.765.235 1.132.235a2.39 2.39 0 001.003-.216c.66-.303 1.153-.89 1.426-1.701.13-.39.128-.774-.008-1.139-.146-.396-.612-.884-1.387-1.45-.53-.388-1.27-.855-1.79-.883-.864-.044-1.297.589-1.482.86a.755.755 0 101.245.851c.082-.12.13-.174.156-.198.424.136 1.632 1.023 1.849 1.363.005.022.006.055-.014.115-.095.283-.28.652-.624.81-.322.147-.688.057-.937-.045-1.595-.65-2.986-1.556-4.13-2.686-1.138-1.15-2.044-2.543-2.693-4.136-.102-.25-.192-.616-.045-.938.157-.344.527-.53.809-.624.06-.02.093-.02.116-.014.34.218 1.227 1.425 1.363 1.849a1.221 1.221 0 01-.198.155z" fill="#fff"/></svg>