<svg width="21" height="21" fill="none" xmlns="http://www.w3.org/2000/svg"><path d="M20.737 6.184c-.05-1.101-.225-1.854-.48-2.512a5.073 5.073 0 00-1.195-1.833A5.074 5.074 0 0017.23.645c-.658-.256-1.41-.43-2.512-.48C13.613.113 13.26.101 10.45.101c-2.811 0-3.164.012-4.268.062-1.101.05-1.854.225-2.512.481-.69.26-1.316.667-1.833 1.194A5.073 5.073 0 00.643 3.672c-.256.658-.43 1.41-.48 2.512C.111 7.288.1 7.641.1 10.451c0 2.811.012 3.164.062 4.268.05 1.101.225 1.854.481 2.512.26.69.667 1.316 1.194 1.833a5.07 5.07 0 001.833 1.194c.658.256 1.41.431 2.513.481 1.103.05 1.456.063 4.267.063 2.81 0 3.163-.012 4.267-.063 1.102-.05 1.854-.225 2.512-.48a5.291 5.291 0 003.027-3.028c.256-.658.431-1.41.481-2.512.05-1.104.063-1.457.063-4.267 0-2.811-.012-3.164-.063-4.268zm-1.863 8.45c-.046 1.01-.214 1.557-.356 1.922a3.427 3.427 0 01-1.964 1.964c-.365.142-.913.31-1.922.357-1.091.05-1.419.06-4.182.06-2.764 0-3.092-.01-4.183-.06-1.009-.046-1.557-.215-1.922-.357a3.207 3.207 0 01-1.19-.774 3.205 3.205 0 01-.774-1.19c-.142-.365-.31-.913-.356-1.922-.05-1.091-.06-1.419-.06-4.182 0-2.764.01-3.091.06-4.183.046-1.009.214-1.557.356-1.921.166-.45.43-.857.774-1.19.334-.344.74-.609 1.19-.775.365-.142.913-.31 1.922-.356 1.092-.05 1.419-.06 4.183-.06 2.763 0 3.09.01 4.182.06 1.009.046 1.557.215 1.922.356.45.166.856.43 1.19.774.343.334.608.74.774 1.19.142.365.31.913.356 1.922.05 1.092.06 1.419.06 4.183 0 2.763-.01 3.09-.06 4.182z" fill="#fff"/><path d="M10.449 5.03a5.421 5.421 0 100 10.843 5.421 5.421 0 000-10.843zm0 8.94a3.52 3.52 0 110-7.038 3.52 3.52 0 010 7.039zm6.901-9.186a1.232 1.232 0 11-2.465 0 1.232 1.232 0 012.464 0z" fill="#fff"/></svg>