<svg width="207" height="111" fill="none" xmlns="http://www.w3.org/2000/svg"><circle cx="54" cy="55" r="54" fill="#F3F2F2"/><path stroke="#F32E2F" stroke-linecap="round" stroke-linejoin="round" d="M115.467 66.246h90.517"/><path d="M118.217 79.542a3.15 3.15 0 01-1.54-.374 2.733 2.733 0 01-1.056-1.045 3.063 3.063 0 01-.385-1.529c0-.564.129-1.07.385-1.518a2.733 2.733 0 011.056-1.045 3.15 3.15 0 011.54-.374c.499 0 .943.1 1.331.297.396.191.708.473.935.847l-.583.396a1.774 1.774 0 00-.726-.638 2.107 2.107 0 00-.957-.22 2.27 2.27 0 00-1.133.286c-.33.184-.59.448-.781.792a2.471 2.471 0 00-.275 1.177c0 .448.092.844.275 1.188.191.338.451.602.781.792.338.184.715.275 1.133.275a2.2 2.2 0 00.957-.209c.294-.139.536-.352.726-.638l.583.396c-.227.374-.539.66-.935.858a3.022 3.022 0 01-1.331.286zm6.663-5.885c.726 0 1.301.213 1.727.638.432.418.649 1.03.649 1.837v3.355h-.781V76.21c0-.601-.151-1.06-.451-1.375-.301-.315-.73-.473-1.287-.473-.624 0-1.119.187-1.485.561-.36.367-.539.877-.539 1.53v3.035h-.781v-8.162h.781v3.388c.212-.337.506-.597.88-.78a2.888 2.888 0 011.287-.276zm4.496.044h.781v5.786h-.781v-5.786zm.396-1.265a.554.554 0 01-.407-.165.54.54 0 01-.165-.396c0-.146.055-.275.165-.385a.554.554 0 01.407-.165c.161 0 .297.055.407.165.11.103.165.228.165.374a.553.553 0 01-.165.407.554.554 0 01-.407.165zm4.956 7.106a3.15 3.15 0 01-1.54-.374 2.733 2.733 0 01-1.056-1.045 3.063 3.063 0 01-.385-1.529c0-.564.129-1.07.385-1.518a2.733 2.733 0 011.056-1.045 3.15 3.15 0 011.54-.374c.499 0 .943.1 1.331.297.396.191.708.473.935.847l-.583.396a1.774 1.774 0 00-.726-.638 2.107 2.107 0 00-.957-.22 2.27 2.27 0 00-1.133.286c-.33.184-.59.448-.781.792a2.471 2.471 0 00-.275 1.177c0 .448.092.844.275 1.188.191.338.451.602.781.792.338.184.715.275 1.133.275a2.2 2.2 0 00.957-.209c.294-.139.536-.352.726-.638l.583.396c-.227.374-.539.66-.935.858a3.022 3.022 0 01-1.331.286zm13.895-5.885c.726 0 1.295.21 1.705.627.418.418.627 1.034.627 1.848v3.355h-.781V76.21c0-.601-.146-1.06-.44-1.375-.286-.315-.693-.473-1.221-.473-.601 0-1.074.187-1.419.561-.344.367-.517.877-.517 1.53v3.035h-.781V76.21c0-.601-.146-1.06-.44-1.375-.286-.315-.696-.473-1.232-.473-.594 0-1.067.187-1.419.561-.344.367-.517.877-.517 1.53v3.035h-.781v-5.786h.748v1.056c.206-.352.492-.623.858-.814.367-.19.789-.286 1.265-.286.484 0 .902.103 1.254.308.36.206.627.51.803.913a2.23 2.23 0 01.913-.89c.404-.22.862-.33 1.375-.33zm9.51 3.18h-4.84c.044.6.275 1.088.693 1.462.418.367.946.55 1.584.55.359 0 .689-.062.99-.187a2.21 2.21 0 00.781-.572l.44.506a2.47 2.47 0 01-.968.704 3.214 3.214 0 01-1.265.242c-.594 0-1.122-.124-1.584-.374a2.786 2.786 0 01-1.067-1.056 2.991 2.991 0 01-.385-1.518c0-.564.121-1.07.363-1.518a2.72 2.72 0 011.012-1.045 2.86 2.86 0 011.452-.374 2.8 2.8 0 011.441.374c.425.25.759.598 1.001 1.045.242.44.363.946.363 1.518l-.011.242zm-2.794-2.509c-.557 0-1.027.18-1.408.54-.374.351-.587.813-.638 1.385h4.103c-.051-.572-.268-1.034-.649-1.386-.374-.359-.843-.539-1.408-.539zm4.483 4.015a.55.55 0 01.418.176c.11.11.165.25.165.418 0 .088-.015.184-.044.286-.022.103-.059.22-.11.352l-.462 1.518h-.528l.374-1.595a.56.56 0 01-.286-.198.604.604 0 01-.11-.363c0-.168.055-.308.165-.418a.548.548 0 01.418-.176zm8.102-4.686a2.94 2.94 0 011.474.374c.44.242.785.587 1.034 1.034.25.448.374.957.374 1.53 0 .579-.124 1.092-.374 1.54a2.67 2.67 0 01-1.034 1.044 2.966 2.966 0 01-1.474.363c-.469 0-.894-.095-1.276-.286a2.463 2.463 0 01-.924-.858v3.223h-.781v-7.92h.748v1.144c.235-.381.543-.674.924-.88a2.76 2.76 0 011.309-.308zm-.055 5.192c.404 0 .77-.091 1.1-.275.33-.19.587-.458.77-.803.191-.344.286-.737.286-1.177 0-.44-.095-.828-.286-1.166a1.98 1.98 0 00-.77-.803 2.157 2.157 0 00-1.1-.286c-.41 0-.781.096-1.111.286a2.095 2.095 0 00-.77.803 2.407 2.407 0 00-.275 1.166c0 .44.092.833.275 1.177.191.345.448.613.77.803.33.184.701.275 1.111.275zm4.53-7.524h.781v8.162h-.781v-8.162zm7.992 5.511h-4.84c.044.602.275 1.09.693 1.463.418.367.946.55 1.584.55.359 0 .689-.062.99-.187.3-.132.561-.322.781-.572l.44.506c-.257.308-.58.543-.968.704a3.218 3.218 0 01-1.265.242c-.594 0-1.122-.124-1.584-.374a2.779 2.779 0 01-1.067-1.056 2.991 2.991 0 01-.385-1.518c0-.564.121-1.07.363-1.518a2.712 2.712 0 011.012-1.045 2.855 2.855 0 011.452-.374c.535 0 1.015.125 1.441.374.425.25.759.598 1.001 1.045.242.44.363.946.363 1.518l-.011.242zm-2.794-2.508c-.558 0-1.027.18-1.408.54-.374.351-.587.813-.638 1.385h4.103c-.052-.572-.268-1.034-.649-1.386-.374-.359-.844-.539-1.408-.539zm6.257-.67c.756 0 1.335.19 1.738.571.404.374.605.932.605 1.672v3.586h-.748v-.902a1.777 1.777 0 01-.781.704c-.337.169-.74.253-1.21.253-.645 0-1.158-.154-1.54-.462-.381-.308-.572-.715-.572-1.22 0-.492.176-.888.528-1.189.36-.3.928-.45 1.705-.45h1.837v-.353c0-.498-.139-.876-.418-1.133-.278-.264-.685-.396-1.221-.396-.366 0-.718.063-1.056.187a2.589 2.589 0 00-.869.495l-.352-.583c.294-.249.646-.44 1.056-.572a4.026 4.026 0 011.298-.209zm-.275 5.268c.44 0 .818-.099 1.133-.297a1.83 1.83 0 00.704-.88v-.946h-1.815c-.99 0-1.485.345-1.485 1.034 0 .338.129.605.385.803.257.191.616.286 1.078.286zm6.29.616c-.469 0-.92-.066-1.353-.198-.425-.139-.759-.311-1.001-.517l.352-.616c.242.191.547.349.913.473.367.118.748.176 1.144.176.528 0 .917-.08 1.166-.242a.797.797 0 00.385-.704c0-.212-.069-.377-.209-.495a1.29 1.29 0 00-.528-.275 6.637 6.637 0 00-.847-.187 10.728 10.728 0 01-1.133-.264 1.753 1.753 0 01-.737-.473c-.198-.22-.297-.524-.297-.913 0-.484.202-.88.605-1.188.404-.308.965-.462 1.683-.462.374 0 .748.052 1.122.154.374.096.682.224.924.385l-.341.627c-.476-.33-1.045-.495-1.705-.495-.498 0-.876.088-1.133.264-.249.176-.374.407-.374.693 0 .22.07.396.209.528.147.132.327.231.539.297.213.059.506.121.88.187.462.088.833.176 1.111.264.279.088.517.239.715.451.198.213.297.506.297.88 0 .506-.212.91-.638 1.21-.418.294-1.001.44-1.749.44zm8.869-2.706h-4.84c.044.602.275 1.09.693 1.463.418.367.946.55 1.584.55.36 0 .69-.062.99-.187a2.21 2.21 0 00.781-.572l.44.506a2.462 2.462 0 01-.968.704 3.214 3.214 0 01-1.265.242c-.594 0-1.122-.124-1.584-.374a2.793 2.793 0 01-1.067-1.056 3.002 3.002 0 01-.385-1.518c0-.564.121-1.07.363-1.518.25-.447.587-.795 1.012-1.045a2.86 2.86 0 011.452-.374c.536 0 1.016.125 1.441.374.426.25.759.598 1.001 1.045.242.44.363.946.363 1.518l-.011.242zm-2.794-2.508c-.557 0-1.026.18-1.408.54-.374.351-.586.813-.638 1.385h4.103c-.051-.572-.267-1.034-.649-1.386-.374-.359-.843-.539-1.408-.539z" fill="#9F9F9F"/><path d="M50.625 55.14c.051-.387 1.175-2.36 1.394-2.6.219-.25.81-.636.977-.733.168-.096.32.031.895.138.57.117.947.04 1.405-.188.458-.23 1.134-.168 1.541 0 .407.168 2.05 2.045 2.213 2.253.27.357-.081.774-.112.825-.03.05-.188.01-.3.03-.112.01.04.524.04.524s.128.478.179.834c.05.357-.438.723-.438.723s-.768-.26-.997-.438c-.229-.178-.717-.26-.926-.26-.218 0-.539.27-.498.596.04.326.178.743.178.743s-1.323.03-1.725.071c-.397.04-1.582.346-2.04.23-.458-.118-.697-.825-.677-1.044.01-.219-.091-.595-.127-.636-.03-.04-.178-.091-.529-.157-.361-.051-.504-.525-.453-.911zm5.368.346c.081.3.498.3.498.3.3.305.351-.188.051-.488l-.127-.128c-.53-.427-.509.005-.422.316zm.173-2.086c.05.107.091-.544.208-.499.397.148.54-.514.148-.646a1.212 1.212 0 00-.331-.081c-.417-.061-.198.89-.025 1.226zm-1.654 2.691l.127-.127c-.06-.585-.188-.743-.488-.438l-.127.128c-.3.3.188.742.488.437zm-.58-2.966c.32.27.26-.02 0-.356-.3-.387-.687-.554-1.155-.158-.32.27-.091.667.23.397.238-.193.666-.102.925.117zm-.967 2.997c.25-.24.27-.962-.03-.657-.438.418-.27.952.03.657z" fill="#F32E2F"/><path d="M50.266 49.06c-.677.753-.936 2.264.3 2.61a.22.22 0 00.25-.102c.197-.28-.352-.407-.48-.534-.549-.565-.218-1.292.021-1.923.036-.051-.046-.097-.091-.051zm1.21.758c-.111.218-.208.488-.111.732.06.158.28.26.417.117.01-.01.02-.02.03-.04.01.06.041.127.102.157.31.189.666-.03.768-.356.112-.346-.071-.585-.3-.793.071-.189-.127-.448-.34-.316a2.32 2.32 0 00-.418.305c-.04.031-.081.061-.092.128-.015.015-.035.035-.055.066zM34.088 74.38c.01-.02 0-.051-.03-.031-3.745 2.518-7.103 5.983-10.14 9.29-2.681 2.935-5.001 6.161-5.907 10.099-.101.437.57.626.667.188 1.964-8.654 10.078-13.207 15.41-19.546zm17.639-28.623c-.051-.082-.178-.061-.168.05.02.449.188.784.081 1.232-.127.534-.127.875.158 1.348.03.051.102.01.071-.05-.26-.555.051-.993.102-1.547.036-.351-.081-.738-.244-1.033zm-13.01-6.187c-.02.041.021.072.052.041 1.007-.844 1.963-1.348 3.037-1.608.57-.04 1.145-.091 1.725-.137 1.165-.03 2.31.071 3.444.499.219.081.427-.168.366-.367-.03-.107-.07-.178-.112-.27.29.189.448.306.667.576.04.05-.112.091-.112.137 0 .158.646-.061.488-.26-.188-.239-.28-.427-.519-.615-.229-.178-.396-.25-.656-.377-.04-.02-.04.03-.01.062.137.091.27.218.397.356a1.066 1.066 0 00-.341-.107c-.01 0-.01 0-.02.01-.27-.458-.697-.712-1.323-.814-1.267-.219-3.058-.137-4.264.29-.147.05-.208.239-.167.366-.138.04-.28.072-.418.127a.107.107 0 00.03.209h.042c-.977.315-1.837.89-2.305 1.882zm14.963 3.536c.02.148-.188.148-.239.03a1.686 1.686 0 01.092-1.49.164.164 0 01-.092-.03c-1.058-.733-2.004-.138-3.088.106.478.418.906.911.997 1.537.051.326-.437.478-.498.137-.158-.824-.957-1.724-1.873-2.304.092.315-.01.635.341.824.835.447 1.323 1.45 1.176 2.39-.041.28-.138.555-.25.815-1.104 2.701-3.515 4.843-6.334 5.586-.59.158-1.206.127-1.831.117-2.005-.04-5.887-4.813-6.085-6.827-.061-.626-.148-1.318.25-1.806.238-.306.615-.479.976-.626.789-.336 1.903-.855 5.49-1.053 1.455-.082 2.559-.458 4.355-.189 0 0 0-.01.01-.01 1.007-.117 1.694.158 2.498.794.218.168.447.346.666.534.092-.081.188-.168.29-.229-.885-.636-1.663-1.318-2.701-1.735-1.094-.437-2.183-.498-3.338-.676-.03 0-.02-.051 0-.051 2.06-.626 5.108.498 6.314 2.304.895-.498 2.05-.585 2.88.072.02.01.03.03.04.05.57-.773 1.613-1.358 2.34-1.755.092-.05.199.072.112.158-.961.895-2.666 1.74-2.498 3.327zm-11.991 1.14c-.112-.158-.356-.28-.55-.199-.04.02-.07.041-.111.061-.02-.01-.03-.02-.051-.02a.605.605 0 00-.3-.01c-.428-.05-.855.127-1.074.565-.29.605.01 1.409.616 1.689.508.239 1.124.06 1.475-.366.433-.5.372-1.201-.005-1.72zm13.518 3.444c-.102-.315.04-.585-.377-1.14-.198-.27-.468-.488-.666-.773-.377-.534-.718-1.15-.799-1.796-.01-.04.05-.05.071-.02.01.01.02.03.02.04-.111-.228-.228-.457-.32-.712v-.02c-2.172.326-2.091 2.549-2.788 4.11a7.07 7.07 0 01-1.755 2.382c-1.216 1.084-2.798 1.775-4.442 2.055-1.913.687-3.973.972-5.759-.219-.778-.524-1.363-1.2-1.81-1.974-.418-.447-.835-.875-1.258-1.18-.091.407-.31.687-.605 1.002.092-.06.178-.137.27-.198a.239.239 0 01.218-.01c.031-.051.112-.051.128.01.081.336.05.656-.03.972 0 .137-.021.26-.052.397a1.1 1.1 0 01.377-.326c.04-.188.081-.366.127-.544.02-.082.158-.051.137.04a3.712 3.712 0 00-.05 1.11c.02-.01.04-.021.06.01.906 1.282 1.084 2.859.56 4.365-.04.117-.25.157-.27 0-.198-1.38.128-2.87-.33-4.208.06.596.188 1.17.198 1.786 0 .137-.178.178-.25.061a2.334 2.334 0 01-.238-.544.87.87 0 01-.072.28c.113.386.27.814.113 1.129-.092.188-.352.315-.397.514-.061.27.29.742.386 1.012.061.199-.208.417-.35.27-.082-.092-.23-.448-.23-.448-.157-.336-.33-.687-.249-1.033-.895.387-.967-.554-1.516-.865-.082-.03-.219-.259-.26-.346a11.819 11.819 0 00.51 6.212c.05.138-.138.22-.22.128-2.35-2.244-1.246-6.212-.396-9.565.167-1.888.28-3.831.457-5.764a.285.285 0 01-.208-.23c-.697-3.611.26-7.274 1.333-10.709.02-.07.127-.04.102.031-.54 2.284-.626 4.553-.667 6.838.071-.387.158-.763.25-1.15.758-3.068 2.828-5.927 4.63-8.466 2.09-2.935 4.94-5.418 7.468-8.1a.65.65 0 01.147-.228c.25-.27.499-.534.779-.784 1.963-2.213 3.637-4.594 4.451-7.473-11.95 2.014-17.2 15.73-22.187 25.229-.07.148-.32.04-.27-.117 1.496-4.386 4.015-8.527 6.467-12.434 2.223-3.541 4.41-7.056 7.708-9.707 2.859-2.295 5.377-2.737 8.725-3.623 2.528-.666 2.04-3.296 1.312-5.51-.636-.498-1.134-1.129-1.862-1.536-.834-.468-2.569-1.073-3.474-.585-.041.02-.082-.03-.051-.06 1.485-1.222 3.627-.377 4.94.94-.02-.05-.041-.117-.061-.168-.01-.03.03-.05.05-.02.062.117.113.24.179.366.28.3.508.626.686.952.051.107-.01.229-.101.27.737 1.638 1.287 3.332.758 4.507 1.175 1.272 2.549 2.473 3.866 3.714-.188-1.023-.35-2.066-.529-3.109a5.156 5.156 0 01-.427-.854c-.04-.127.127-.209.208-.127.02.02.041.03.051.05-.218-1.22-.468-2.431-.819-3.602-1.195-3.958-4.99-8.018-9.463-7.026 1.425 1.033 1.934 2.768.397 4.198-1.343 1.23-4.105 1.668-5.759 2.35-2.87 1.18-5.596 2.63-7.24 5.388-.101.178-.376.02-.28-.168 1.298-2.35 3.318-3.76 5.709-4.884 1.79-.845 7.84-2.035 8.11-4.289.239-1.954-2.712-2.798-4.086-2.747-1.394.05-2.818.646-3.973 1.368-1.628 1.023-3.083 2.371-4.32 3.872-2.68 3.256-4.095 7.275-5.616 11.157-.03.092-.178.05-.148-.04 1.241-4.101 2.925-8.37 5.586-11.794-4.482.418-9.122 3.307-10.597 7.713-.499 1.47-.53 2.986-1.364 4.335-1.124 1.836-2.172 3.205-2.538 5.438-.041.24-.418.22-.468 0-.407-1.846-.041-3.225 1.175-4.665.05-.061.168.02.112.092-.677.763-1.018 1.628-1.028 2.61-.178 1.083-.178 1.24 0 .498.219-.387.29-.941.478-1.348.479-1.063 1.267-1.857 1.862-2.839.616-1.012.896-2.106 1.186-3.205-3.109 2.34-5.805 5.25-4.91 9.468.423 1.964 1.064 3.53.774 5.576-.22 1.546-.82 3.027-.906 4.594-.102 1.837.458 3.581 1.114 5.26 1.155 2.997 2.56 5.953 4.096 8.771.198-1.577.3-3.154.03-4.685-.01-.051.061-.072.072-.02.976 2.965-.072 5.708-.01 8.745.06 2.798.386 4.477 2.67 6.482.728.625 1.552 1.17 2.34 1.734-.768-1.857-1.505-3.75-2.299-5.596-.02-.04.03-.071.061-.03a41.009 41.009 0 012.36 4.487c.748 1.658 1.405 4.385 3.674 4.426.356.01.356.534 0 .555-1.455.08-2.28-.357-2.88-1.69-.168-.376-.32-.753-.488-1.129a.29.29 0 01-.219-.04c-1.831-1.293-4.94-2.789-5.55-5.114-.626-2.38-.22-4.833.111-7.275-.137.03-.27-.02-.35-.168-1.802-3.256-3.536-6.74-4.712-10.282-1.185-3.561-.05-6.125.23-9.676.269-3.353-1.842-6.182-.26-9.448 1.048-2.172 3.047-3.902 5.098-5.103.31-1.22.646-2.432 1.424-3.54 2.35-3.333 6.248-5.241 10.231-5.546.168-.199.32-.407.499-.595C39.098 1.78 43.163-.956 46.755.85c.102.05.199.107.29.168a.206.206 0 01.071-.199c2.371-2.014 5.098.082 6.98 2.035 5.597 1.272 10.298 4.04 12.541 9.606 2.442 6.064 1.466 13.05-.717 19.043-.02.04-.04.07-.061.116.158.336.34.667.595 1.023.397.575.55 1.12.718 1.786.208.794.926 2.62.32 3.363-.091.127-.33.05-.35-.092-.25-1.399-.159-2.839-.79-4.177-.656-1.368-2.131-2.462-1.714-4.11 0-4.269.438-8.319-2.172-12.048-1.074-1.526-2.941-2.559-4.152-3.968.082.865.138 1.745.199 2.6 1.424 1.358 2.788 2.767 3.734 4.405 1.592 2.738 1.704 5.668 1.145 8.665.157.524.29 1.053.366 1.617.03.22-.28.418-.397.168-.727-1.556-1.257-3.215-2.213-4.655-.875-1.328-2.101-2.274-3.317-3.266-1.496-1.221-2.91-2.59-4.752-3.246-.997-.356-1.664-.448-2.422-1.21-.101-.108.03-.27.158-.2 1.593.876 3.399.886 4.96 1.878 1.206.773 2.29 1.796 3.379 2.712 1.923 1.638 3.434 3.642 4.192 6.013.57-4.1-1.018-7.941-3.897-10.836-1.791-1.796-3.913-3.287-5.22-5.49-.407.499-1.104.865-2.183 1.023-.01 0-.03.01-.04.01.02.03.04.061.04.107.092 2.483-1.216 4.655-2.966 6.64.896.02 1.735.488 2.63.645.158-.06.3-.03.418.041.147.01.29 0 .437 0 .189-.137.438-.117.626 0 .168.01.32.04.488.107.082.03.158.117.199.209a.92.92 0 01.157-.082c.357-.158.759.148.708.468.188.107.32.23.529.585.926.305 1.943 1.557 2.559 2.035.997.794 2.233 1.4 2.91 2.442.02 0 .03.01.05.01.321.082.388.397.27.626.01.03.02.061.031.082.02.04.05.081.071.127.01.01.01.01.01.02.01.01.01.02.02.03.25-.03.53.092.647.316.529.972.529 2.183.799 3.256.417 1.679.834 3.363 1.256 5.042.02-.01.04-.01.061-.01.061.28.148.575.209.855a.392.392 0 01-.178.427c.397.01.788.03 1.175.06.04 0 .04.062 0 .062-1.821.127-3.627.326-5.439.488.062 0 .112-.01.178-.01.02 0 .02.03 0 .03-.997.138-2.04.24-3.006.5-1.313.345-2.183 1.302-3.236 2.085-.081.061-.198-.06-.148-.147.26-.428.56-.774.886-1.053a4.06 4.06 0 00-.28.167c-.158.107-.32-.127-.198-.249 1.124-1.109 2.798-1.796 4.375-1.597.05.01.071.081.01.091-.05.01-.102.03-.168.051a19.419 19.419 0 012.976-.427 3.325 3.325 0 00-1.058-.677c-.06.04-.137.05-.229.04a9.192 9.192 0 00-3.515.148.306.306 0 01-.26-.06.318.318 0 01-.198-.041c-.168.178-.32.356-.417.447-.148.148-.367.072-.438-.081-.209.219-.417.447-.626.666-.137.148-.386 0-.33-.188.229-.773.55-1.368 1.216-1.836.03-.02.081.02.06.06a6.01 6.01 0 00-.498.753 8.458 8.458 0 011.165-1.129.261.261 0 01.438.148c.229-.117.458-.168.676-.107.102.03.148.091.178.178.789-.305 1.527-.346 2.381-.092.209.061.25.25.178.397.489.137.896.326 1.257.595-.081-.325-.102-.676-.127-1.033.127.072.26.138.386.199 0-.02-.01-.03-.01-.05-.498-1.44-.956-2.9-1.414-4.356-1.018-1.262-2.111-2.294-3.485-3.164a.423.423 0 01-.188-.346.453.453 0 01-.127-.397c-.072.06-.148.117-.22.178a.186.186 0 01-.137.05c-.32.23-.905-.02-.748-.498a4.1 4.1 0 01.906-1.546 10.6 10.6 0 00-.834.753c-.102.28-.188.554-.26.783-.091.326-.595.427-.758.092a.937.937 0 01-.071-.596c-.061.117-.137.23-.188.357-.178.356-.677.091-.616-.26.071-.356.168-.687.27-1.012-.356.417-.707.834-1.048 1.271-.26.336-.728-.091-.56-.427.58-1.16 1.196-2.38 2.03-3.393a19.283 19.283 0 00-3.195 3.571c-.219.316-.58.199-.687-.071a2.82 2.82 0 01-.768.305.512.512 0 01-.56-.27.478.478 0 01-.488.092c-.219.326-.687.199-.809-.147-.02.07-.05.137-.081.198-.168.514-.906.417-.926-.127-.02-.606.071-1.15.249-1.648-.26.356-.519.732-.758 1.129-.102.219-.178.336-.488.773-.148.209-.51.336-.697.092-.02-.02-.03-.04-.041-.061-.28.198-.758.071-.738-.336-.219.27-.447.544-.707.814-.34.366-.865-.107-.656-.514.229-.448.488-.885.768-1.317-.29.29-.57.584-.82.875-1.83 2.085-3.596 4.395-5.072 6.827-.717 1.857-1.058 3.195-2.162 4.375-.03.107-.07.209-.101.316a6.753 6.753 0 001.653-1.954c.01-.01.03 0 .03.01-.218.825-.518 1.547-1.134 2.162-.127.128-.26.23-.397.336.04-.01.071-.03.112-.04.31-.092.468.335.209.498-.3.199-.616.387-.916.585a2.71 2.71 0 00-.05.28c.33-.127.778-.239 1.006-.448.051-.05.128.02.072.072-.168.188-.351.417-.57.554-.199.117-.407.199-.606.305l-.091.555h.01c.148-.188.366-.356.677-.514 2.142-1.053 5.667-1.43 8.048-1.379.01 0 .02.02 0 .02-1.755.479-3.607.647-5.398 1.044-1.027.229-2.89.315-3.068 1.775-.05.407.31 1.211.428 1.598 1.048 3.495 3.057 6.888 6.782 7.723 3.754-.575 6.781-1.42 8.287-5.322.626-1.608.997-3.622 3.068-3.017.081.02.061.137-.02.148h-.02c1.073 2.294 2.975 4.406 5.25 5.52 1.236.605 2.828 1.083 4.212 1.012 1.801-.107 3.007-.855 3.994-2.106.865-1.715 1.445-3.226 1.592-5.19.051-.722.178-1.607.061-2.32-.198-1.2-1.124-1.877-2.141-2.37-.02-.01-.01-.04.01-.04 2.452.208 2.63.884 2.691 3.194.061 1.994-.112 4.238-1.094 6.034a.31.31 0 01-.04.148c-.3.498-.636.94-.977 1.327-.428 2.152-.489 4.564-1.323 6.548-.127 1.587-.102 2.401-.885 4.365-.148.377-.616.071-.468-.295.625-1.567.625-2.193.758-3.8 0-.02-.01-.03 0-.061 0-.01 0-.01.01-.02.01-.357.02-.718 0-1.11-.04-.961-.102-1.877-.082-2.808-.06.02-.127.04-.188.02-.926-.168-1.78-.447-2.65-.793a.237.237 0 01-.128-.117h-.02c-.03 0-.05-.031-.05-.062a9.215 9.215 0 01-1.842-.447c-1.812-.626-3.267-1.588-4.442-2.85.01.169-.01.377.02.555.041.22.24.29.418.438.101.081.157.168.228.239.26.25.367.753.387 1.073.02.545-.091 1.074-.519 1.44-.04.04-.101-.01-.081-.06.208-.398.386-.845.33-1.303-.02-.219-.157-.448-.228-.657-.072-.188-.072-.188-.178-.27-.168-.167-.189-.187-.341-.365a4.574 4.574 0 00-.199-.23l-.147-.254zm10.18 5.795c.387-1.587.666-3.205 1.165-4.742-.33.326-.666.616-1.028.845-.208 1.328-.168 2.62-.137 3.897zm-31.431-6.558c.01.117.02.24.02.356.127-.137.25-.27.367-.407.01-.03.01-.071.02-.107a.3.3 0 01.26-.28c.06-.091.111-.188.157-.29a5.98 5.98 0 00-.824.728zm.31-4.508a55.325 55.325 0 00-.188 1.868c.158-.22.31-.438.488-.657 0-.01 0-.02-.01-.02-.112-.443-.229-.83-.29-1.19zm23.678-4.334c-.407.117-.799.239-1.186.376.387-.081.769-.137 1.176-.178-.061-.05-.061-.157.01-.198zm-3.277-14.601c-.02-.01-.05-.01-.07-.02-.082.126-.179.248-.26.376a4.44 4.44 0 01.33-.357zm1.583 1.175c-.01 0-.01-.01-.02-.01-.021.02-.041.03-.062.05l.082-.04zm1.694 1.378c-.23-.167-.438-.315-.616-.447-.198.178-.386.376-.54.534a3.185 3.185 0 00-.548.773 3.743 3.743 0 011.704-.86zm2.66 3.77h-.01c0 .01 0 .02.01.03h.01c-.01-.01-.01-.02-.01-.03zM54.459 3.17l.595.656c2.101 2.412 2.808 5.418 3.15 8.496 2.141 2.035 4.583 3.694 5.875 6.482 1.476 3.195 1.695 7.173.947 10.587.137.387.26.753.376 1.094 1.476-5.53 2.88-11.233 1.008-16.87-1.028-3.099-2.941-5.994-5.74-7.744-1.927-1.2-4.15-1.785-6.211-2.701zm.519 46.002c-.127 0-.209.081-.28.178-.04.01-.071.02-.082.07a1.6 1.6 0 00-.05.306c-.127.23-.26.468-.24.712.01.051.051.072.092.041.168-.137.24-.346.29-.554a.81.81 0 00.219.417c.356.386.997-.117.717-.555-.132-.218-.361-.626-.666-.615zm-.341-5.2c-.178-.677-.092-1.526.168-2.142 0 0 1.277-1.638 2.269-2.162.987-.524 3.734-1.14 5.728-1.18 2.005-.051 3.816 1.043 4.366 1.669.549.625.27 1.19.218 2.518-.05 1.328-.656 2.203-1.155 3.673-.488 1.47-1.704 2.391-3.693 2.493-1.984.107-3.607-.712-4.94-1.547-1.328-.824-2.783-2.64-2.961-3.322zm8.455 1.547c.209-1.526 0-2.412.209-3.938.071-.565-.605-.377-.677.188-.208 1.526-.02 2.671-.229 4.198-.086.574.621.117.697-.448zm-7.57-2.015c-.03.575.25 1.242.779 1.5.819.408 1.592-.238 1.622-1.083.031-.712-.549-1.816-1.404-1.556-.06.02-.112.05-.168.08a.793.793 0 00-.396.138c-.29.214-.413.565-.433.921zM33.37 85.207c-.209-.616-.855-.722-1.425-.845-.788-.167-1.562-.315-2.36-.127-.041.01-.051.071-.01.092 1.144.514 2.442.615 3.617 1.043.107.056.208-.056.178-.163zm16.377-.178c.417.386.788.773 1.246 1.109.366.26.855.783 1.323.753.102-.01.168-.117.112-.209-.198-.397-.82-.575-1.185-.803-.489-.3-1.008-.565-1.476-.876-.02-.015-.04.016-.02.026zm1.424 18.376c-4.99-7.641-10.44-17.964-20.162-19.928-.05-.01-.071.061-.02.081 10.18 2.768 13.207 13.259 19.882 20.076.148.143.417-.051.3-.229zM62.07 75.937c.188-.091.091-.397-.102-.397-3.775.02-1.684 7.673-5.53 7.957-.137.01-.158.178-.03.23 1.343.503 2.223-.906 2.726-1.975.9-1.943.835-4.736 2.936-5.815zm-6.914.835c.397-1.298.997-2.56 1.155-3.928.02-.209-.31-.295-.397-.107-.56 1.242-.687 2.64-1.018 3.958-.05.173.209.245.26.077zm-3.556 2.58c-.148-.27-.606-.082-.499.208 1.028 2.935 1.257 5.962 3.867 7.997.07.061.178-.03.111-.117-1.175-1.348-1.994-2.767-2.431-4.507-.31-1.211-.463-2.453-1.048-3.582zm10.658-17.456c-1.725-.972-3.526-2.213-5.118-3.287-.209-.148-.417-.29-.57-.458 0 .01 0 .02-.01.03a.288.288 0 01-.198.2c-.626.106-1.277-.138-1.913-.082-.438.03-.957.28-1.364.081-.071.04-.158.081-.239.127-.387.158-.656 0-.967-.239-.26-.198-.508-.524-.55-.865a.902.902 0 01.042-.366c.06-.168.198-.229.28-.377.05-.091.178.051.07.092-.218.071-.127.514-.06.646.091.209.29.336.478.448.188.117.34.209.56.137.07-.02.157-.06.239-.101a.334.334 0 01.091-.107 1.71 1.71 0 01-.56-.657c-.02-.03.02-.06.051-.04.468.493.855.498 1.486.366.198-.04.397-.071.57-.158.137-.06.198-.147.35-.137.021 0 .021.02.042.02.198.072.396.148.605.178-.209-.325-.25-.676.168-.971.376-.27.778-.041 1.145.137.208.102.407.209.605.315 0-.01 0-.01.01-.02.168-.198.478-.397.367-.712-.01-.02.03-.03.03-.01.112.218.168.325.137.585a.573.573 0 01-.198.376c.04.02.081.051.112.071.01-.01.01-.02.02-.03.28-.27.458-.626.428-1.023-.01-.188-.102-.325-.148-.488-.02-.092-.04-.081-.01-.188 0-.01.01-.01.02-.02-.147-.092-.27-.26-.35-.418-.377.26-.769.092-1.115-.127-.26.081-.56.061-.809-.061-.02.02-.03.04-.05.05.157.021.31.072.427.128.34.148.625.397.758.753.05.137-.138.209-.23.137-.228-.198-.457-.397-.737-.534-.168-.081-.377-.107-.54-.188-.157.168-.34.26-.559.305.209.356.24.92.168 1.231-.01.051-.102.072-.137.02-.112-.259-.158-.544-.27-.803-.061-.158-.158-.29-.25-.428a1.67 1.67 0 01-.31-.06c-.218.04-.417.08-.58.269-.147.168-.27.356-.498.387-.03 0-.072-.01-.072-.041-.04-.315.199-.514.438-.656-.31-.051-.498-.158-.855-.051-.03.01-.05 0-.07-.02l-.092.06c-.138.128-.23.28-.407.357-.031.01-.062.01-.092.02-.092.071-.219.158-.25.28-.05.178.041.366-.02.544-.02.061-.091.102-.157.061a.35.35 0 01-.082-.091c.04.198-.112.356-.32.325-.341-.05-.916-.218-1.074-.585-.127-.315.082-.666.188-.951a7.973 7.973 0 01.718-1.501c.28-.427.519-.941.977-1.19.04-.02.101.01.081.06-.102.26-.25.428-.427.647-.29.366-.499.742-.707 1.16-.168.346-.5.854-.479 1.251.01.29.04.427.387.478.3.041.356-.03.509-.26a.754.754 0 01.07-.228c.021-.03.042-.061.062-.081h-.01c-.072-.03-.072-.158.02-.158.28.01.616-.102.82-.26.101-.081.238-.127.33-.208.05-.04.092-.092.147-.148-.228-.157-.437-.376-.57-.498-.02-.02.01-.041.031-.03.24.208.616.3.936.3 0-.031 0-.072.01-.128a10.14 10.14 0 01-.06-.26.531.531 0 01-.01-.28 1.89 1.89 0 00-.138-.29c-.02-.04.04-.106.071-.06.27.336.616.961 1.058.972.22 0 .448-.051.667-.062.229-.01.208-.05.239-.295.01-.127.02-.239.04-.366 0-.01.01-.02.01-.02.031-.25.138-.499.321-.636.051-.03.102.02.092.071-.04.178-.127.336-.158.509-.02.107-.03.208-.05.305.02.137.04.295.04.427a.51.51 0 00.25-.01c.137-.06.28-.27.35-.386.158-.25.28-.479.489-.687.02-.02.04.01.03.03-.26.27-.218.667-.3 1.002.178.051.34.107.519.041.219-.071.366-.178.468-.386.01-.02.04-.01.03.01-.04.147-.04.3-.07.427.218.127.478.219.686.01.178-.168.25-.407.367-.605.02-.03.08-.03.091.01.071.29.01.616-.188.845.04.03.081.05.127.081.05.05.102.092.168.127.06.092.112.082.127-.02.656-.25-.31-1.2-.55-1.42-.508-.488-.997-.961-1.571-1.378-.02.01-.051.02-.082.01-.758-.168-1.236.325-1.933.376-.799.061-1.333-.697-2.111 0-.041.03-.092-.01-.072-.05.438-.713.957-.555 1.644-.418.844.158 1.82-.793 2.548-.157h.02c.596.208 1.105.595 1.542 1.032.24.24.428.479.626.753.168.24.407.428.448.723.04.28-.061.814-.377.951a.303.303 0 01-.188.02c.03.158.25.316.31.458.062.158.102.387.102.555 0 .386-.219.707-.488.972.157.117 6.008 3.81 5.896 3.988-.112.189-.697-.218-1.872-.941-1.384-.845-2.727-1.755-2.91-1.877a151.94 151.94 0 01-.936-.626c-.04-.01-.697-.488-.728-.524-.32-.158-.457-.28-.778-.438-.01.01-.01.02-.02.02-.407.28-.458.555-.331.805.02.01.04.02.06.04.032.03.042.072.042.127.356.438 1.165.784 1.424.931.616.357 1.226.708 1.832 1.074 1.007.605 2.142 1.13 3.037 1.898.727-.647 1.725-1.17 2.508-1.598.061-.03.127 0 .168.051a.698.698 0 01.29 0c.32.071.57.316.809.544.34.346.697.677 1.038 1.023.687.677 1.475 1.389 2.442 1.4.137 0 .28-.011.417.01a.86.86 0 010-.23c-.595-.091-1.084-.376-1.486-.865a5.875 5.875 0 00-.925-.92c-.24-.178-.448-.346-.57-.626-.01-.01.01-.03.02-.02l.01.01v-.01c-.02-.692.24-1.695 1.074-1.649.768.03 1.684.468 2.3.982.259-.01.518 0 .788.05 1.017.21 2.05 1.41 2.9 2.433.997.188 2.259-.128 3.149.427.717-.315 2.111-.127 2.691.316.367.28.407.813.489 1.23.107.555.219 1.15.127 1.7 0 .02-.02.03-.03.04.686-.167 1.373.514 1.643 1.084.676 1.44-.397 3.485-2.112 3.155-.188-.03-.366-.28-.27-.438.031-.05.01-.117.01-.168v-.01h.021c-.137-.02-.147-.117-.157-.229-.397.24-1.206-.427-1.634-.722.082.666.479 1.282 1.267 1.251.168-.01.28.158.24.316.198.28.406.564.605.834.091.03.249.071.31.071.3.03.417-.127.478-.397.051-.239.458-.188.438.061-.051.479-.26.804-.758.845h-.082c.03.448.082.89.158 1.328a.207.207 0 01-.04.157c.854 2.402-1.654 3.99-3.017 5.765-.01.01-.02.01-.031.02a153.26 153.26 0 00-1.562 2.452c-.875 1.42-1.547 3.007-2.483 4.396.24.554.28 1.14.209 1.745-.061.499-.188.992-.209 1.49-.02.494.082.932 0 1.4-.02.127-.178.117-.239.03a1.832 1.832 0 01-.198-.366c-.02.01-.03.02-.061.03-.117.041-.209-.106-.158-.198a.532.532 0 01.127-.148c-.071-.437-.01-.905.04-1.337.113-.825.25-1.547.24-2.361-.107.02-.219-.051-.178-.178.677-2.35 2.152-4.732 3.795-6.787-.147-.071-.26-.25-.168-.448.041-.081.092-.147.148-.219-.24.051-.346-.315-.148-.447.29-.209.596-.448.83-.723-.061-.167.02-.417.26-.427h.02c-.092-.107-.041-.3.147-.326a1.8 1.8 0 00.33-.06c-.208-.021-.238-.296-.04-.367.102-.04.229-.081.346-.127a.74.74 0 01-.229-.158c-.02-.02-.02-.071.02-.081.28-.041.56-.041.83-.138.239-.081.447-.315.707-.325a2.26 2.26 0 00.397-1.359c0-.28-.03-.488-.01-.732a.197.197 0 01-.051-.092c-.148-.366-.168-.824-.331-1.17-.168-.336-.31-.417-.54-.666a1.085 1.085 0 01-.208-.356c-.417.06-.809-.097-1.165-.326-.198-.127-.387-.28-.595-.397-.122-.071-.26-.107-.387-.147.102 1.063.209 2.141.387 3.174.02.102-.122.148-.168.04-.509-1.439-.83-2.879-1.038-4.395-.31-2.305-.478-4.019-2.203-5.764-.605-.605-1.185-1.358-1.872-1.877-.758-.575-1.353-.555-2.162-.626-.875-.071-1.287.03-2.173-.377-.249-.117-.071-.508.189-.437.656.188 1.256.117 1.861.05-.29-.101-.584-.218-.885-.325-.219-.071-.519-.229-.748-.229-.747-.01-.727.657-.758 1.19a.202.202 0 01-.137.2c.366.198.738.345 1.048.635.605.575.906 1.16 1.852 1.114.29-.01.32.407.102.499.208.564.56.971.865 1.516.371.677.407 1.338 1.216 1.658.117.051.147.199.03.27-.01.01-.02.01-.03.02.01 1.19.478 2.32.437 3.516-.04 1.307-.32 2.549-.29 3.861 0 .148-.188.189-.26.072-.727-1.11-.121-2.453-.02-3.674.02-.188.02-.386.01-.575-.346.117-.748.092-1.007-.137a2.053 2.053 0 01-.56.24c-.747.177-1.434-.092-1.841-.733-.02-.02.01-.051.04-.041.52.326 1.257.458 1.842.24.636-.24.768-.952 1.333-1.212.01-.01.02-.01.04-.01-.05-.498-.07-.992.021-1.47-.361.04-.666-.26-.875-.616a1.18 1.18 0 01-.147.356 9.333 9.333 0 01-2.01 2.254c-.051.04-.122.092-.198.092-.051 0-.092-.03-.138-.051l-2.02-1.211c-.112-.071-.239-.148-.3-.26 0-.01 0-.02-.01-.03-.071.753-.356 1.5-.926 2.193-.02.03-.05.03-.081.04-.01.051-.02.107-.051.178-.03.336-.04.677-.01 1.023.01.595.04 1.18.07 1.776.886.783 1.654 2.121 2.87 2.274.28.04 3.536-.02 3.516.04a.25.25 0 01.3-.167c.01 0 .02.01.04.01.22.05.3.427.072.524-.499.219-1.185.06-1.715.06-.819-.01-1.953.21-2.737-.04-.417-.137-.865-.488-1.277-.93.26.345.52.676.82.97.686.677 1.653 1.17 2.05 2.087.04.081-.061.188-.138.107-1.322-1.313-3.627-2.473-4.055-4.467-.08-.03-.157-.092-.167-.209-.158-1.368-.02-2.701.157-4.07.02-.168.29-.24.32-.04 0 .01 0 .02.011.03.977-1.755.33-3.572-.895-5.103-.199-.117-.407-.219-.606-.336-.157-.091-.31-.188-.478-.239a.09.09 0 01-.061.107c-.987.188-.55 1.358-.468 1.964.071.544.188 1.094.219 1.638.01.229-.341.27-.397.05-.158-.594-.835-4.07.478-3.87.092-.27.438-.398.738-.459.32-.06.707-.178.778-.498.071-.356-.29-.667-.29-1.013-.865.616-1.913 1.231-2.401 2.086-.52.906-.657 3.77.102 4.752.08-.092.157-.188.249-.27.081-.081.198.02.157.117-.905 2.132-.498 3.684-.157 5.846.188 1.18.25 2.34.081 3.526.33 1.923 1.247 3.653 1.745 5.576.489 1.897.845 3.902.926 5.866.178.02.351.02.54 0 .06-.01.08.07.04.117-.687.686-.112.01-1.017.356-.718-.28-1.364-.051-1.913.687-.102.544-.199 1.073-.3 1.617-.062.814.091 1.618.101 2.432.01.921-.157 1.41-.519 2.213-.437.942-.936 1.537-.625 2.63.28.983.966 1.868 1.724 2.529.072 0 .148.031.138.117.02.021.05.041.07.061.24.188.062.468-.167.534-.081.407-.178.814-.3 1.211 0 .051-.01.092-.04.148-.26.875-.58 1.735-.856 2.6v.01c.01.051.01.117-.03.168l-.02.02c-.51 1.689-.769 3.444-1.288 5.128-.07.229-.407.188-.417-.051-.05-1.032.148-2.075.417-3.088-2.182 2.183-6.771 1.064-9.152 3.027-.26.219-.646-.137-.387-.386 2.727-2.57 6.894-1.074 9.733-3.373.04-.148.081-.28.127-.418-.728.438-1.582.667-2.432.784-2.411.326-4.792.168-7.194.773-.03.01-.04-.04-.01-.051 1.516-.605 2.966-.961 4.594-1.073 2.02-.148 3.607-.397 5.327-1.318.239-.753.468-1.536.727-2.294-1.037.447-2.1.773-3.245.9-2.05.229-3.847-.605-5.856-.534-2.183.086-3.638 2.025-5.281 3.215-1.226.886-2.529 1.639-3.943 2.173-.092.03-.137-.102-.061-.148 1.663-1.063 3.368-2.045 4.869-3.342.758-.657 1.455-1.639 2.33-2.173-2.213-3.871-4.605-7.58-7.311-11.136-3.409-4.488-7.072-7.703-12.343-9.886-.02-.01-.01-.03.01-.03 5.073.753 9.046 4.803 12.084 8.654 2.92 3.714 6.227 7.779 8.1 12.159 1.027-.346 2.34-.01 3.357.148 1.475.229 2.849.28 4.202.107-.06-.082-.091-.179-.147-.29a5.158 5.158 0 00-.428-.774c-.35-.498-.834-1.002-1.343-1.328-.091-.061-.01-.198.082-.147.605.3 1.104.626 1.541 1.17.112.148.28.346.428.565h.02c-.04-.072-.071-.138-.127-.209a7.79 7.79 0 00-.667-.905c-.458-.524-.997-.962-1.516-1.42-.05-.041 0-.137.061-.117.438.148.82.387 1.185.656a8.753 8.753 0 00-.798-.834c-.616-.555-1.313-1.13-2.101-1.41-.52-.188-.987-.238-1.435-.584-.02-.02-.01-.072.02-.051.636.25 1.333.157 1.974.386.779.28 1.496.784 2.122 1.328.397.346.844.794 1.226 1.293a12.456 12.456 0 01-.178-1.985c0-.081.112-.07.127 0 .112 1.43.666 2.849 1.343 4.091a.275.275 0 01-.02.295 11.18 11.18 0 002.07-.753c.138-.346.29-.692.458-1.013-1.083-.885-2.33-2.569-2.401-4.008-.02-.448.071-.657.219-1.043.417-1.115 1.256-1.847 1.297-3.195.04-1.38-.387-3.373.59-4.564.377-.448.779-.565 1.196-.544a.265.265 0 01-.061-.168c-.3-2.727-3.506-4.645-2.997-7.494.01-.051.092-.051.102 0 .605 2.808 3.297 4.614 3.566 7.494a.273.273 0 01-.071.229c.112.02.229.04.356.07-.488-2.528-.615-5.112-1.485-7.57-.479-1.337-1.323-2.569-1.196-3.927.01-2.025-.33-3.938-.58-5.942-.127-1.023-.03-1.995.499-2.809-1.216-.458-.718-2.996-.616-3.948.061-.534.127-.981.33-1.419l.26-.417c-.035.005-.356-.234-.473-.3zm-1.048 1.643c-.799.585-1.475.951-2.422 1.338.01.03.02.061.02.107-.04 2.6-.07 5.21-.427 7.779.845.346 2.183.92 2.951.92-.906.25-1.073.168-1.643.082-.428-.061-1.084-.3-1.394-.427a23.373 23.373 0 01-.27 1.49c-.788 3.694-2.818 7.194-1.384 11.005.01.04-.05.06-.07.03-1.614-2.66-.81-5.545.03-8.338 1.226-4.08 1.475-8.166 1.516-12.404-.138.04-.26.092-.387.138-2.539 2.004-6.863 1.994-9.794 1.358-.06-.01-.05-.117.01-.117 1.863.05 3.923.02 5.846-.397-2.258.295-4.533.316-6.496.219-1.995-.092-4.452-.855-5.989-2.183-1.175-1.012-2.004-2.538-2.67-4.09a6.94 6.94 0 01.28 1.628c.32.855.615 1.735.864 2.63.092.23.168.468.219.687a.41.41 0 010 .158c.875 3.403 1.287 6.985 1.374 10.368 0 .148-.25.188-.27.03a111.64 111.64 0 00-.407-2.62c-.02.357-.05.713-.112 1.043-.05.296-.478.168-.438-.127.28-1.913-.137-3.454-.666-5.22-.081.179-.188.357-.28.535l-.178.3a9.145 9.145 0 01-2.06 2.213c-.28.219-.687-.168-.407-.407 1.322-1.073 2.32-2.422 3.088-3.923-.01-.07-.03-.137-.04-.208-.031 0-.072.01-.103 0-.666-.158-1.216-.524-1.745-.941-.249-.199-.55-.417-.748-.677-.198-.27-.28-.605-.478-.865-.04-.06.03-.137.092-.117.29.092.615.107.895.229.24.107.438.29.657.448.386.28.758.503 1.185.636-.04-.189-.071-.377-.112-.565-.05-.28-.229-1.13-.27-1.338-.01-.05-.02-.117-.03-.168a6.212 6.212 0 00-.875-1.292c-.596-.677-1.374-1.063-2.03-1.659a.077.077 0 01-.02-.04c-.041-.01-.082-.01-.128-.02-.127-.031-.147-.25 0-.27 1.155-.178 1.415-1.898.779-2.702-.331-.427-.789-.565-1.313-.636-.697-.107-1.084.127-1.475.702.03.03.06.061.091.082a.22.22 0 01.072.168c.549-.616 1.582-.794 2.11-.061.042.05.031.106.011.157.31.489.458 1.19.31 1.598-.157.458-.605.742-1.104.865a1.5 1.5 0 00.082.636c.01.03.01.06.01.106.677.148 1.486.886 1.155 1.598a.199.199 0 01-.178.117 1.347 1.347 0 01-.865.982 1.31 1.31 0 01-.27.06c.02.011.04.011.071.021.041.02.041.092 0 .117-.844.397-1.505.626-2.05 1.46-.178.27-.31.555-.448.835.26-.316.55-.606.876-.865.768-.626 1.592-1.023 2.431-.28.748.656.987 1.689.769 2.64-.031.117-.22.092-.209-.03.061-1.369-.616-3.088-2.56-1.888-.549.346-1.027 1.074-1.342 1.618-.626 1.064-.977 2.768-.616 4.09.148.326.26.616.468.932.417.605.667.844 1.425.844.946 0 1.323-.407 1.613-1.368.091-.326.137-.647.157-.982-.208.417-.447.824-.748 1.15-.01.05-.04.091-.101.117a2.494 2.494 0 01-.835.554c-.07.03-.147-.071-.102-.137.102-.168.22-.326.331-.478-.626-.199-1.104-.784-1.312-1.43a2.724 2.724 0 01-.072-1.537c.061-.249.168-.478.27-.722.26-.616.366-1.13.448-1.796 0-.02.02-.03.04-.01a.91.91 0 01.178.26 3.44 3.44 0 01.957-1.13c.081-.061.209-.04.3 0 .967.514.697 2.452.52 3.343 0 .02-.021.02-.031.02a1.358 1.358 0 01-.148.295c-.148.219-.366.336-.59.158-.219-.168-.32-.514-.351-.774-.02-.168-.01-.325.03-.488.041-.188.138-.25.24-.407.03-.051.127-.02.101.04-.081.23-.06.983.199 1.201.127-.178.178-.534.229-.686.03-.107.137-.138.229-.107-.01-.199-.02-.407-.041-.606.178-.585.05-.885-.397-.92-.28-.168-.448-.062-.488.325-.489.555-.448 1.506-.27 2.172.102.387.488 1.608 1.206 1.19a.204.204 0 01.249.031c.01-.91-.05-1.816.448-2.62.112-.178.386-.06.33.148-.29 1.328-.168 2.839-.615 4.11-.26.733-.81 1.43-1.613 1.588-1.516.305-2.839-1.501-2.758-2.915-.228-.626-.3-1.252-.101-2.086.102-.428.25-.845.447-1.242 0-.951.708-2.121 1.227-2.808.33-.448.864-.92 1.434-1.002a1.26 1.26 0 01-.834-1.043c-.061-.687.417-1.47 1.104-1.628-.102-.209-.148-.448-.05-.656-.28.03-.55.02-.78-.031-.956-.209-.666-1.735-.28-2.391a.208.208 0 01-.187-.02c-.041-.031-.092-.062-.138-.107a2.764 2.764 0 00-.101-.478c-.082-.23-.179-.448-.27-.667.01-.01.02-.02.02-.03.112.127.209.27.3.406.092.138.199.24.31.357.418-1.338 2.463-1.252 3.236-.26a.813.813 0 01.112.188c-.101-.3-.208-.595-.31-.895-.03-.071.071-.127.127-.071.082.081.158.168.23.249.07-.03.167-.01.208.071.112.24.229.494.33.743.051.092.092.188.138.29-.127-.356-.25-.697-.377-1.023 0-.01.01-.01.02-.01 1.206 1.923 1.944 4.31 3.445 6.024 1.664 1.913 4.859 2.67 7.32 2.61 3.17-.082 6.437-.27 9.413-1.252.04-.03.071-.05.112-.081a.27.27 0 01.229-.04c1.058-.377 1.872-.754 2.839-1.38 0 0 .26-.127.468.082.224.173-.158.468-.158.468zm11.747 5.174a1.97 1.97 0 01-.509.626c.199.01.387-.02.575-.117-.02-.163-.04-.341-.066-.509zm9.3.473a1.66 1.66 0 00.25-.585c.081-.376.04-.763-.123-1.099a2.27 2.27 0 00-.127 1.684zm-1.23-2.213c-.21.24-.27.606-.367.951.02.01.04.01.06.02.22.118.469.22.688.357.05-.209.091-.407.127-.504.112-.3.27-.575.458-.834-.27-.254-.621-.366-.967.01zm-.123-.931c-1.104.316-1.084 1.648-1.79 2.391.437.305.874.702 1.413.646.082-.01.148.082.138.158.03-.01.3-.02.34-.02l.357.01c0 .03.03-.117.122-.336-.05-.061-.28-.117-.31-.148-.168-.127-.499-.208-.687-.3h-.03c-.123.148-.311.25-.606.25-.102 0-.137-.127-.051-.189.738-.544.458-1.826 1.287-2.243-.06-.02-.127-.051-.147-.127-.01-.03-.01-.061-.02-.092-.006-.01-.006 0-.016 0zm-2.529-2.849c0 .01.01.01 0 0 .758.844 1.084 2.36 1.206 3.434v.02c.29-.478.657-.844 1.303-.763-.117-.773.01-1.984-.667-2.401-.529-.34-1.216-.24-1.841-.29zm-3.429-.616c.3.367.58.713.83.962.737.773 1.206 1.318 1.434 2.391.27 1.221.407 2.493.53 3.77.228.01.457.158.666.28.478.295.875.646 1.435.732-.01-.03-.01-.07-.02-.101-1.313-.051-2.204-2.076-1.196-3.027.168-.158.386.04.29.228v.01c.208-.294.376-.645.56-.971-.118.04-.29 0-.347-.137-.427-1.053-.366-2.61-1.322-3.373-.814-.692-1.964-.235-2.86-.764zm-8.933 1.252c.35.397.646.834.854 1.307.57.27 1.135.545 1.705.815-.23.28-.082.707.147.981.23.28.52.524.616.875.06.23.127.565.35.535.23-.03.2-.377.093-.596-.26-.544-.51-1.083-.769-1.628.52-.656.967-1.368 1.333-2.131-.727.01-1.414.514-1.653 1.2a43.946 43.946 0 01-2.676-1.358zm-9.194-6.975c-.101-.061-.259-.158-.33-.148l-.606.545.22.178c.04.02.07.04.111.06.026-.228.198-.437.605-.635zM35.181 71.588c-.519-.107-.967-.845-1.165-1.349a4.005 4.005 0 01-.3-1.109c-.148.534-.23 1.1-.092 1.628.178.667.626 1.033 1.145 1.359.132-.168.275-.357.412-.53zm-.087-9.616c-.188.05-.34.219-.457.427.208.189.437.356.717.23.219-.092.468.106.34.345-.157.28-.498.336-.778.219-.218-.081-.33-.24-.417-.427a.74.74 0 000 .366c.148.468.718.585 1.104.326.387-.27.417-.753.377-1.18-.26-.215-.656-.357-.886-.306zm-.86-1.704c.321.346 1.217 0 1.527-.209.438-.305.356-.804.168-1.231-.158-.346-.351-.575-.748-.606a.29.29 0 01-.137-.04 1.054 1.054 0 00-.52.356c-.269.32-.656 1.353-.29 1.73zm5.551 7.672c-.05.157-.112.305-.178.447.148.199.28.418.397.636-.071-.35-.148-.717-.219-1.083zm-1.424-8.598c-.112-.28-.219-.565-.32-.845.08.219.157.438.208.667.04.06.081.112.112.178zm38.238 17.766c-.04.02-.051.091 0 .106.666.127 1.445-.02 1.892-.564.189-.24.31-.499.341-.814.03-.336-.05-.524-.208-.804-.051-.092-.168-.02-.158.06.061.428-.117 1.044-.397 1.36-.392.447-.961.467-1.47.656zm2.63 26.18c-4.182-.488-8.847.921-12.871-.575-.29-.107-.397.3-.199.458.199.158.417.28.656.387-.06-.021-.127.051-.06.102.498.407.895.763 1.505 1.002.28.107.57.188.865.239a4.668 4.668 0 01-2.1.168c-.22-.031-.28.239-.082.325 1.165.489 2.432.407 3.464-.386.22-.168.168-.555-.147-.555-1.094.01-2.422-.325-3.389-.875 1.344.595 3.13.458 4.503.427 2.63-.061 5.25-.396 7.87-.534.107-.005.097-.173-.015-.183zm10.053-5.001c-2.59-2.203-5.357-3.928-8.547-5.128-3.607-1.359-7.56-1.44-11.106-2.946-.05-.02-.082.061-.04.092 2.955 1.587 6.354 1.846 9.493 2.89 3.576 1.19 7 3.047 10.012 5.31.148.108.315-.111.188-.218zm-20.89 3.103c1.583.606 3.318.865 4.89.438.239-.061.178-.397-.051-.417-2.64-.199-4.803-.387-7.123-1.837-.218-.137-.488.138-.35.356.259.428.595.702.956.931-.55-.249-1.094-.585-1.542-.834-.03-.02-.06.031-.03.051.966.702 1.79 1.536 3.017 1.618.193.005.264-.153.234-.306zm-3.774-33.811c-.52.06-1.155-.01-1.216-.723 0-.04-.061-.04-.061 0 .02 1.013 1.205 1.41 2.02.972.529-.28.57-.784.615-1.338.05-.687.158-1.282-.24-1.888-.04-.06-.157-.02-.136.051.188.524.02 1.302-.061 1.827-.097.681-.224 1.012-.921 1.099zm3.027 11.67c.168-.06.147-.305-.04-.315-.957-.071-1.812-.27-2.621-.814-.03-.02-.071.02-.05.05.498.932 1.693 1.486 2.71 1.08zM26.049 98.12c-.148-.615-.697-1.16-.987-1.735-.351-.686-.687-1.48-.896-2.233-.03-.107-.198-.082-.188.02.071.804.188 1.496.509 2.244.27.636.636 1.577 1.287 1.913.142.076.316-.051.275-.209zm6.74-12.754c-1.027-.23-2.41-.636-3.428-.209-.01.01-.01.02.01.02.595-.188 1.247.128 1.832.24.498.101 1.007.198 1.505.27.194.035.285-.27.082-.321zm5.053-10.939c-1.155 1.221-2.35 2.651-3.14 4.147-.34.646-1.286 2.274-.605 2.9.138.117.351.07.397-.107.33-1.252.626-2.371 1.297-3.505.677-1.14 1.486-2.214 2.132-3.374.03-.04-.04-.106-.081-.06zm4.833 1.898c-.956-2.183-.834-4.447-1.287-6.72-.01-.031-.051-.021-.051.01-.178 2.223-.112 4.914 1.073 6.878.112.168.352.01.265-.168zm-3.877-3.129c.428-.524.616-1.43.509-2.086-.02-.147-.229-.127-.27 0-.091.346-.111.723-.198 1.064-.071.315-.178.625-.198.95 0 .093.117.133.157.072zM27.331 98.592c-.071-.081-.178.02-.137.107.946 2.035 2.89 3.485 4.909 4.365.407.178.626-.386.229-.554-2.04-.86-3.526-2.31-5.001-3.918zm1.256-14.952c.26-.097.168-.478-.111-.417-5.073 1.119-9.077 6.537-9.351 11.62-.01.157.229.178.26.03 1.154-5.072 4.273-9.36 9.202-11.233zm9.056-.122c2.381.437 4.773.346 7.154.478a.32.32 0 01.07-.198c.667-.794.845-1.766.606-2.768-.01-.04.04-.061.061-.03.509.814.509 1.806.102 2.65.387-.448.666-.982.778-1.567.02-.091.178-.071.178.02-.01.158-.03.3-.05.448.06 0 .137.02.178.061.396.417.29 1.1-.051 1.526.407.051.819.117 1.226.199.488.091.28.824-.209.743-3.347-.606-6.904-.158-10.088-1.516-.026.005.005-.056.045-.046zm8.298.564c.102.01.209.02.3.031.178-.28.24-.595.158-.931-.102.326-.25.616-.458.9zM23.74 94.94c-.188-1.073-.112-2.182.127-3.245.02-.092-.101-.128-.147-.041-.707 1.765-.855 4.426.488 5.947.148.158.407-.01.351-.208-.234-.825-.671-1.578-.819-2.453zm6.624 7.235c-1.445-.962-2.737-2.152-3.912-3.434-.072-.071-.199.02-.148.117.209.315.428.626.677.941a20.352 20.352 0 00-1.343-1.073c-.041-.031-.092.03-.061.06.686 1.044 1.562 1.898 2.528 2.692.138.107.29.071.397-.02 1.714 1.638 3.877 2.986 6.044 3.174.158.01.198-.208.071-.285-1.394-.819-2.9-1.287-4.253-2.172zM21.797 89.71c-.667.448-.916 1.17-1.155 1.898-.178.544-.29 1.094-.438 1.638-.157.575-.417 1.1-.54 1.669-.04.178.179.326.311.178.606-.626.687-1.587.82-2.422.188-1.109.478-1.953 1.037-2.925.026-.015-.005-.061-.035-.036zm3.495 6.146c.168.702.417 1.44 1.048 1.847.188.127.458-.127.32-.326-.386-.534-.885-.971-1.124-1.597-.056-.143-.285-.081-.244.076z" fill="#333"/><path d="M129.288 34.063c1.582 0 2.854.428 3.821 1.277.967.85 1.45 1.97 1.45 3.363 0 1.135-.321 2.28-.957 3.434-.636 1.135-1.5 2.137-2.584 3.007a9.451 9.451 0 01-3.541 1.842l-.529-.921a5.717 5.717 0 002.442-2.157c.636-.992.956-2.056.956-3.185 0-1.343-.366-2.417-1.099-3.22-.732-.825-1.689-1.242-2.864-1.242-1.251 0-2.432.509-3.541 1.521-1.084.992-1.959 2.335-2.62 4.035-.636 1.673-.956 3.48-.956 5.418 0 1.984.305 3.74.92 5.276.616 1.51 1.466 2.691 2.549 3.54a6.063 6.063 0 003.785 1.278c1.013 0 2.03-.25 3.043-.743 1.038-.519 2.04-1.262 3.007-2.228l.956.885c-1.109 1.44-2.488 2.645-4.141 3.612-1.628.946-3.338 1.414-5.134 1.414-1.933 0-3.632-.447-5.097-1.343-1.44-.895-2.549-2.137-3.328-3.719-.778-1.608-1.17-3.434-1.17-5.49 0-2.879.651-5.51 1.949-7.895 1.323-2.407 3.093-4.294 5.306-5.663a13.728 13.728 0 017.377-2.096zm12.83 17.064h.142c.519-2.29 1.369-4.4 2.549-6.34 1.181-1.932 2.631-2.904 4.355-2.904.804 0 1.394.25 1.771.743.402.493.651 1.083.743 1.77.091.662.142 1.476.142 2.442v9.809c0 .285.081.555.249.814.189.234.448.356.779.356.564 0 1.155-.412 1.77-1.236l.601.671a5.772 5.772 0 01-1.735 2.05c-.753.566-1.583.85-2.478.85-2.244 0-3.363-1.236-3.363-3.719V47.16c0-.306-.061-.58-.178-.814-.097-.26-.27-.392-.529-.392-.992 0-1.852.824-2.585 2.478-.707 1.653-1.261 3.566-1.663 5.733-.377 2.173-.565 3.928-.565 5.276l-4.248.921V28.686l4.248-1.486v23.927h-.005zm19.609-12.637l-2.228.707-1.45-7.397 4.92-1.664-1.242 8.354zm1.135 18.162c0 .356.081.636.249.85a.81.81 0 00.672.32c.59 0 1.19-.412 1.806-1.236l.636.672c-.519.941-1.191 1.663-2.02 2.157-.804.493-1.603.743-2.407.743-2.147 0-3.22-1.237-3.22-3.72V43.695l4.284-1.485v14.443zm34.311-14.443c1.252 0 2.407.25 3.47.743 1.084.493 1.888 1.262 2.407 2.3l-3.434 1.414a4.252 4.252 0 00-1.379-1.521c-.59-.402-1.216-.6-1.878-.6-1.582 0-2.833.66-3.754 1.983-.921 1.323-1.379 2.971-1.379 4.956 0 1.816.27 3.317.814 4.497.544 1.155 1.404 1.735 2.585 1.735 1.653 0 2.782-.768 3.398-2.3.616-1.556.921-3.246.921-5.062v-1.557l4.141-1.485v9.203c0 .33.071.626.214.886a.822.822 0 00.707.356c.59 0 1.191-.413 1.806-1.242l.672.672c-.356.824-.921 1.536-1.7 2.126-.752.565-1.566.85-2.442.85-1.134 0-1.958-.377-2.477-1.134-.519-.779-.779-1.771-.779-2.977h-.142c-.565 1.277-1.323 2.315-2.264 3.114-.946.778-2.04 1.17-3.292 1.17-1.887 0-3.352-.687-4.39-2.055-1.013-1.394-1.521-3.2-1.521-5.419 0-1.887.401-3.647 1.205-5.276.825-1.627 1.969-2.925 3.434-3.891 1.486-.992 3.17-1.486 5.057-1.486zm-14.831 15.343c-.622 0-1.281-.386-1.987-1.152-.682-.791-1.465-1.838-2.341-3.134a7.996 7.996 0 01-.576-.802c1.434-.93 2.102-1.552 3.254-2.789.958-1.026 1.401-1.552 1.848-2.228.438-.656 1.198-1.938 1.474-2.629.646-1.612 1.217-4.11 1.157-4.376-1.89.53-2.558.831-4.102 1.332-.645 3.19-1.681 6.064-4.17 8.793-.981 1.071-1.083 1.301-2.903 2.764l-.134.085a.914.914 0 00-.083.055l-.654.415.009-5.222v-21.15l-3.816 1.462V60.16l3.816-.906c.023-.696.074-1.522.161-2.473.106-.952.226-1.673.355-2.158l.291-.176c.193.185.64.741 1.345 1.673.917 1.252 1.742 2.228 2.47 2.924.747.696 1.581 1.046 2.503 1.046.94 0 1.838-.28 2.691-.836a5.945 5.945 0 001.986-2.093l-.576-.696c-.553.726-1.226 1.087-2.018 1.087z" fill="#F3F2F2"/></svg>